<?xml version="1.0" encoding="UTF-8"?>
<!-- Generator: Adobe Illustrator 23.0.3, SVG Export Plug-In . SVG Version: 6.00 Build 0)  -->
<svg version="1.1" id="Vrstva_1" xmlns="http://www.w3.org/2000/svg" xmlns:xlink="http://www.w3.org/1999/xlink" x="0px" y="0px" viewBox="0 0 595.3 841.9" style="enable-background:new 0 0 595.3 841.9;" xml:space="preserve">
<style type="text/css">
	.st0{fill:#F6D22C;}
</style>
<g>
	<path class="st0" d="M238.2,515.2c0.6-0.8,2.3-2.4,2.4-3.4c0.1-1.1,0-0.5-1.1-1.5c-2.1-1.9-4.7-3.5-7-5.1c0.5-0.6,0.9-1.3,1.4-1.9   c-1.7-0.2,0.3-2.4,0.8-1.1c0.9-1.3,1.2-2.1,2.7-1.5c0.1,0,1.4,1.9,2.1,2.2c0,0,0.9,0.8,1,0.7c0.5-0.1,2.5-2.8,3.1-3.3   c-0.5-0.3-2.7,1.6-3.4,2.2c0.7-1.1,1.5-2.2,2.3-3.3c-0.7-0.5-3.6-2-3.7-2.7c-0.2-0.9,2.8-2.7,1.9-3.4c-0.1,0,1.4-0.8,1.4-0.8   c0.7-0.3,2.8-0.7,3.8-0.7c-0.7,0.7-1.6,1.3-2.5,1.6c2.2,1.6,4.4,3.2,6.6,4.8c0.6-0.9,1.3-1.9,1.9-2.6c-1.6,1.1-1.3-2.9-1.2-2.7   c-0.3-0.6-1.8-1.3-2.4-1.7c-0.1,0.7-0.3,1.3-0.7,1.8c0.1-1-1.1-1.2-1.8-1.2c0.5-0.5,0.9-0.9,1.3-1.4c-1.2-1.5-1.6,0.1-2.8-0.4   c-0.2-0.1-2.4-1.5-0.1-1.7c-1.4-1.1-2.9-2.1-4.3-3.2c-2.2,3-4.3,5.9-6.4,8.8c0.9,0.1,1.8,0.1,2.7,0.2c-1,0.7-2.5,2-3.8,1.9   c0.4-0.3,0.5-0.7,0.4-1.1c-0.6,0.9-1.3,1.7-1.9,2.6c0.9-0.2,1.1,0.3,0.8,1.1c-1.7-1.2-0.8-0.7-2.1,0.7c-1,1-1.9,2.5-2.7,3.7   c-1.3,1.8-1.9,2-0.9,3.6c1.3,2,5,3.7,6.9,5.1C234.7,512.7,236.5,514,238.2,515.2z M244.4,493C244.1,493,244.3,492.9,244.4,493   L244.4,493z M248.6,493.5c-0.3,0.4-0.6,0.8-0.9,1.2C247.9,494.2,248.2,493.8,248.6,493.5z M247.2,492.8c-0.1,0.4-0.2,0.9-0.4,1.3   C245.8,493.9,246.5,493.2,247.2,492.8z M241.9,489.3c-0.4,0.3-0.7,0.7-1,1C241.2,489.9,241.5,489.5,241.9,489.3z M240,490.9   c-0.5,0-1.4-0.4-1.5-0.5C239.1,490.4,239.6,490.5,240,490.9z M228.9,507c-3.4-0.2-1.6-3.4-0.5-4.8c-0.3,0.4-0.6,0.9-0.9,1.3   C228.7,502.2,229.9,505.8,228.9,507z"/>
	<path class="st0" d="M303.5,510.8c0.3,0,0.5,0,0.8,0.1C304.4,510.4,304,510.5,303.5,510.8z"/>
	<path class="st0" d="M252.5,494.7c0.1-0.2,0.2-0.3,0.3-0.5c-0.2-0.1-0.3-0.3-0.5-0.4C252.4,494.2,252.4,494.4,252.5,494.7z"/>
	<path class="st0" d="M270.4,507.1c0.7-0.5,1.3-3.1,1.7-3.9c-1.1,0.1-2.4,0.9-3.6,0.1c-0.1-0.1,2.3-0.9,1.9-0.8   c-1.1-0.5-2-1.2-2.8-0.7c-0.1-0.2,0-0.4,0.1-0.5c-3.1-1.4-6.3-2.7-9.4-4.1c-0.2,1.6-1.1,1.7-1.8,0.6c-0.6-0.9,1-0.9,1-1   c-1.6-1.2-2.1,0.3-3.6-0.1c-1-0.3,0.5-0.4,0.3-0.5c-0.8-0.7-1.8,2.9-2.1,3.5c1,0.5,5.8,1.8,6.2,2.7c0.4,0.9-2.2,5.1-2.6,6.1   c-2,4.6-3.7,8.5-5.7,13c1,0.4,4.3,2.6,5.2,2.3c0.7-0.2,1.4-2.8,1.7-3.5c1.7-3.8,3.4-7.7,5-11.5c-0.7-0.1-0.7-0.7-1.1-1.1   c1.7,1.3,1.5,0.2,2.2-1.4c-0.6-0.1-1.2-0.2-1.7-0.4c0.6,0.1,1.2,0.2,1.8,0.3c0.1-0.3,0.3-0.6,0.4-0.9c0.1,0,0.2-0.2,0.6-0.1   c1.3,0,3,1.4,4.2,1.8C269.8,507.4,269.5,507.7,270.4,507.1z M258.5,504.8c-0.2-0.6,0.5-1.9,1.1-2.1c0.5-0.1,0.6,2.6,0.6,2.9   C259.3,505.5,258.8,505.8,258.5,504.8z M258.8,499.6c0.8-0.1,1.4,0.2,1.9,0.7C260,500.4,259.3,500.2,258.8,499.6z M260.8,500.3   C260.9,500.5,260.7,500.3,260.8,500.3L260.8,500.3z M270,504.5c0.5,1.8-0.9,1.4-2.5,1C268.3,505.2,269.1,504.8,270,504.5z"/>
	<path class="st0" d="M243.5,499.9C243.4,499.9,243.2,500.1,243.5,499.9L243.5,499.9z"/>
	<path class="st0" d="M313,513.2c0.1,0.1,0.3,0.1,0.4,0.2C313.4,513.1,313.3,513.1,313,513.2z"/>
	<path class="st0" d="M314,527.4c1.2-1.4,2-3.2,2.4-5c0.6-2.8-0.4-2.9-2.9-3.6c1.3-0.2,2.6,0,3.2-0.8c0.3-0.5-0.1-1.1-0.5-1.1   c0.9-0.1-0.5-3.7-0.8-4.4c-0.6,0.8,0.3,1.1-1.1,1.1c0.3,1,0.8,1.7-0.4,2.4c0.4-1.5,0.2-2.2-0.5-2.6c0,0,0,0.1,0,0.1   c-0.5,1.1-0.9,1.2-1.4,0.2c0.5-0.3,0.9-0.4,1.1-0.5c-0.8-0.3-2-0.4-3.2-0.7c1.1,0,2.2,0,3.4-0.1c-0.1-0.7-1.1-0.4-1.5-0.4   c0.2-1.5,0.7-2.6-0.2-3.7c-0.1-0.1-2.2-1.2-2.3-1.1c-1.1-0.4-1.6-0.6-2.6,0c-0.2-1.4-4.6-0.8-5.8-0.7c-0.8,0.1-1.6,0.1-2.4,0.3   c-1,0.2-2.5,1.3-3.5,1.2c1.3-1.9-1.6-0.6-1.9-0.1c-0.1,0.2,0.1,1,0.1,1.3c-0.1,1.7,0.3,3.7,0.5,5.4c0.4,4.9,0.9,9.8,1.3,14.7   c0.1,0.6-0.1,2.9,0.3,3.4c1.2,1.2,8-0.2,9.5-0.5C308.2,531.5,311.8,530.2,314,527.4z M306.8,508.5c-0.1,0.3-0.2,0.6-0.3,0.9   C306.4,508.9,306.3,508.4,306.8,508.5z M302.4,531.7C302.7,531.5,302.4,531.8,302.4,531.7L302.4,531.7z M305.6,529.7   c-1.1,2-3,1.5-4.9,1.6c0.3,0.9-0.3,1-1,0.7C300.5,531.2,307.1,527.1,305.6,529.7z M307.9,526c-1.4,1.1-4.5,2.5-6.3,1.9   c-1.5-0.5-0.7-0.1-1.1-1.8c-0.8-3.3-0.6-7.2-0.9-10.6c-0.3-3.1-0.9-5.5,1.8-7.8c-0.2,0.3-0.4,0.6-0.5,0.9c0.6,0.1,1.2,0.2,1.8,0.1   c-1.6-2.3,0.8-1.7,2.1-1.1c0.9,0.4,1.8-0.3,1.5,1c-0.3,1.6-2.3,0.8-3.1,0.8c0.5,0.3,1.4,1.4,2.1,0.9c-1.6,1.5,2.2,0.8,2.4,0.9   c0.8,0.2,2.1-0.7,1.5,1.2c-0.6,1.7,1.6,5.1,1.5,7.5C310.5,522.3,309.8,524.5,307.9,526z M306,509.6c-0.3,0.4-0.5,0.6-0.7,0.7   C305.5,510.1,305.7,509.9,306,509.6z"/>
	<path class="st0" d="M377.5,485.3c0.2,0.3,0.4,0.4,0.8,0.3C378.1,485.3,377.8,485.2,377.5,485.3z"/>
	<path class="st0" d="M378.2,486l0.5,0.4C378.6,486.2,378.5,486.1,378.2,486z"/>
	<path class="st0" d="M386.3,488.1c1.6,0.3,0.4-1-0.1-1.5C386.1,487.4,385.5,488.1,386.3,488.1z"/>
	<path class="st0" d="M376.4,499.4c1-1.1,2.2-2.2,3.1-3.3c-1.2,1-2.6,1.9-3.9,2.9C375.9,499.1,376.1,499.2,376.4,499.4z"/>
	<path class="st0" d="M387.3,487.6c0.1-0.1,0.2-0.3,0.3-0.4C386.9,486.7,387.2,487.4,387.3,487.6z"/>
	<path class="st0" d="M218,484.4c0.1-0.1,0.1-0.3,0.1-0.5C218,483.8,218,484.1,218,484.4z"/>
	<path class="st0" d="M230,473.8c0.6,2.3-1.9,1.6-3.3,1.3C227.7,474.6,228.8,474.2,230,473.8c-0.8-1.3-2.5,0.1-3.5,0.7   c1.3-1.7-1.3-0.7-2-0.4c-1.5,0.8-0.3,1.6-1.4,2.5c-1.1,0.9-3.1-0.4-1.1,1.3c-5.3,1.5-9.3,6.6-13.4,10.2c1.6,1.8,6.1,8.7,8.3,8   c0.1,0.5-0.1,0.7-0.6,0.6c0.3,0.5,1.1,1.6,1.5,1.3c0,0.8,0.9,1.4,1.4,2c0.6-0.5,1.2-1.1,1.8-1.6c-0.7,0.2-1.4,0.5-2,0.9   c0-1.4-0.2-4.5,1.7-4.8c-1.6-1.8-3.1-3.5-4.7-5.3c1-0.9,4.3-3.2,3.8-4.2c-0.8,1.7-1.7,0.1-1.9-0.8c-0.3,0.5-0.7-0.7-0.4-1.2   c0.4-0.8,1.2-1.4,1.9-1.9c-0.1,0.6-0.2,1.2-0.4,1.7c1.3-0.6,2.5-2.2,3.7-3.6c0.7,0.8,1.3,1.6,2,2.4c1.7-1.5,3.3-2.9,5-4.4   C231.7,475.6,231.8,475.9,230,473.8z M223.8,476.8c-0.1-0.5-0.3-1,0.3-0.9C224,476.2,223.9,476.5,223.8,476.8z"/>
	<path class="st0" d="M323.1,511.6c0.8-0.4,3.1,1.8,3.6,2.2c-1.3-3.6-2.6-7.3-3.8-10.9c-1.8,0.6-3.7,1.3-5.5,1.9   c2.8,8,5.7,16.1,8.5,24.1c5-1.8,10.1-3.5,15.1-5.3c-0.3-0.9-0.7-3.3-1.4-4c-0.8-0.7-0.4-0.3-1.8,0c-2.7,0.6-5.4,1.9-8,2.8   c-0.4-1.2-0.8-2.4-1.3-3.6c-0.1,0.1-0.1,0.2-0.2,0.3c0.2-1-0.7-3.3-0.9-3.6C327.3,515.6,321.3,512.6,323.1,511.6z M326.2,515.2   C325.9,514.9,326.2,515.1,326.2,515.2L326.2,515.2z"/>
	<path class="st0" d="M284.4,509.9c-0.1-0.8,0-3.9-0.6-4.5c-0.7-0.7-5.7-1.3-6.6-1.1c-1.6,0.3-1.6,1.3-2.5,3   c-1.4,2.8-2.8,5.7-4.2,8.5c-0.5,1.1-1.7,4.7-2.6,5.3c-1.1,2.3-2.3,4.6-3.4,6.9c1.4,0.2,3.4,1,4.8,0.8c1.5-0.2,1.2-0.1,2-1.9   c-1.6,1.5-0.5-1.2-0.4-1.9c0.4,0.4,0.6,0.9,0.6,1.4c1-2.3,0.8-3.4,3.1-3.4c1.3,0,5.1,0.4,5.8,1.2c1.2,1.3-0.4,5.2,0.8,6.5   c0.8,0.9,4.9,0.8,6.1,1c-0.6-4.4-1.2-8.8-1.8-13.3C285.3,515.8,284.9,512.8,284.4,509.9z M268.8,521c-0.1-0.5-0.3-1,0.3-0.9   C269,520.5,268.9,520.8,268.8,521z M270.9,525.2C270.9,525.2,270.9,525.2,270.9,525.2C270.9,525.1,270.9,525.2,270.9,525.2z    M274.8,518.8c0.8-1.7,1.6-3.4,2.4-5.1c0.7-1.5,1.3-3.3,2-4.7c0.3,3.6,0.7,7.1,1.2,10.7C278.5,519.4,276.6,519.1,274.8,518.8z    M279.5,505.8c0.5-0.4,1-0.5,1.6-0.4C280.7,505.8,279.8,505.8,279.5,505.8z"/>
	<path class="st0" d="M384.8,491.3c-0.4,0,0.3-1.8-0.1-1.9c-0.1,1.6-1-0.1-0.4-1.2c0.8-1.7,2.3-1,1.3-3.1c-0.6-1.4-3.2-2.8-4.3-3.8   c0,0.7,0.2,4.2-0.9,4.2c-1-0.1-0.2,1.1-1.3,1c0.3,1,3.4,3.5,3.9,3.1c-0.5,0.5,1,1.4,1.5,1.9C384.6,491.5,384.7,491.4,384.8,491.3z"/>
	<path class="st0" d="M380.1,480.3c-2.4-2.1-4.9-4.3-7.3-6.4c-0.6-0.5-2.6-2.9-3.4-3c-0.7,0-1.7,1.4-2.3,2c-0.6,0.6-3.1,2.4-3.2,3.3   c-0.1,0.9,1.7,3.2,2.1,3.9c2.1,4.1,5.1,8.1,6.9,12.2c-3.8-2.5-7.8-4.7-11.8-6.8c-0.2,1.3-0.3,2.9-1.1,3.9c0.1-1.4-1.4-1.6-2.4-1.6   c0.9-0.9,1.7-1.8,2.6-2.8c-1-0.5-2.5-1.7-3.4-1.5c0.1,0-1.6,1.9-1.7,2c-0.1,0.1-0.6,0.4-0.9,0.6c-0.5,0.4-2.8,2.4-2.4,2.9   c0.4,0.6,4.8-1.2,5.8-1.2c-1.2,1.2-3,2.3-4.6,2.5c1.5,1.7,5.6,4.6,6.1,6.7c3.2,3.6,6.5,7.2,9.7,10.8c0.7-0.7,3.4-2.6,3.5-3.6   c0.1-0.9-1.5-2.1-2.3-2.9c-1.3-1.4-2.6-2.8-3.9-4.2c-0.6-0.7-1.3-1.4-1.9-2.1c-0.8-0.9-3.4-4.4-4.2-3.3c0.6-0.5,0.5-1-0.2-1.3   c0,0.3,0,0.7,0,1c-0.6-0.7-0.2-1.2-0.7-1.7c-0.9,3.1-0.6-0.2-0.5-0.6c0.6,0.4,0.8,0.7,1.2-0.1c-0.2,0.9,0.5,1.9,1.4,1.2   c-0.5,0.6,7.6,4.9,9.3,5.9c1,0.5,3.4,2.5,4.5,2.5c0.1,0,0.5,0.4,0.7,0.4c0.3-0.1,2.6-3.5,2.6-3.9c0.3-2-2-5.3-3.2-7.2   c-1.9-3.1-4.1-6.6-5.5-10c2.5,2.4,5.1,4.8,7.6,7.1C377.4,483.2,377.6,479.9,380.1,480.3z M355.5,489.5   C355.1,489.5,355.4,489.4,355.5,489.5L355.5,489.5z M365.2,493.1c0.3-0.2,0.6-0.3,0.9-0.5c0.6,0.1,0.7,0,0.3-0.5   c0.7,0.5,0.7,0.5,1.3,0.9C366.9,493,366.2,493,365.2,493.1z M373.7,491.8c0.3,1,0.8,4.7-0.6,5.1c-2.2,0.7-2-3.1-0.3-2.1   C373.1,493.8,373.4,492.8,373.7,491.8z"/>
	<path class="st0" d="M361,512.7c1.9-0.6,0.2-2.1-0.5-3.2c-1.4,0.8-2,2.1-3.8,0.8c0,0,3.4-1.2,3.6-1.2c-0.1-0.3-0.5-0.9-0.7-1.1   c-3,1.8-6,3.8-8.9,5.6c-0.6-0.9-1.1-2.2-1.9-3c-0.3-0.3-0.4-0.8-0.7-1.1c-0.6-0.4-4.2,0.5-2.4-0.6c-0.4,0.1-0.8,0.2-1.2,0.1   c0.6-0.4,1-0.4,1.6-0.4c0.4-0.2,5.2-3.3,4.6-4.4c-0.2-0.1-0.5-0.1-0.7,0.1c1-1.5,2.1-2.9,3.4-4.1c-0.1-0.1-0.1-0.2-0.2-0.3   c-0.9,0.9-2.1,1.5-3.1,2.3c0.3-0.5,0.6-1,1-1.5c-1.2,0.7-4.6,3.7-5.8,3.6c-1-0.1-2.4-3.3-3.1-4.4c2.8-1.8,5.6-3.5,8.5-5.3   c-1.6-2.5-1.6-4.6-4.3-2.9c-2.6,1.6-5.1,3.2-7.7,4.8c0.4,0.4,0.5,0.8,0.4,1.4c-1.6-1.5-2.8,0.1-4.3,1.1c0.5,0.8,1,2,1.6,2.6   c0.4,0.4,0.8-0.6,1.1,0c0.5,0.8-0.5,0.8-0.2,1.4c0.5,1.5,1.5,2.2,2.2,3.5c0.1-0.2,0.3-0.3,0.5-0.4c0.3,2.7,2.5,5.1,3.9,7.5   c1.5,2.4,3,4.7,4.4,7.1c3.6-2.3,7.7-4.9,11.1-6.9C358.3,513.5,360.6,508.3,361,512.7z M360.3,510.1   C360,510.1,360.2,510,360.3,510.1L360.3,510.1z M339.5,497.6C339.5,497.6,339.5,497.6,339.5,497.6   C339.5,497.5,339.5,497.6,339.5,497.6z M339.5,497.6c0.7,0.9,0.8,1.6-0.5,1.7C339,499.2,339.4,497.9,339.5,497.6z M340.5,508   c0.2-0.5,0.5-0.9,0.9-1.2C341,507.2,340.7,507.6,340.5,508z M342.5,503.2c-2.2,0.2-0.8,1.5-2,3c0.1-1-1.1-1.2-1.8-1.2   c0.7-0.7,2-3.1,3.1-3.4C343.2,501.2,343.2,501.8,342.5,503.2z M345.5,516.3c0.6,0,1.1,0,1.7,0c0.6,0,1.1-0.1,1.7-0.1   C347.7,516.3,346.6,516.6,345.5,516.3z M355.7,512.6c0.7-0.4,1.5-0.7,2.5-1C358.7,513.3,357.3,513,355.7,512.6z M359,513.9   C358.9,513.8,359,513.9,359,513.9L359,513.9z"/>
	<path class="st0" d="M238.2,326.4c-5.5,3.6-7.5,11.7-3.3,17.2c1.7,2.3,3.7,5.1,7,6.1c2.1,0.7,5.2,0.8,7.3,0.1   C266.8,344,253.1,316.6,238.2,326.4z M237.4,334.5c-0.7,1.5-1.2,1.6-1.9,0.2C237.1,333.9,237.7,333.9,237.4,334.5z M244.3,348   c-0.5-0.4-0.9-0.9-1.2-1.5c2.2,0,4.4,0.3,6.5,0.9C247.8,347.7,246.1,348.4,244.3,348z M250.3,344.1c-1.5,1.3-3.5,1.5-5.4,0.9   c-1.2-0.4-1.7-1.7-2.7-0.1c-0.3-0.5-0.3-1,0.1-1.5c-0.5-0.5-1-1-1.5-1.6c-0.8-1-1.3-2-1.8-3.1c-0.6-1.3-1.3-3-0.7-5.2   c1.7-6.8,9.3-3.6,12,0.4C252.2,337,253.5,341.5,250.3,344.1z"/>
	<path class="st0" d="M316.2,337c1.5,0.4,7.2,2,8.4,0.5c0.5-0.6,0-3.6,0-4.5c-4.8,0.9-10.6-1.1-11.3-6.5c-0.7-5,2.5-10.2,7.9-10.1   c-0.4-0.9,0.6-1.6,1.1-1.8c-1.3,2,0.3-0.3,1.2,0.7c0,0,0.9,1,0.8,0.9c1.2,0.8,2,2.5,3.5,1.3c0.4-0.3,1.4-2.5,1.4-3   c-0.1-1.1-1.8-1.6-3.1-2c-2.2-0.8-4.7-1.1-7-0.9c-2.4,0.2-2.8,1.6-4.7,2.2c-0.5-0.6-1-0.7-1.4-0.2c-0.4,0.3-0.9,0.6-1.2,0.9   c-0.7,0.6-1.3,1.2-1.8,1.9c-1.3,1.7-2.1,3.8-2.5,5.9c-0.2,1.2-0.3,2.4-0.3,3.5c0.3-0.4,0.6-0.8,1-1.1   C304.1,329.6,312.5,335.8,316.2,337z M321.7,312.9c-0.3,0-2.5-0.2-2.2-1.1C320.3,312,321.4,312.8,321.7,312.9z"/>
	<path class="st0" d="M322.5,310.8c3.1,0.6,4.2-1.4,6.6-3.4c-3.6-0.7-3.4-0.8-6.2,1.2c-1.6-2.9-2.1-2.8-5.4-3.4   C319.1,308,319.4,310.2,322.5,310.8z"/>
	<path class="st0" d="M406.5,398.6c-0.4-2.4-0.3-1.8-2.2-3.3c-0.3-0.3,2.9-1,0.6-1.3c-1.5-0.2-3.9,0.6-5.4,0.9   c-5,0.8-10.1,1.7-15.1,2.5c-3.7,0.6-3.7,0.1-3,3.9c0.7,4.2,1.4,8.4,2.1,12.6c1.5-0.2,4-0.2,4.5-1.3c0.8-1.6-1.2-6.2-1.3-8   c-0.2-2.6,0.6-1.9,3.5-2.4c2.9-0.5,2.3,0.2,2.7,3c0.2,1.1,0.3,5.2,1.1,5.7c0.3,0.2,3.6-0.4,3.8-0.6c0.9-0.7,0.2,0.1,0.4-1.4   c0.2-1.9-2.1-5.9-1.2-7.5c0.5-1,3.8-1,5.1-1.2c0.5,3.2,1.1,6.5,1.6,9.7c4-0.7,4.4-2,3.8-5.7C407.1,402.4,406.8,400.5,406.5,398.6z    M386.8,402.8c-0.6-0.4-1-0.8-1.4-1.4C387,400.9,387.4,401.4,386.8,402.8z M385.9,399.4c-0.6-1.2,0.5-1,1.5-0.7   C387.9,398.9,387.4,399.2,385.9,399.4z M396.1,404.3c-0.6-0.4-1-0.8-1.4-1.4C396.3,402.4,396.7,402.9,396.1,404.3z M395.2,400.9   c-0.5-1.2,0.6-1.1,1.6-0.7C396.2,400.4,395.7,400.6,395.2,400.9z"/>
	<path class="st0" d="M211.2,351.4c1.1,0,1.9,1.6,2.1,2.4c1.4,1.2,2.8,2.5,4.2,3.7c1.5,1.3,3.6,4.1,5.4,4.8c0.9,0.3,1-0.4,1.9-0.2   c2.2,0.5-0.2,0.3,0.1,2c0.2,1.1,3.7,3.3,4.6,4.1c1.3-1.5,3.7-3.2,3.2-4.7c-0.6-1.8-4.7-4.2-6.2-5.5c2.7-2.3,5.2-6.2,4.7-9.9   c-0.3-2-1.3-3.8-2.9-5.1c-1.9-1.6-2.8-0.6-3.9,1.4c2,0.7,3.7-1.1,5.4,0.9c-1.2,0.2-2.3,0.5-3.4,1c0-1.5-2.6-0.6-3.4-0.7   c-1.5-0.2-2-1.2-3.4-1.7c2.4,0,4.4-1.7,6.5-2.4C219.8,338.9,214.2,346.7,211.2,351.4z M226.1,349.3c0.5,1.8-1.2,5.7-3,5.6   c-0.8,0-3.1-2.7-3.8-3.3c-1.7-1.5-1.9-1.5-0.2-3.4C221.2,345.9,225.1,345.7,226.1,349.3z"/>
	<path class="st0" d="M337,316.3c-0.9,0.2-1.1,1.1-1.7,2.4c-1.6,3.4-3.2,6.8-4.7,10.2c-3.3,7.1-0.9,14.2,7.3,15.8   c3.1,0.6,6.1-0.3,8.3-2.5c1.4-1.4,3.1-5.9,3.8-6.5c2.1-3.4,3.5-7.2,5.2-10.8c-1.2-0.6-3.6-0.9-4.6-1.6c0.5,0.4,0-1.2-0.6-0.8   c-0.3,0.2-0.4,1-0.6,1.2c-1.3,1.7-2.1,4.5-3,6.4c-1.5,3.2-3.4,10-7.8,9.9c-9.5-0.3,1.3-17.8,3-21.5   C340.7,318.1,338,316.1,337,316.3z M352.7,324.9c0.6,2.3-1.2,1.9-3.3,1.4C350.4,325.7,351.5,325.3,352.7,324.9z"/>
	<path class="st0" d="M365.8,332.8c-3.2,4.2-6.4,8.4-9.7,12.6c-2.8,3.6-5.8,1.9-9.4,1.5c0.7,0.5,1.4,1,2.1,1.6   c-1.1,0.3-2.1,0.5-3.2,0.8c0.3,0.3,3.5,0.6,3.5,0.4c-0.1,0.5-2.9,0.2-2.9,0.2c4.2,4.2,9.3,4.8,13.5,0.3c1.8-1.9,3.3-4.2,4.9-6.2   c1.1-1.4,5.5-5.5,5.6-7.2C370,335.4,367,333.8,365.8,332.8z"/>
	<path class="st0" d="M262,315.2c-1,0.4-5.2,1.5-5.6,2.4c-0.4,1,2.2,5.2,1.7,5.2c2,6.1,4,12.3,6,18.4c1.2-0.4,2.6-0.7,3.8-1.2   c1.8-0.8,1.2,0,1.3-1.5c0.1-2.4-2-6.2-2.8-8.5c5.2-1.9,6.1,1.5,8.9,5.4c1.4,1.9,1,1.6,3,1.2c1.3-0.3,2.6-0.8,3.9-1.3   c-3.1-3.1-4.1-8.6-8.8-9.7c2.5-2,3.5-5.8,1.8-8.6c-0.4-0.6-0.6-1.2-1.4-1.2c-0.7,0-4,1.3-4.6,1.6c0-1.3-0.1-2.7,0.6-3.8   C267,313.6,264.4,314.4,262,315.2z M270.3,323.2c-0.9,1.9-3.4,2.4-5.2,3c-0.5-1.5-1-3-1.4-4.4c-0.8-2.3-0.9-2.3,1.7-3.2   C268.3,317.7,271.8,319.8,270.3,323.2z"/>
	<path class="st0" d="M395.2,367.8c0.3-1-1.5-3.6-2-4.6c-0.9-1.8-0.5-2-1.9-2c-1.4,0-3.8,1.6-5,2.1c-2.4,1-4.9,2.1-7.3,3.1   c-3.4,1.4-6.8,2.8-10.1,4.3c0.8,1.6,1.6,3.1,2.3,4.7c6.1-2.7,12.2-5.4,18.3-8.1c-3.2,3.1-7.2,6-10.6,9.1c-1.1,1-3.5,2.4-4.2,3.7   c-0.5,1.1,0,1.3,0.6,2.5c0.3,0.6,0.5,1.6,1.4,1.8c1.2,0.4,4.1-0.7,5.4-0.9c4.7-0.7,9.8-2.3,14.3-2.4c-2,1-4,2-6,3.1   c1.4,0.5,2.7,1,4.1,1.4c-2.7,0.3-5.7,0-8.2,0.9c-1.8,0.6-3.5,1.9-5.2,2.8c-1.2,0.7-2.1,0.7-2.1,1.8c0,1.2,1.7,3.4,2.2,4.5   c1.1-0.6,2.2-1.2,3.3-1.9c-1.7-1.2-1.9-2.9-0.3-3.4c-1,1.6-0.1-0.1,0.7,0.7c1.4,1.4,0.1-1.9,1.5,1.6c1.1-0.6,2.2-1.2,3.3-1.9   c1-0.6,3.8-1.4,1.5-1.6c0.9-0.6,2.3-1.2,3.1-1.6c0.3-0.2,2-2.1,1.5-0.3c1.6-0.9,6.3-2.5,7-4c0.4-0.8-1.7-5.1-2.6-6.1   c-1.4-1.4-4.2-0.2-6.3,0.1c-4,0.6-8.1,1.9-12,2.2c2.8-2.1,5.5-4.5,8.1-6.9C391.1,371.6,394.7,369.3,395.2,367.8z M384.2,382.6   C384.2,382.6,384.2,382.6,384.2,382.6c0-0.3-1.6-1-1.9-1.1C383.6,380.4,384.2,381.3,384.2,382.6z"/>
	<path class="st0" d="M201.4,381.3c0.6,1.2,1.2,1.2,1.9,0c1.5-0.2,2.2-0.7,4-0.4c3.6,0.6,7,1.9,10.5,2.9c-4.2,0.5-8.5,0.8-12.7,0.6   c3.6,2.1,8.1,3,12.1,1.3c-0.4-0.3-0.8-0.5-1.3-0.7c0.8-0.7,1.6-0.8,1.8,0.5c3.9-2,6.4-6.4,6.6-10.6c0.1-2-0.3-4-1.3-5.8   c-0.4-0.8-2.8-3.8-3-3.7c-4.1-3.5-10.1-5.3-15.1-2.7c2,1-0.9,6.7-1.4,0.9c-4.8,3.6-6.5,10.6-3.4,15.9   C200.3,380.1,200.8,380.7,201.4,381.3z M214.5,382.5C213.8,381.8,214.5,382.2,214.5,382.5L214.5,382.5z M204,369.5   c4.3-6.5,18.5,1.2,14.8,8.3C214.8,385.5,199.2,376.8,204,369.5z"/>
	<path class="st0" d="M379.5,345.5c-1.4-0.7-3.1-3.4-4.3-4.6c-6.2,5.7-12.3,11.5-18.5,17.2c3.7,3.9,7.3,7.8,11,11.8   c0.6-0.6,3.4-2.5,3.4-3.2c0-0.9-3.4-3.6-4-4.3c-0.5-0.6-3-2.6-2.9-3.3c0.1-1,3.4-3.2,4.3-4c2.1,2.3,4.2,4.5,6.3,6.8   c0.7-0.7,3.3-2.5,3.3-3.3c0-0.5-1.7-2-2.1-2.3c-1.4-1.1-1.2-1.8-3.4-0.5c0-1-0.1-2.4,0-3.2c0.1-1.2-0.8,0-0.3-1.1   c0.3-0.6,2.7-3,3.4-3.1c0.6-0.1,2.9,1.1,3.8,1.4c1,0.2,2.1-0.4,2.3,0.9c0.1,0.9-1.4,1.9-2.1,1.9c0.6,0.6,2.2,3,2.9,3   c0.7,0,2.8-2.6,3.4-3.1c-0.7-0.8-2.9-3.9-3.8-3.4c0-0.3-0.1-0.6-0.1-0.9c-0.3-0.4-0.8-1.1-1.2-1.3c-0.8-0.4-1.3,0.5-2.4-0.1   C378.6,346.1,379,345.7,379.5,345.5z M361,355.5c0-0.3-0.1-2.4,1-1.5C362.1,354.7,361.8,355.2,361,355.5z M382.2,350.7   c-0.1,0.4-0.2,0.8-0.3,1.1C381.7,351.1,381.5,350.5,382.2,350.7z"/>
	<path class="st0" d="M281.6,314.6c0.2,2.8,0.3,5.6,0.5,8.4c0.4,6.4,2.6,12.2,9.9,12.3c14.3,0.1,10.4-16.9,9.9-26.3   c-1,0.1-5-0.3-5.6,0.4c-0.5,0.5,0.2,4,0.2,4.8c0.2,3.7,1.9,10.9-0.1,14.3c-1.4,2.4-4.7,3-6.7,1c-1.7-1.6-1.7-4.3-1.9-6.5   c-0.3-4.4-0.6-8.7-0.8-13.1c-1.7,0.1-3.7-0.2-5.2,0.8c0.1-0.2,0.2-0.3,0.3-0.5C280.6,310.1,281.6,313.4,281.6,314.6z M297.2,314.1   C297.1,313.9,297.3,314,297.2,314.1L297.2,314.1z M297,309.6c0.5-0.1,1,0,1.4,0.2C297.9,309.7,297.5,309.6,297,309.6z M287.4,319.1   c-0.7,1.5-1.2,1.6-1.9,0.2C287,318.5,287.7,318.4,287.4,319.1z"/>
	<path class="st0" d="M190.4,404.9c1,0.2,0.6,2.4,0.9,3c0.7,1.5,1.8,1.2,3.7,1.6c3.8,0.7,8,2.1,11.9,2c-0.4,0.5,2.4,0.9,3.3,0.9   c2.4,0.1,1.9,0.6,2.7-2.2c0.8-3.1,1.5-6.3,1.3-9.5c-0.1-1.3-0.2-2.5-0.5-3.7c-0.7-2.3-0.9-2.3-3-1.1c-0.1-1.4,0.2-2.4,1.7-1.9   c-3.7-5.8-13.2-7.9-18.6-3.5c-2.5,2-3.8,5-4.6,8c-0.4,1.5-2.5,10-0.4,9.8C188.6,407.6,189.2,404.7,190.4,404.9z M204.7,389.7   c-0.5,0.7-0.9,1.4-1.3,0.6C203.8,390,204.3,389.8,204.7,389.7z M194.8,396.6c1.4-1.6,3.2-2.4,5.3-2.4c1.2,0,2.5,0.2,3.6,0.6   c2,0.6,2.5,2,3.9,0.6c-1.4-0.8-6-3.2-3.8-4.8c3.1-2.1,4.9,4.6,6.3,6c-1.4-0.5-2-1.5-3.2-0.2c2.4,2,2.9,5.1,2.4,8   c-0.6,3.1-2.8,1.5-5.4,1c-3.1-0.6-6.8-0.8-9.8-1.9c-1.3-0.5-0.9,0.1-1.4-0.9C192,401.3,194,397.6,194.8,396.6z"/>
	<path class="st0" d="M280.2,496.4c0.5,0.1,1,0.2,1.5,0.4C282.4,495.7,281.3,495.9,280.2,496.4z"/>
	<path class="st0" d="M278.5,494.5c-0.4,0.6-1,0.9-1.7,1C278.4,496,278.9,496.7,278.5,494.5z"/>
	<path class="st0" d="M250.8,482.6c0.2,0.2,0.4,0.3,0.6,0.5C251.5,482,251.3,481.9,250.8,482.6z"/>
	<path class="st0" d="M253.3,360.6c0.2,0.1,0.5,0.2,0.8,0.3C253.8,360.7,253.6,360.6,253.3,360.6z"/>
	<path class="st0" d="M295.4,342.2c-3.2,0.1-6.3,0.4-9.4,0.9c-3.5,0.5-5,0.7-7.2,3.3c-2,1.1-3.9,2.5-5.8,3.8c1.1-1.7,2.2-3.4,3.4-5   c-16.3,4.7-30.7,14.7-40.9,28.1c1.6,0.5,3.3,1,4.9,1.5c-1.5,0.2-5.1-0.2-6.3,0.5c-1.2,0.7-2.5,3.7-3.2,4.9c1.5,0.2,2.4,3.6,3.6,4.9   c-1.6-0.6-3.4-2-4.6-3.3c-2.9,5-5.2,10.4-6.9,15.9c-0.4,1.4-4.3,16-2.9,16.3c0.4,0.1-1.9,11.8,0.5,12c-1.3,0.2-0.5,2.7-0.3,3.9   c0.4-0.3,0.9-0.3,1.4-0.2c-0.4,0.3-0.9,0.5-1.4,0.5c0.7,5.4,2,10.8,3.8,16c0.7,1.9,1.5,3.7,2.3,5.5c0.5,0,0.8,0.2,0.8,0.7   c0.2,0.3,0.1,0.6-0.2,0.9c0.7,1.3,1.3,2.7,2,4c0.9-0.9,1.7-1.9,2.5-2.8c-0.2,1.3-0.2,3.3-1,4.4c-0.1-0.8-0.5-1.2-1.3-1.2   c0.2,0.4,0.6,1,0.7,1.2c0.9,1.2,0.1,1.6,1.4,0.6c-0.9,1.2-0.2,1.6,0.5,2.8c0.8,1.3,0.6,2.1,1.6,1c-0.3,1.7,0.5,1.5,1.3,2.4   c-1.1,0.3,1.1,2.4,1.6,3c0.7-0.8,1.5-1.7,2.2-2.5c-0.3,2.5-1.1,3.9,0.6,5.9c0.7,0.8,1.5,2,2.3,2.6c1.5,1,1.1,0.5,3,0.5   c-0.5,0.6-1.4,0.4-2.1,0.5c1.8,1.8,3.6,3.4,5.5,5c1.3,1.1,1.1,1.2,2.4,0.6c0.3-0.2,1.3-1.5,0.2-1c0.8-1.3,1.8-2.4,3-3.4   c-1.2-0.9-2.7,2.9-3.8,2.7c-0.9-0.1-1.6-2.1-2-2.9c0.6-0.2,1.4-0.2,1.2,0.6c0.3-0.2,0.7-0.2,1,0c0.1-0.6,0.9-2.2,0.8-2.8   c-0.2-0.7-2.3-2-2.8-2.6c-1.1-1-3.3-4.3-4.2-3.1c1.6-3.7-3.3,0.2-4.2,0.8c0.6-1,2-2.2,2.2-3.2c0.3-1.3-0.2-1.5-1.3-2.8   c-1.7,2.7-1.7-1.4-0.5-0.7c-0.6-0.8-1.1-1.5-1.6-2.3c0,0.6,0.2,1.2,0.6,1.6c-1.8-0.3-2.4,0.3-3.9,0.4c0.2-0.5,0.4-0.7-0.2-0.8   c0.3,0,0.5-0.2,0.6-0.4c-0.4,0.1-0.8,0.2-1.2,0.1c1,0.1,1.5-0.3,1.5-1.2c0.8,1,1.2,0,2.3-0.3c-2.5-3.8-4.7-7.7-6.4-11.9   c-0.4-0.9-0.7-1.8-1.1-2.7c-0.3-0.7-0.5-1.3-0.7-2c-0.2,0-0.5-0.1-0.7-0.1c-0.7-1.4-0.1-2.4-0.5-3.9c-0.7,0.5-1.4,1-2.1,1.5   c0.8-1.2,1.5-2.1,1.6-3.5c0-1.1-0.6-2.8-0.8-3.8c-1.3,2-2.3-2.7-0.3-1.7c-0.9-5.4-1.2-10.8-0.8-16.3c0.2-2.5,0.5-5.1,0.9-7.6   c0.3-2,1.2-4.1,0.4-5.8c2.2-1.1,3-6.9,4-9.3c1.4-3.3,3-6.5,4.8-9.6c-0.6,0.2-1.2,0.5-1.7,0.8c0.2-1.1,0.8-2.1,1.9-1   c0.9-1.6,2-3.1,3-4.5c-0.8,0-1.7-0.1-2.5-0.2c2.1-1.3,3.3-1.7,5-3.1c1.8-1.5,3.3-3.8,4.9-5.5c1.9-1.9,3.9-3.7,6-5.4   c-1.2-0.4-1.3-3-0.6-3.4c0.3-0.2,0.5-0.3,0.8-0.3c-0.2-0.1-0.3-0.2-0.4-0.4c0.8-0.1,1.5,0.2,2,0.7c-0.2,0-0.5,0-0.8-0.1   c0.4,0.6,0.4,1.8,0.4,2.4c20.7-15.8,49.2-19.1,72.9-8.4c10.3,4.7,19.4,11.8,26.5,20.6c3.5,4.4,6.5,9.3,9,14.4   c1.1,2.4,2.1,4.9,3,7.4c0.6,1.8,1.3,7.8,3.2,7.9c-1.6,0.2-0.7,1.3-0.4,2.9c0.2,1.2,0.4,2.5,0.5,3.7c0.3,2.8,0.5,5.6,0.5,8.4   c0,5.2-0.6,10.4-1.7,15.5c-1.1,4.9-2.7,9.7-4.8,14.3c-0.9,1.9-1.7,4.5-2.6,6.2c-0.6,1-2.1,1.6-0.9,2.2c-1.9,0-3,3-4.2,4.5   c-1.5,2-3.2,4-4.9,5.9c-3.3,3.6-7,6.8-10.9,9.7c-2.8,2-3.6,3-6.7,4.6c-1,0.5-2.6,1.2-3.9,1.8c-0.2,0.1-1.9,0.7-2,0.9   c-0.7,0.1-1.1,0-0.2,0.9c-1.9-0.7-4.9,1.1-6.9,1.8c-1,0.3-2,0.6-3,0.9c-2.1,0.6-2.4,0.4-3.6,1.9c0.2-2.4-5.6,1-6,1.6   c0.7-1.2-0.7-1.5-0.8-1.5c-2.9,0.3-5.7,0.5-8.6,0.5c0.1,0.6,0.2,1.3,0.2,1.9c-1.6,0.2-2.2-0.5-1.4-2c-3.4-0.1-6.7-0.4-10.1-0.9   c-2.4-0.4-1.8-0.6-2.6,1.4c-0.3,0.8,0,1.5,0.1,1.8c0.4-0.5,0.9-1,1.3-1.4c1.7,1.5-2.4,3.5-3.3,3.9c4.9,1,10,1.5,15,1.6   c2.3,0,4.8,0.1,7.1-0.2c1-0.2,3.9-1.7,3.5-0.4c0.5,0,0.9-0.3,1.1-0.9c0.8,1.5,6.3-0.5,7.4-1.2c0,0.2,0,0.4,0,0.6   c2.1-0.5,6.7-1,7.4-3.1c0.4,1.4,3-0.2,4.2-0.7c1.5-0.6,3-1.3,4.4-2c3.1-1.5,6-3.2,8.9-5.1c5.8-3.9,11.1-8.5,15.7-13.8   c4.5-5.1,8.3-10.9,11.3-17c1.5-3.1,2.8-6.3,3.9-9.6c0.5-1.6,1-3.1,1.4-4.7c0.2-0.9,0.6-2,0.7-3c0.1-0.8-0.1-1.8-0.1-2.2   c0,0,1.6-5.5,1.2-5.2c1.7-1.6,0.8-9.8,0.7-12c-0.1-4.5-0.6-8.9-1.5-13.3c-1.3,1.1-4.5,2.4-2.8-1c0.9-1.8,1.3-0.8,2.7,0.3   c-0.3-1.5-0.4-1.3-1.2-2.3c0.4,0.5-0.1-2.7-0.2-3c-0.5-1.8-1.1-3.5-1.7-5.3c0.1,1.3,0,2.6,0.6,3.9c-1-0.9-2.4-1-1-1.9   c-1.5,0.4-0.7-1.1-0.7-1.8c0-1.2,0.4-1.4,0.2-2.6c-0.5-2.7-2.5-5.6-3.8-7.9c-2.9-5.3-6.4-10.2-10.4-14.7   c-7.9-8.8-17.8-15.8-28.8-20.3c0.6,0.4,1.1,0.9,1.6,1.4c-2.7-0.4-4.6-2.4-7.3-3.4c-0.8-0.3-2.4-1-3.2-1c-1.6,0-0.6-0.2-1.9,0.7   c-0.4,0.3-1.7,1.5-2.1,1.5c0.2,0.5,0.7,2-0.5,1.7c0.6-3.2-1.7-2.3-3.9-2.8c1.1,0,2.2,0,3.4-0.1c-0.1-0.7-1.1-0.4-1.5-0.4   c0.3-2.2,0.4-1.5-1.2-2.2c-1.3-0.6-3.3-0.5-4.7-0.6C302.4,342.2,298.9,342.1,295.4,342.2z M249.4,474.5c-0.4,0.2-0.8,0.3-1.2,0.5   C247.8,474.1,248.7,474.1,249.4,474.5z M246.5,472c-0.8,0.1-1.6-0.2-2.4-0.4C244.9,471.8,245.7,472,246.5,472z M242.3,468.5   c0.5-0.1,0.6,2.6,0.6,2.9c-1-0.1-1.4,0.2-1.8-0.8C241,470,241.8,468.7,242.3,468.5z M240,466.6c0.2,0.6-0.3,0.5-0.8,0.3   C239.4,466.8,239.7,466.7,240,466.6z M235.9,460.4C235.9,460.3,235.9,460.3,235.9,460.4C235.9,460.3,235.9,460.3,235.9,460.4z    M232.6,455.8c2.6,0.7,0.1,2.4,0.2,2.5C231.4,458.1,231.5,455.5,232.6,455.8z M229.5,450.1C229.5,450.1,229.5,450.1,229.5,450.1   C229.5,450.1,229.5,450.1,229.5,450.1z M229.5,450.1c0.7,0.9,0.8,1.6-0.5,1.7C229,451.7,229.4,450.4,229.5,450.1z M222.4,415.8   c-2.1,0.5-0.2-3,0.1-3.6c0.2,0.8,1.2,3,0.1,3.6c0.8,0.3,1,1,0.8,1.8C222.6,417.4,220.7,416.5,222.4,415.8z M222.9,438.4   c-1.5-0.4-0.4-1.5,0.6-2C223.4,437.1,223.2,437.8,222.9,438.4z M223.7,427.3C223.6,427.2,223.7,426.7,223.7,427.3L223.7,427.3z    M223.2,424.6c0.3-0.7,0.7-1.4,1.3-1.9c0.4-0.1,1.1,3.2,0.8,3.5C224.2,427.9,223,425.9,223.2,424.6z M225,436   c0.2-0.5,0.5-0.8,0.9-1.2C225.5,435.3,225.2,435.6,225,436z M226.9,437c0.2,0.7-0.4,0.6-1,0.4C226.2,437.2,226.5,437.1,226.9,437z    M234.7,384.1C234.7,384.1,234.7,384.1,234.7,384.1C234.7,384.1,234.7,384.1,234.7,384.1z M248.2,363.1c-0.7,2.2-1.6,0-2.2-0.5   C246.8,361.5,248.9,361.2,248.2,363.1z M284.2,493.5c0.2-0.3,0.5-0.5,0.8-0.8C284.8,493,284.5,493.2,284.2,493.5z M285,492.7   c0.3-0.3,0.5-0.5,0.7-0.8C285.6,492.2,285.3,492.5,285,492.7z M299.1,494.2c0.8,0.1,1.6,0.3,2.4,0.4   C300.6,494.6,299.9,494.3,299.1,494.2z M305.3,493.9c0.5-0.3,1.5-0.5,1.9-1c-0.3,0.4-0.1,0.4,0.6,0   C308.2,494.7,306.3,494.1,305.3,493.9z M309.8,491.4C309.5,491.4,309.8,491.3,309.8,491.4L309.8,491.4z M312.2,492.6   c-1-0.3-0.3-1,0.4-1.3C312.5,491.7,312.4,492.1,312.2,492.6z M313.3,492.9c0.3-0.3,0.5-0.6,0.8-1C314,492,313,493.7,313.3,492.9z    M317.2,494.1c0.5-0.4,1-0.5,1.6-0.4C318.4,494.2,317.6,494.1,317.2,494.1z M316.9,489.5c0.3-0.1,1.7-0.7,2.4-0.8   C319.4,489.6,317.2,489.5,316.9,489.5z M332.7,489c0.3-0.4,0.8-0.7,1.2-0.9C334.2,489.2,333.8,489.6,332.7,489z M334.1,482.9   C333.7,482.9,334,482.8,334.1,482.9L334.1,482.9z M337.8,484.7c-1.5-0.4-0.4-1.5,0.6-2C338.3,483.3,338.1,484,337.8,484.7z    M338.8,482c0.4,0.3,0.8,0.6,1.3,0.9C339.3,482.9,338.9,482.8,338.8,482z M338.9,480.4c0.8-1.3,1.4-0.1,2,1.2   C340.3,481.3,339.7,481,338.9,480.4z M354.5,467.8c-1-0.3-0.3-1,0.4-1.3C354.7,466.9,354.6,467.4,354.5,467.8z M358.9,464.3   c-0.8,1.2-2,1.8-3.1,2.6c0.4-0.6,3.1-5.4,3.9-3.6C359,463.3,358.7,463.7,358.9,464.3z M375.2,429.8c-0.3,0.3-0.7,0.6-1,1   C374.4,430.4,374.8,430.1,375.2,429.8z M373.3,431.4c0.4-0.3,0.7-0.7,1.1-1.1C374.1,430.7,373.7,431,373.3,431.4z M371.9,406.4   C371.9,406.8,371.9,406.4,371.9,406.4L371.9,406.4z M373.3,431.4c-0.6,0.6-1.2,1.1-1.7,1.7C372,432.4,372.6,431.9,373.3,431.4z    M368.4,393C368.9,393.5,368.4,393,368.4,393L368.4,393z M349.1,365.5c-0.2,0.4-0.7,2.5-1.2,3.2C347,368.2,348.9,365.9,349.1,365.5   z M326.2,348.7C325.9,348.4,326.2,348.5,326.2,348.7L326.2,348.7z M318.1,350.6c-0.6-0.1-1.2-0.2-1.8-0.3   C316.9,350.3,317.5,350.4,318.1,350.6z M308.5,344.3c1.1-0.2,0.8,2.5-0.6,2.4C306.3,346.5,307.2,344.5,308.5,344.3z M302.8,344   c-0.2-0.2-0.4-0.4-0.6-0.6C302.9,343.7,302.5,341.8,302.8,344z"/>
	<path class="st0" d="M268.9,492.8c0.9,0.4,5.4,2.4,5.5,1.4c1.2,1.3,1.2,1.1,2.6,0.2c-0.3-0.2,2.3-2.6,0.9-2   c0.6-0.9-1.2-3.4-1.8-3.9c-1.8-1.4-5.5-2-7.6-2.9c-2.2-1-4.4-2.1-6.6-3.4c-2-1.2-3.1-2.9-4.9-1.2c1.1-1.4,1.8-0.7-0.2-2.1   c-0.3,1.5-0.3,2.3-0.1,2.9c0.4-0.5,0.9-1,1.3-1.4c1.9,1.7-2.9,3.6-3.8,4.2c1.2-1.6-0.7-0.9-1.5-0.6c3.5,2.4,7.1,4.6,10.9,6.5   C265.4,491.4,267.1,492.1,268.9,492.8z M271.6,490.1c1.2-0.3,1.4,2.1,0.6,2.7C271.4,492.7,270.3,490.5,271.6,490.1z"/>
	<path class="st0" d="M228.4,402.4C228.6,401.6,228.1,402.4,228.4,402.4L228.4,402.4z"/>
	<path class="st0" d="M251.1,474.6c0.2,1,0.2,2.2,0.1,3.2C252.4,475.9,252.8,476.1,251.1,474.6z"/>
	<path class="st0" d="M280.1,489.7c-0.3-0.2-0.5-0.1-0.6,0.1C279.5,490.5,279.7,490.5,280.1,489.7z"/>
	<path class="st0" d="M318.8,424.6c1,0.3,2.1,0.5,1.5-0.7C318.7,424,318.2,424.3,318.8,424.6z"/>
	<path class="st0" d="M265.3,453.4c-0.2,0.2-0.4,0.5-0.6,0.7c0.1,0.1,0.2,0.1,0.3,0.2C265.8,453.9,265.9,453.7,265.3,453.4z"/>
	<path class="st0" d="M269,452.6c-0.1,0.9-0.3,1.8-0.5,2.7C270.4,454.3,270.5,453.7,269,452.6z"/>
	<path class="st0" d="M279.5,439.5c-0.1-0.6,2.9-3.4,3.4-3.9c0.9,0.9,5,3.9,4.3,5.1c3.4-1.4,6.7-2.9,10-4.5c1-0.5,2.4-1.6,3.5-1.7   c1.7-0.1,8.2,4.3,9.3,3.3c0.4-0.6,2,3.6,2.1,3.9c0.1,0.3,0.5,1.9,0.8,2c1,0.5,3.9-1.2,5.1-1.1c-0.5,0.5-1.8,0.6-2.4,1.1   c-1,0.8-1,1.5-2,1.8c1,2.6,2,5.2,3.1,7.8c1.1,2.9,0.8,3.3,3.8,1.8c4.7-2.5,3.7-8.6,3.9-13.4c0.4-6.6,0.4-13.2,1.1-19.8   c0.2-2.3,0.2-2,2.3-3.2c2.5-1.4,4.9-2.9,7.3-4.4c1.3-0.8,2.7-1.7,3.9-2.6c-0.6,0.4,1.3-3.5,0,0c6-4.1,13.5-8.8,17.2-15.2   c1.1-1.9,2-4.4,0.2-6.2c-1.5-1.5-7.5-1.8-8.7-0.1c0.4-1.1-4-0.8-5.2-0.6c-0.9,0.2-1.5,0.7-1.9,1c-0.3,0.2,0,0.8-0.6,1   c-0.5,0.2-1.1-0.2-1.6-0.1c-1.1,0.3-1.8,0.6-2.8,1.4c1.3-0.1,2.3,0.4,3,1.6c-1.1,0-3.3-0.7-4.3-0.4c-0.7,0.2-1.5,1.5-2.1,2   c-1.1,0.8-2.4,1.4-3.5,2.2c-1.6,1.2-2.4,1.8-4.3,2.7c-3.7,1.9-7.4,6-11.4,6.9c-4,1-9.2,0-13.3,0.1c-6.8,0-13.7,0.1-20.5,0.1   c-2.9,0-5.8,0-8.8,0c-0.7,0-1.8-0.2-2.4,0c-1.1,0.4-0.4,0.9-1.4,2.1c0.2-1.8-2.8-1.3-2-2.1c-5.6,0-11.3,0-16.9,0.1   c-0.2,0.8,0.4,1.7,0.8,2.3c-1.8-0.3-3.6-0.3-5.4-0.5c1-0.6,1.9-1.3,3-1.8c-2.4,0-5.3-0.5-7.6,0c-2.8,0.6-3.6,2.9-5,5.1   c0.5,0.2,1.3,0.3,1.9,0.4c-1-1.2-0.2-2.3,0.7-2.6c-1.2,1.8,0.7,0,1.8,0.8c0.6,0.4,0.4,1.9,1.1,2.4c1.4,1,2.6-0.8,3.8,0.5   c-0.9,0.3,1.1,0.4,1.4,0.5c1.7,0.4,3.3,0.6,5,0.9c5,0.9,9.9,1.9,14.9,2.8c3.3,0.6,6.8,1,10,1.9c0.8,0.2,1.6,0.6,2.4,1   c1.1,0.5,2.4,1.3,3.5,1.6c1.8,0.4,0.5,1,2.3-0.5c0.1,0,0.9,2.2,2,2.4c-1.5,0.7-0.9,1-1.8,1.8c0.9-0.9-0.6-0.2-1,0   c-0.9,0.4-1.8,1.1-2.6,1.7c-2.2,1.4-4.5,2.9-6.7,4.2c-3,1.9-6.3-1.1-9.3-2.6c-2.8-1.3-8.7-5.1-11.3-1.5c-1.3,1.7,2.8,7.5,4,9.8   c-1.7-0.1-3.4-0.2-5.1-0.3c0.1,0.5,0.3,0.9,0.6,1.3c-1.4-0.2-2.7-0.2-4.1-0.4c0.5-0.4,1.1-0.7,1.6-1c-1.8-0.1-3.6-0.2-5.5-0.4   c-0.7,0-1.4-0.2-2.1-0.1c-0.7,0-1.3,0-1.9,0.2c-1.4,0.4-1.8,0.2-0.3,0.9c-3.2-0.6-2.6,1.6-0.6,2.6c1.5,0.7,3.1,1.2,4.6,1.8   c-1.4-0.8-2.9-2.6-1.1-3.1c-1.1,1.7,0.8-0.2,1.4,0.6c0.8,1,0.6,2.3,1.8,3.3c0.6,0.5,1.7,0.7,2.4,0.9c2.2,0.9,4.5,1.8,6.7,2.7   c-0.7,0.8-0.7,1.7-0.3,2.6c0.5,1.3,3.1-0.1,4-0.1c1.2,0.1,1.1,0.1,2.4,0.8c1,0.5,2.1,1.7,3.2,2c1.8,0.4,0.7,0.9,2.6-1.1   c0.4,0.5,0.4,1.1,0,1.6c0.8-0.2,2.5-1,3-1.5c0.7-0.7-0.9-1.2,0.7-1.7c-0.8,1.3,0.5,0.6,0.7-0.2c0.2-0.6-0.5-1.5-0.3-2.2   c0.3-1.2,0-0.4,1.2-1.1c3.6-2.1,8.8-3,12.6-4.5C282.5,441.9,279.6,440.3,279.5,439.5z M314.8,445.2   C314.3,445.2,314.7,445,314.8,445.2L314.8,445.2z M354,390.9c0.4,0,0.8,0,1.2,0c-0.5,0.6-1.5,0.4-2.1,0.5   C353.3,391.2,353.6,391,354,390.9z M351.6,393.4v4.2C350.5,396.4,351.1,394.1,351.6,393.4z M348.1,401.9c-0.2,0.3-0.6,0.7-1,1   C347.5,402.5,347.8,402.2,348.1,401.9z M347.1,402.9c-0.3,0.3-0.7,0.7-1.1,1C346.4,403.5,346.8,403.2,347.1,402.9z M333.1,402.2   c-0.6,0.5-1.3,0.6-2.1,0.5C331.5,402.1,332.5,402.2,333.1,402.2z M330.6,400.5c0.2,1.7-1.1,0.7-1.9,1   C328.1,399.5,330.3,398.3,330.6,400.5z M319.7,447.5c-2-0.5-0.4-1.8,0.7-2.6C320.4,445.2,320,446.9,319.7,447.5z M318.6,440.7   c0.5-0.3,1-0.4,1.6-0.4C319.7,440.7,319.2,440.8,318.6,440.7z M324.2,434.4c-1.6,0-3.3-0.3-4.9-0.7   C321.1,433.4,323.2,432.4,324.2,434.4z M316.1,419.5c-0.3,0.3-0.5,0.7-0.8,1C315.1,419.7,315.4,419.4,316.1,419.5z M315.3,421.1   c0.8-1.2,4.5-2.5,3.3,0.1c3.5,0.5,4.3,4.1,3,5.7c0.1-0.7,0.2-1.4,0.4-2.2c-1.7,0.1-1.5,1.2-0.6,2.3c-0.7,0.7-1.8,1-3.3,0.4   c0.5-0.5,0.9-0.4,1.2,0.1c-0.3-0.3,1.1-1.2,1.2-1.3c-1.2,0.1-4.2-1.1-2.2-2.5c-1.7,0-2.9,1.6-4.4,2.2   C313.9,424.1,314.2,422.7,315.3,421.1z M313.9,426.4c0.6,0,2.7-0.4,3,0.5c-0.7-0.4-2.7,1.7-3,2.3   C313.9,428.3,313.9,427.4,313.9,426.4z M314.6,437.3c1.1,0.1,1,2.1,0.2,1.9C312.8,438.7,314.7,437.4,314.6,437.3z M309.6,425.8   c-0.1,0.4-0.3,0.9-0.4,1.3C308.2,426.9,308.9,426.2,309.6,425.8z M255.8,413.4c1-0.5,2-1,3.3-1.4   C259.8,414.3,257.9,413.9,255.8,413.4z M261.9,410.1C261.5,410.1,261.8,410,261.9,410.1L261.9,410.1z M265.1,411.6   c-1.3-0.3-0.4-1.3,0.5-1.7C265.4,410.4,265.2,411,265.1,411.6z M266.4,412c0.3-0.4,0.7-0.8,1-1.3   C267.4,410.9,266.1,413.1,266.4,412z M270.3,419.9c-1.1-1.1-0.6-3.5,0-4.2V419.9z M271.6,413.7c0.6-0.5,1.3-0.6,2.1-0.5   C273.3,413.7,272.1,413.7,271.6,413.7z M279,417.6c-1.6-0.2-1.3-3.1,0.2-2.2c0.2-0.8,0.4-2.4,0.9-3c-0.1,0.1,0.8,0,1-0.2   c0.9-0.7,1.9-1.4,2.8-2.1C282.4,412.6,280.9,415.3,279,417.6z M244.8,443.5c0.2-1.1,0.7-1.6,1.5-0.7   C246.2,442.9,245,443.4,244.8,443.5z M249,444.2c0.1-0.2,0.6-1.4,0.7-2.1C250,443,251.5,444,249,444.2z M252.7,446.1   c0.2-0.5,0.5-0.8,0.9-1.2C253.3,445.4,253,445.7,252.7,446.1z M268.7,438c0.2,0.6,1.2,1.2-0.5,1.3   C268.4,439.1,268.6,438.4,268.7,438z M263.9,442.6c-0.4,0.3-0.7,0.7-1,1C263.2,443.2,263.5,442.9,263.9,442.6z M262.2,441.2   c0.3,0.8,0.5,1.7,0.4,2.6C260.1,444.1,260.1,441.3,262.2,441.2z M262,444.3c-0.6,0-1.1-0.1-1.5-0.5   C261.2,443.7,261.7,443.9,262,444.3z M260.6,443.8C260.5,443.8,260.5,443.7,260.6,443.8L260.6,443.8z M257.9,432.7   c-0.1,0.4-0.2,0.8-0.3,1.1C257.4,433.2,257.2,432.6,257.9,432.7z M256.5,441.7c0.3-0.4,0.7-0.8,1-1.3c-0.3,0.5-0.6,0.9-0.9,1.4   c1.1-1.2,3.4,3.3,0.8,3.3C255.4,445,256.2,442.7,256.5,441.7z M256.5,447c1.4-0.9,3.3-2.6,5.1-2.5c-1.1,0.8-0.3,2.2,0.3,3   C260.2,447.2,258.3,447.2,256.5,447z M261.8,448.8c0.7-0.4,1.5-0.7,2.5-1C264.8,449.5,263.4,449.2,261.8,448.8z M264.7,439.5   c1.6-0.8,2.2-0.9,1.9-0.2C265.9,440.8,265.3,440.9,264.7,439.5z M266.4,446.3C266.1,446.3,266.3,446.2,266.4,446.3L266.4,446.3z    M266,443.3c-0.9,0.1-0.6-1.9,0.4-1.8C266.3,441.5,268,443,266,443.3z M267.8,440.9c1.3,0.3,0.4,1.3-0.5,1.7   C267.5,442,267.6,441.4,267.8,440.9z M268.8,447.5c-1-0.2-0.3-1,0.4-1.3C269,446.6,268.9,447,268.8,447.5z M269.7,446.2   c0.1-1-1.1-1.2-1.8-1.2c1-1,1.9-2.1,2.8-3.1C270.6,443.2,270.6,445.1,269.7,446.2z M297.7,413.8c-0.3,0.4-0.6,0.7-1,1   C297,414.5,297.4,414.2,297.7,413.8z M296.7,414.8c-0.6,0.6-1.2,1.2-1.8,1.8C295.4,415.9,296,415.3,296.7,414.8z M291.8,413.5   c1.8,0.5,1.4,1.6,0.3,2.5C290.7,415.8,290.7,413.2,291.8,413.5z M288.7,417.4c0.2-0.3,1.2-1.3,1.8-1.2   C290.1,416.9,289.5,417.3,288.7,417.4z M290.5,415.2c-1,1.7-1.5,2.2-2.9,0.8c-0.5-0.5-1.3-1.1-0.8-2   C287.6,412.7,289.8,414.5,290.5,415.2z M285.7,411.6c0.4,0,0.8,0,1.2,0c-0.5,0.6-1.5,0.4-2.1,0.5   C285,411.9,285.3,411.7,285.7,411.6z M284.7,427.2c0.9,0.2,1.9,0.3,2.8,0.4c-1.3,0.2-2.6-0.4-3.8-0.5   C284.1,427.1,284.4,427.2,284.7,427.2z M284,428.3C284,428.2,284.4,428,284,428.3L284,428.3z M284.9,434c-0.6,0.2-1.2,0.2-1.9,0   C283.6,434.1,284.3,434.1,284.9,434z M283,432c-0.3,0.3-0.5,0.6-0.8,1C282.3,432.9,283.3,431.2,283,432z M282.2,427.1   c-0.2,0.2-0.3,0.3-0.5,0.5C281.9,427.4,282.1,427.3,282.2,427.1z M283,435c-0.8,0.9-2.2,2.5-3.6,2.4   C280.3,436.1,281.4,435.2,283,435z"/>
	<path class="st0" d="M201.3,452.7c-0.5,0.1-0.5,0.2,0,0.3C201.2,452.9,201.2,452.8,201.3,452.7z"/>
	<path class="st0" d="M201.3,452.7c0.1,0,0.2,0,0.3-0.1C201.5,452.7,201.4,452.7,201.3,452.7z"/>
	<path class="st0" d="M209.4,442.3c-3.6-6.5-13.8-3.9-13.8,3.6c-0.3,1-0.1,1.6,0.6,1.8c-0.3,0.2,0.7,2.4,0.8,2.5   c0.9-1.1,1.8-0.3,2.9-0.4c-0.5-0.3-1-0.5-1.5-0.8c0.6,0.1,1.3,0.2,1.8,0.4c-0.5-1-0.8-1.8,0.1-2.1c-0.4,0.1,4.2,1,4.1,1   c0.9,0.5,1.4,0.7,0.3,1.9c-1,1.2-2.4,0.5-3.7,0.3c0.7,0.5,1.4,1,2.1,1.6c-0.7,0-1.2,0.3-1.6,0.9   C207.5,454.2,212.4,447.7,209.4,442.3z M197.4,447.6c-0.1-0.8,2.1-0.8,2.4-0.8C199.3,447,198.1,447.6,197.4,447.6z M198.5,443   c-0.4-0.6-0.9-1.7,0.1-1.5c1.1,0.3,1.6-0.8,3.3,0.7c-0.4,0.7-1.1,1.1-1.5,1.2C201,443.2,198.5,442.5,198.5,443z M200.6,443.9   c0.3-0.5,0.8-0.8,1.3-0.9C201.5,443.5,201,443.7,200.6,443.9z M205.9,449.3c-0.1,0.4-0.2,0.8-0.3,1.1   C205.4,449.7,205.2,449.1,205.9,449.3z"/>
	<path class="st0" d="M386.1,445.8c0,9.5,14.7,9.5,14.7,0C400.9,436.4,386.1,436.3,386.1,445.8z M390,451.6c0.3-0.1,1.7-0.7,2.4-0.8   C392.5,451.6,390.3,451.6,390,451.6z M398,441.9c0.2-0.4,0.5-0.8,0.9-1.1C398.8,440.9,397.6,442.9,398,441.9z M399.4,445.1   c-0.7,0.2-1.3-0.5-1.6-1c-0.7-1.3-0.3-1.2,0.8-2.4C399.1,442.3,401,444.6,399.4,445.1z"/>
	<path class="st0" d="M295.2,294.1c-0.1-0.2-1.1-1.8-1.1-0.5C294.1,294.5,295.8,295.4,295.2,294.1z M294.9,294.3   C294.9,294.3,295,294.4,294.9,294.3C294.9,294.3,294.9,294.3,294.9,294.3z"/>
	<path class="st0" d="M398.5,345.4c0.1,0.1,0.2,0.3,0.3,0.4C398.7,345.7,398.6,345.6,398.5,345.4z"/>
	<path class="st0" d="M419.8,394.3c0.3,1-0.6,1.9,0.2,2.8c-0.3-0.3,2-0.5,1.5-0.1c1.1-0.8,0.5-1.1,0.1-2.6c-0.4-1.5-0.8-3-1.9-2.2   c0-0.1,0-0.1,0-0.2c0.2-0.2,0.3-0.3,0.3-0.4c0,0-0.1,0-0.1-0.2c-0.3,0.2-0.3,0.3-0.3,0.5c0,0,0-0.1,0-0.1c0,0,0,0,0,0   c-0.2-0.7,1.2-2.2,0.6-3.6c-0.1-0.2,0-0.6-0.1-0.8c-0.2-0.4-1-0.5-1-0.3c-0.5-1.3,0.2-2.4-0.3-3.8c-1.1-3.3-2.6-6.3-3.4-8.6   c-0.7-2-1.2-3.1-2.1-4.9c-1.2-2.5-2.5-5.2-4.1-7.6c-0.6-0.9-1.6-4.1-2.5-4.5c0-0.1,0-0.1,0.1-0.2c0.6,0.3,0.9,0.3,0.9,0   c0.7,1.1,1.8,2.5,1.8,2.8c0,0.8,1.3,2.6,1.6,3.2c0.9,1.8,1.8,4.7,3.2,6.1c1.2,1.2,1.5,1.5,0.7-0.8c-0.7-2-3.2-8.4-5.2-8.9   c0.4-0.7-1.6-4.5-2.4-4c-0.2,0.1-0.2,0.3-0.2,0.5c-0.4-0.6-0.9-1.1-1-1.1c-0.4,0.1-0.2,0.5-0.3,0.8c-0.7-0.3-0.9-1.9-1.2-2.4   c-1.2-1.7-2.8-4-4.3-5.6c-1-1.1-1.4-1.6-1.9-2.3c0,0.1,0,0.3-0.1,0.5c0.4-0.6-0.6-1.1-1.2-1.5c0.3,0.2,0.7,0.4,0.9,0.6   c-0.2-0.3-0.6-0.7-1-1.1c-2.7-2.9-4.9-6.2-7.9-8.9c0.4,0.9-0.2,2.8-0.4,3.6c7.2,7.8,13.5,16.2,18.5,25.5c2.6,4.8,4.8,9.7,6.8,14.8   c0.9,2.4,1.7,4.9,2.5,7.4c0.4,1.2,2.1,5.6,2,5.9c0,0-0.1,0.1-0.2,0.2c0,0,0.1-0.2,0.2-0.2c0,0,0,0,0,0   C418.6,393.5,418.8,394.7,419.8,394.3z M420,392.3C420,392.4,420,392.4,420,392.3C420,392.4,420,392.4,420,392.3z M421.9,395.8   c0.1,0.2-0.2-0.3-0.4-0.8C421.6,395.3,421.8,395.5,421.9,395.8z M421.1,393.9c-0.2-1.3-0.3-1.4-0.5-1.4   C420.8,392.2,420.7,391.7,421.1,393.9z M409.7,359.8c0.2-0.1-0.2-1.1-0.7-2C409.5,358.7,409.9,359.6,409.7,359.8z M403,351.9   c-0.2-0.3-0.4-0.7-0.5-1C402.7,351.2,402.8,351.6,403,351.9z M404.1,354C404.1,354,404.1,354,404.1,354   C404.1,354,404.1,354,404.1,354C404.1,354,404.1,354,404.1,354z M405,354.7C405,354.7,405,354.7,405,354.7   C405,354.5,405,354.5,405,354.7z M406.9,358.4C406.9,358.4,406.9,358.3,406.9,358.4C406.9,358.3,406.9,358.3,406.9,358.4   C406.9,358.4,406.9,358.4,406.9,358.4z M407.5,359.2L407.5,359.2c0.2,0.1,0.3,0.3,0.4,0.6C407.8,359.6,407.6,359.4,407.5,359.2z    M418.3,386C418.3,386,418.3,386,418.3,386C418.3,386,418.3,386,418.3,386C418.3,386,418.3,386,418.3,386z M413.9,371.6   c0.2,0,0.3,0,0.5,0C414.2,371.6,414,371.6,413.9,371.6z M409.8,363.1c0.2,0.2,0.3,0.4,0.5,0.6c0.6,0.8,0.7,1.9,1.3,2.7   C410.7,365.5,410.6,364.1,409.8,363.1z M412.2,367.3c0,0.1,0.2,0.3,0.3,0.6c-0.2-0.4-0.4-0.8-0.5-0.9   C412,367.1,412.1,367.2,412.2,367.3z M413.5,370.9c0.2,0,0.3,0.2,0.3,0.6C413.7,371.5,413.5,371.4,413.5,370.9z M414.6,373.7   C414.6,373.7,414.6,373.7,414.6,373.7C414.6,373.7,414.6,373.7,414.6,373.7C414.5,373.7,414.5,373.7,414.6,373.7z M415.4,375.1   C415.4,375.1,415.4,375.1,415.4,375.1C415.4,375.1,415.4,375.1,415.4,375.1z M416.3,376.7c-0.1-0.2-0.3-0.4-0.5-0.7   C416,376.3,416.1,376.5,416.3,376.7z M420.1,388.9c0,0.4,0.1,0.7,0.1,1.1C420.1,390.8,419.8,386.4,420.1,388.9z"/>
	<path class="st0" d="M282.2,298.7c-0.3,0.1-0.4,0.1-0.5,0.2C282.2,298.7,282.5,298.7,282.2,298.7z"/>
	<path class="st0" d="M376.4,323.5c0.1,0,0.1,0.1,0.2,0.1C376.5,323.6,376.4,323.6,376.4,323.5z"/>
	<path class="st0" d="M347.5,306.8c0.1,0.1,0.1,0.1,0.2,0.2c0,0,0,0,0,0C347.6,306.9,347.6,306.8,347.5,306.8z"/>
	<path class="st0" d="M250.1,303.2c0.2-0.1,0.3-0.1,0.5-0.2C250.4,303,250.3,303.1,250.1,303.2z"/>
	<path class="st0" d="M374.6,322c0,0.1,0.1,0.1,0.1,0.2c0,0,0,0,0,0C374.6,322.1,374.6,322.1,374.6,322z"/>
	<path class="st0" d="M213.5,326.8C213.5,326.9,213.5,327.1,213.5,326.8L213.5,326.8z"/>
	<path class="st0" d="M380.9,325.2c-0.6-0.3-1.2-0.5-2-0.7c0.1,0,0.1,0.1,0.2,0.1c0,0,0,0,0,0c0.3,0.2,0.5,0.4,0.8,0.6   c0.2,0,0.4,0,0.6,0c-0.1-0.1-0.1-0.1-0.2-0.2c0.1,0,0.1,0.1,0.2,0.2c-1.1,0.1,2,2.4,3,2.1c-0.1-0.1-0.2-0.2-0.3-0.2   c0.2,0.1,0.5,0.2,0.6,0.1C382.6,326.2,381.8,325.7,380.9,325.2C380.8,325.2,380.8,325.2,380.9,325.2   C380.8,325.2,380.8,325.2,380.9,325.2z"/>
	<path class="st0" d="M343.9,304.8c0.4,0.1,0.8,0.3,1.3,0.4c-0.1-0.4-0.1-0.9-0.2-1.3C344.7,304.4,344.4,304.7,343.9,304.8z"/>
	<path class="st0" d="M420,391.5C420.1,391.5,420.1,391.4,420,391.5L420,391.5z"/>
	<path class="st0" d="M380.7,324.7c-0.6-0.5-1.3-1.1-1.9-1.6c0,0.5,0,0.9,0,1.4C379.1,324.8,380.3,324.7,380.7,324.7z"/>
	<path class="st0" d="M382.7,327.6c-0.6-0.5,1,1.1,1.8,1.3c-0.1,0-0.2,0-0.3,0c1.3,1.2,2.6,2.4,3.9,3.6c-1.6-0.6,2.4,4.3,2.5,2.4   c2,1.9,4.3,6,6.7,7.3c2.2,1.1-0.1-1.3-0.5-1.7c-3.6-4.3-7.5-8.4-11.8-12.2c-0.1,0.1,0.1,0.5,0.5,0.9c-0.2-0.2-0.4-0.4-0.6-0.6   c0-0.6-0.7-1.5-1.4-1.3c0.1,0.1,0.2,0.2,0.3,0.3C383.5,327.5,383.2,327.5,382.7,327.6z"/>
	<path class="st0" d="M387.7,335.9C387.7,335.8,387.8,335.8,387.7,335.9c0.6-0.4,1.1-0.6,1.7-0.6c-1.7-1.5-3.3-2.9-4.7-4.6   c-0.5-0.6-0.8-1.3-1.5-1.6c0.1,0,0.1,0,0.2,0c-0.1-0.1-0.2-0.3-0.3-0.4c-0.4-1.2-1.5-0.1-1.7-0.3c0.1,0.1,1.7,1,1.5,0.5   c0,0.1,0.1,0.1,0.1,0.2c0,0,0,0,0,0c0.1,0.1,0.2,0.3,0.3,0.4c-0.6-0.5-1.1-0.5-1.8-1.1c0.3-0.3,0.6-0.5,1.1-0.6   c-1.4-1.5-3.7-2.6-5.9-4.1c0.2,0.2,0.4,0.5,0.6,0.8c-0.7-0.8-0.8-0.7-1.7-1.3c0.2,0.2,0.5,0.3,0.8,0.4c0,0,0,0,0,0   c-0.6-0.4-1.2-0.8-1.7-1.3c0.1,0.1,0.1,0.2,0.2,0.3c-0.1-0.1-0.1-0.2-0.2-0.3c-0.7-0.6-1.3-1.3-1.7-2.2c2,1.4,3.9,2.9,5.8,4.4   c0.2-2.9-5.8-5.9-8.1-7.4c-2.1-1.3-4.3-2.9-6.5-4.2c-2.3-1.4-4.7-2.5-7.1-3.8c-2.1-1.1-6.7-3.8-8.7-2.8c1.2,0.4,2.9,1.8,4,1.5   c0.6,1.4,9,4.9,10.9,5.8c-0.5-0.1-0.4,0.5-0.5,0.8c-1.2-1-2-1.5-3.4-1.9c0.1,0.3,0.2,0.4,0.4,0.5c-0.1,0-0.2,0.1-0.4,0.1   c0.1-0.1,0-0.2-0.2-0.3c0.9,0.3-0.6-0.7-0.6-0.7c-0.1,0.1-0.1,0.2-0.1,0.3c0,0,0,0,0,0c-0.1,0.3-0.2,0.6-0.3,0.8   c0.1-0.5,0-0.9-0.3-1.2c0.2,0.1,0.4,0.2,0.5,0.3c0.3-0.9-6.9-4.1-7.8-4.6c-0.7-0.3-2.1-0.7-2.9-0.9c0.3,0.3,0.6,0.5,0.9,0.8   c-0.3-0.2-0.6-0.5-0.9-0.8c-0.2-0.1-0.4-0.1-0.5-0.2c0,0,0,0.1,0,0.2c-0.2-0.3-0.5-0.7-0.9-1c-0.3,0-0.6-0.1-0.9-0.1   c0,0.2,0.1,0.4,0.1,0.6c-0.1-0.7-1.5-0.9-2.2-1.2c-1.7-0.6-3.3-1.8-5-2c-0.9-0.1-1.7-0.7-2.1,0.5c-0.1-0.1-0.3-0.2-0.4-0.3   c1,0-0.3-1.3-0.2-1.2c-1-1-5.7-1.5-6.9-1.2c0.2-0.1,0.3-0.2,0.4-0.2c0,0.1,0.4,0.1,1.3-0.2c-0.4-0.2-0.5-0.2-0.2-0.2   c0.2,0.1,0.4,0.1,0.7,0.1c-0.1,0-0.1,0-0.2,0c2.7,0.7,6,1.2,8.5,2.1c2.2,0.7,3.3,2.1,4.9,0.5c-3.6-1.2-7.3-2.5-10.9-3.6   c-2.7-0.8-5.5-1.5-8.2-2c-1.8-0.4-2.9-1-3.3,0.8c-0.2-0.5-0.2-0.9,0.2-1.2c-0.2-0.1-1.5-0.7-2.1-0.2c0.8-0.7-0.3-0.3-0.7-0.4   c-1.5-0.5-3-0.3-4.6-0.7c-2.1-0.5-3.4-0.5-4.9,0.2c0.3-0.2,0.6-0.4,0.8-0.6c-1.4-0.1-1.8-0.2-2.2,0.2c0.1-0.2,0.2-0.4,0.3-0.5   c-1.9-0.4-3.4-0.5-5.5-0.3c0,0-1.1-0.3-1.1-0.3c-0.3,0.2-0.3,0.5-0.4,0.8c0.1-0.2,0.1-0.5,0.1-0.8c-0.4,0.1-1,0.2-1.4,0.4   c-1.6-0.5-0.9,1.8,0.1,1.9c-0.2,0.3-0.5,0.4-1-0.3c-0.3-0.5-0.4-1.8,0.5-1.8c-1.5-0.4-2.5-1.6-3.8-1.4c0.1,1.1,1,0.7,0.6,1.8   c0.2,0,0.5,0.1,0.7,0.1c-0.8-0.1-0.8,0.1-1,0.2c0.1-0.1,0.2-0.2,0.3-0.3c-0.1,0-0.1,0-0.2,0c-0.1,0-0.2-1-0.8,0.5   c0.1-0.3,0.2-0.6,0.3-0.9c-1.8,0.1-4.1-2.1-3.4,0.2c-1.4,0.3-4.1-2.2-3.7,0c-1.6-1.2-5.1-2-6.5-0.3c-1.3-0.3-2.7,0.3-2.7,0.3   c-0.2,0-0.4,0.1-0.6,0.2c0.1-0.1,0.1-0.1,0.1-0.2c0,0,0,0,0,0c0,0,0,0,0.1,0c-0.1,0-0.2,0.1-0.2,0.2c0.1-0.1,0.2-0.2,0.2-0.2   c0,0,0,0,0,0c0.2-0.2,0.4-0.3,0.6-0.5c-0.1,0-0.5,0.3-0.7,0.4c0.1-0.1,0.1-0.2,0.2-0.3c-4.2,0.7-8.6,1.6-13,2.8   c-5.5,1.6-10.6,3.3-15.6,5.4c0,0,0,0,0.1,0c-0.2,0.1-0.5,0.3-0.8,0.5c0.1-0.1,0.2-0.2,0.2-0.3c-4.7,1.9-9.3,4.1-14,6.7   c-1.6,0.8-3.1,1.7-4.6,2.7c0,0,0,0,0,0c0,0,0,0-0.1,0.1c-3.9,2.4-7.6,5.1-11.3,7.8c-1.9,1.4-4.6,2.9-5.6,5.1   c-0.6,1.3-0.1,2.4-1,3.2c-0.2-0.6,0.6-5.7-1.9-1.2c-0.8,1.5-0.3,4.1-0.1,5.8c0.1,1.9-1.1,1,1.1,1.2c0.6,0.1,1.7,1.1,1.4-0.3   c1.4,0.4,1.1-1.6,1.6-2c0.2-0.2,1.1,0,1.5-0.2c0.4-0.3,0.6-0.7,1-1c0.5-0.5,1-1,1.5-1.5c0,0,0,0.1,0,0.1c0.2-0.2,0.5-0.3,0.8-0.5   c0.3-0.2,0.4-0.7,0.6-1c0,0-0.1,0-0.1,0c0.2-0.2,0.4-0.5,0.7-0.7c0.4-0.4,0.8-0.7,1.2-1c0,0.1,0,0.2,0.1,0.3   c0.2-0.2,0.4-0.5,0.6-0.8c1.2-0.7,2.5-1.2,3.8-2.3c-0.7,0.4-1.4,0.4-2.2,0.1c0.1-0.1,0.4-0.5,0.9-1c-0.5,0.5-0.9,0.9-0.9,1   c1,0.4,4.6-1,3.2-2c1-0.5,1.7-0.5,1.8-1.7c0.2,0.1,1.1,0.7,1.1,0c-0.1,0-0.2,0-0.3,0c0,0.1,0,0.1,0-0.2c0,0.1,0,0.1,0,0.2   c0.6-0.4,0.4-0.3,0.7-1c1,0.9,3.5-1.3,4.6-3.5c-0.1,0.4-0.2,0.9-0.3,1.3c0.9-0.6,1.5-0.7,1.1-1.8c0.6-0.2,1.3,0.9,1.7,0.8   c0.2-0.1,0.5-0.5,0.4-0.5c-0.4,0.1,0.2-0.7,0.3-0.8c0.1-0.1,0.4-0.1,0.5-0.2c0.2-0.4,0.5-0.4,0.8-0.8c0,0.1,0,0.3,0,0.4   c0.3-0.2,0.5-0.6,0.6-1c0,0.1,0,0.2,0,0.3c0.9-0.3,1.7,0.3,1.7-1.1c0.1,0.2,2.2-0.5,2.4-0.8c0.5-0.7,0.1-0.7-0.4-1.7   c0,0.1,1.2,1.5,0.9,0.6c0.1,0.1,0.6,0.4,1,0.5c-0.1,0-0.2,0-0.4,0c0.2,0,0.6,0.5,0.7,0c0,0,0,0,0,0c0,0,0-0.1,0-0.1   c0,0.1-0.3-0.8,0-0.8c-0.1,0-0.1-0.1-0.2-0.1c0.4,0,1.2,0.2,1.3-0.2c0.9,0.7,1.5,0.3,0.8-0.6c1.6-0.1,1.4,0,2-1.5   c0.6,1.9,6.1-2,8.2-1.8c-0.8-0.6-0.6-1.1-0.2-1.4c-0.5,0.6-0.1,1.7,0.7,1.1c0,0,0.4-0.6,0.5-1c0.1,0.2,0.1,0.5-0.3,1   c0.8,0.2,0.5-0.1,1-0.2c-0.1,0-0.2-0.6,0.3-0.9c0.2-0.1,1.3-0.1,1.1,0c0.5-0.2,0.5-0.4,0.8-0.6c0,0.2,0,0.4,0,0.5   c0.5-0.2,0.9-0.4,1.3-0.7c0.1,0.1,0.2,0,0.1-0.1c0,0,0,0,0,0c0,0,0,0,0,0c-0.1-0.1-0.3-0.2-0.5-0.2c0.1,0.1,0.2,0.2,0.3,0.2   c-0.3,0-0.5,0-0.8,0c0,0,0,0,0,0c0.2-0.1,0.4-0.2,0.5-0.2c-0.1-0.1-0.2-0.2-0.3-0.3c1.3-0.1,1.7,0.3,3.1-0.2c0.3-0.1,0.8,0.1,1.1,0   c0.1,0,0.2-0.2,0.3-0.3c0.6-0.3,1,0.1,1.8-0.1c0-0.1,0-0.1-0.1-0.2c0.1,0.1,0.3,0.1,0.6-0.1c-0.3,0.2,1-1.1,0.4-0.9   c0,0-0.3-0.7-0.3-0.7c0.3,0,0.9,0.3,0.9-0.2c1.6,1.1,1.8,1.6,3.9,1.2c0.5-0.1,0.6-0.4,1.1-0.5c0.5-0.1,2.3-0.5,2.2-1.1   c0.2,0,0.5-0.1,0.8-0.2c0,0.1,0.2,0.2,0.4,0.3c0.1,0.1,0.4,0,0.7-0.1c-0.1,0.1-0.2,0.2-0.3,0.3c0.3,0.1,0.4,0.1,0.5,0c0,0,0,0,0,0   c0.9,0,1.6-0.1,2.6-0.2c0.2,0,1.6-0.4,1.5-0.3c0.2-0.1,0.6,0.4,0.9,0c1.1-0.2,2.1,0.2,3-0.1c0.3-0.1,0.7,0.3,1.1-0.1   c0.2-0.2,0.4-0.4,0.5-0.7c0.1,0.2,0.3,0.4,0.5,0.5c0-0.4,0-0.7,0-1.1c0.1,0.5,0.3,0.9,0.6,1.2c1.3,1.1,2,0.1,3.1,0   c1.4-0.1,3.1,0.2,4.5,0.2c1.3,0,3.1,0,4.6,0.2c0.8,0.1,1.8,0.4,2.5,0.5c0.2,0-0.2-0.9-0.2-0.9c1.7,1.4,1.5-0.3,0.5-1.1   c0.6,0.4,1.2,0.8,1.8,1.2c0.1,0.1-0.4,0.5,0,0.7c0.3,0.2,5,0.9,5.2,0.8c0.8-0.4,1-1,0.1-2c0.3,0,0.8,1.1,1.1,1.3   c1.3,1,1.9,1,3.5,1.3c3.3,0.5,6.7,1.3,10,2c-0.1-0.4-0.1-0.7,0-1c0.6,2.3,1.7,0.6,1.3-0.3c0.2,0.4,0.2,1-0.1,1.6   c4.1,0.9,7.9,2.2,11.8,3.6c0-0.1-0.1-0.2-0.1-0.3c0.6,0.6,2.2,1.1,2.4,1.1c0.5,0.4,0.9,0.6,1.2,0.4c0,0,0,0,0,0   c7.3,2.9,14.4,6.4,21,10.7c2.9,1.8,5.7,3.8,8.5,5.9c1.6,1.2,3.1,2.4,4.6,3.7c2.2,1.9,2.1,1.8,4.8,1c-0.9,0.3-1.7,0.6-2.5,1   c0.7,0.6,1.6,0.9,2.2,0.6c-0.3,0.2-0.7,0.2-1.3,0.2c1.2,1,2.4,2.8,3.8,3.5c0.3,0.8,0.7,1.2,1.2,1.2c0,0,0,0,0,0   c0.9,0.9,1.7,1.8,2.6,2.7C389.9,336,390.1,334.8,387.7,335.9z M211.3,328.4C211.3,328.4,211.3,328.4,211.3,328.4   C211.3,328.4,211.3,328.4,211.3,328.4C211.3,328.4,211.3,328.4,211.3,328.4z M212.8,333.6c0.2,0.3,0.4,0.5,0.5,0.7   C213.2,334.1,213,333.9,212.8,333.6z M230.6,313.4C230.7,313.4,230.7,313.4,230.6,313.4c0.1,0,0.1-0.1,0.2-0.1   c-0.2,0.1-0.3,0.3-0.5,0.4C230.4,313.6,230.5,313.5,230.6,313.4z M231.7,313.8c0,0.3-0.1,0.5-0.4,0.9c0.1,0,0.2-0.1,0.2-0.1   c-0.1,0-0.2,0.1-0.2,0.1C231.6,314.4,231.7,314.1,231.7,313.8z M231.7,313.6c0-0.3-0.1-0.5-0.2-0.8c0.1-0.1,0.3-0.2,0.4-0.3   C231.6,313,231.7,313.3,231.7,313.6z M229.7,314c-0.4,0.2-0.7,0.5-1.1,0.7C229,314.5,229.3,314.2,229.7,314z M223.1,318.6   c-0.1,0-0.1,0.1-0.2,0.1C223,318.7,223,318.6,223.1,318.6z M214.8,325.9c0-0.2-0.1-0.4-0.1-0.5   C214.7,325.5,214.7,325.7,214.8,325.9z M214.2,327.4C214.2,327.3,214.2,327.3,214.2,327.4c0,0,0,0.1,0,0.4   C214.2,327.6,214.2,327.4,214.2,327.4z M213.7,328.9c0.1-0.2,0.2-0.2,0.3-0.2C214,328.7,213.9,328.7,213.7,328.9z M214.3,328.3   c0.4-0.1,0.7-0.5,1-0.6c0,0.1,1,3.5,0.3,2.6C215.4,330.1,214.7,328.4,214.3,328.3z M215.4,324.5c0,0,0.1-0.1,0.1-0.1   c0.6-0.5,1.1-0.9,1.7-1.4C216.6,323.5,216,324,215.4,324.5z M218.3,325.4c-0.4-0.3-0.3-0.8-1-0.3c-0.3-0.8-0.2-1,0.4-1.4   c0.6,0.4,0.2,0.3,1,0.3C219,324.7,218.8,324.9,218.3,325.4z M223.9,325.1C223.9,325,223.9,325.1,223.9,325.1L223.9,325.1z    M224.1,324.5L224.1,324.5C224.1,324.5,224.2,324.5,224.1,324.5C224.2,324.5,224.1,324.5,224.1,324.5z M227.7,321.7   C227.6,321.7,227.7,321.5,227.7,321.7L227.7,321.7z M227.2,320.1c0.3-0.5,0.6-1,1-1.4C227.9,319.1,227.5,319.6,227.2,320.1z    M228.7,318.1c0.2-0.2,0.4-0.5,0.6-0.7C229.1,317.6,228.9,317.9,228.7,318.1z M229.8,316.9c0.2-0.2,0.4-0.5,0.7-0.7   C230.3,316.4,230,316.6,229.8,316.9z M227.3,318c0.9-0.7,3.8-3.3,4.5-2.9C231.2,314.7,228.2,317.3,227.3,318z M234.2,317.2   c0,0,0-0.1,0.1,0C234.2,317.2,234.2,317.2,234.2,317.2z M232.7,313.9c0.7-0.5,1.5-1.1,2.2-1.2C234.2,313,233.4,313.5,232.7,313.9z    M236.5,315.4c0,0,0-0.1,0-0.2c0,0.1,0,0.2,0.1,0.3C236.5,315.5,236.5,315.4,236.5,315.4z M240.8,312.6c0-0.3,0-0.5-0.1-0.7   c0.1,0.1,0.2,0.1,0.4,0.2C241,312.3,240.9,312.4,240.8,312.6z M246.7,310.2c0-0.1-0.1-0.2-0.2-0.2c0.2,0,0.3,0,0.3,0c0,0,0,0,0.1,0   C246.7,310,246.7,310.1,246.7,310.2z M246.8,310c0,0,0.1,0,0.1,0C246.9,310,246.8,310,246.8,310z M247.3,309.7   C247.2,309.7,247.3,309.7,247.3,309.7L247.3,309.7z M250.7,303.1c0.1,0.1,0.2,0.2,0.3,0.3C250.9,303.3,250.8,303.2,250.7,303.1z    M251.7,304.3C251.7,304.3,251.7,304.3,251.7,304.3c0.1,0,0.1-0.1,0.2-0.1C251.8,304.2,251.8,304.2,251.7,304.3z M253.2,302.4   c0,0,0.1,0,0.1,0C253.2,302.4,253.2,302.4,253.2,302.4z M265,298.3c-1,0.3-2.1,0.6-3.1,0.9c1.9-0.5,3.8-1.1,5.6-1.6   C266.7,297.9,265.8,298.1,265,298.3z M268.6,301.6c-0.1,0-0.1,0.1-0.2,0.1C268.5,301.7,268.5,301.7,268.6,301.6z M287,297.6   c0.3,0.3,0.6,0.6,0.8,1C287.6,298.4,286.7,297.6,287,297.6z M285,298.1c0.2,0.1,0.3-0.1,0.3,0.2C285.3,298.3,285.1,298.2,285,298.1   z M273.8,299.9c0.1,0.2,0.2,0,0.2,0.4C273.5,300.1,273.9,300.2,273.8,299.9z M274.7,299.5c0.2,0,0.5,0.3,0.6,0.5   C275.2,300,274.7,299.5,274.7,299.5z M276.6,299.7c0.2,0,0.3,0.1,0.4,0.1C276.8,299.8,276.7,299.8,276.6,299.7z M278.7,299.8   c-0.1-0.2-0.3-0.4-0.7-0.6c1-0.9,1.2-0.5,1.3,0.3c0.5-0.2,0.6-0.5,0.4-0.7c0,0,0.1-0.1,0.3-0.2c-0.1,0.2-0.2,0.3-0.2,0.4   c0.2,0.3-0.2,0.4-0.3,0.6C279.3,299.6,279,299.7,278.7,299.8z M281.7,299.6C281.6,299.6,281.6,299.6,281.7,299.6   C281.7,299.5,281.7,299.5,281.7,299.6z M281.3,299.2c0.2-0.2,0.3-0.3,0.4-0.3c-0.1,0-0.2,0.1-0.4,0.1c-0.1-0.2-0.7-0.3-1.1-0.5   c0.5,0,0.9,0,1.4-0.1c0,0,0-0.1,0-0.1c0.1,0.1,0.1,0.2,0.2,0.1c0.3,0,0.9,0.2,1,0c0.1,0.1,0.2,0.1,0.3,0.2c0,0,0,0,0,0c0,0,0,0,0,0   c-0.1,0-0.1-0.1-0.2-0.1c0,0-0.1,0-0.1,0c0-0.1-0.1-0.2-0.3-0.4c0.1,0.1,0.3,0.2,0.5,0.2c-0.1,0.1-0.2,0.2-0.1,0.3   c0.1,0,0.1,0.1,0.2,0.1c0,0,0.1,0,0.1,0c0,0,0,0-0.1,0c0,0,0,0,0,0c0,0,0,0,0,0C282.3,298.4,282.5,298.9,281.3,299.2z M283.7,298   c0.3-0.2,0.5-0.4,0.5-0.4c0,0,0,0.1,0.1,0.1c0,0,0,0,0,0c0.1,0.2,0.3,0.4,0.4,0.6C284.4,298,284.1,298,283.7,298z M286.1,299.1   c0-0.5,0-1,0.1-1c-0.3,0.1-0.5-0.3-0.7-0.1c0.2-0.3,0,0,0.7,0C286.3,298,286.2,298.6,286.1,299.1z M286.7,297.9   c0.2,0.3,0.4,0.5,0.7,0.8C287.2,298.5,286.9,298.2,286.7,297.9z M288.9,297.8c-0.3-0.2,0.1-0.2,0.1-0.5c0.1,0.2,0.1,0.2,0.2,0.2   C289.1,297.6,289.1,297.7,288.9,297.8z M290.7,297.3c0-0.3,0-0.6,0-0.9c0.1,0.1,0.2,0.2,0.4,0.2   C290.9,296.9,290.8,297.1,290.7,297.3z M292.9,295c-0.1-0.1-0.2-0.2-0.2-0.3C292.7,294.8,292.8,294.9,292.9,295z M295.8,298.5   c0.5,0,0.7-0.2,1.1,0.4C296,298.9,296.1,299,295.8,298.5z M297.5,294.2C297.5,294.2,297.5,294.2,297.5,294.2   C297.5,294.2,297.5,294.2,297.5,294.2C297.5,294.2,297.5,294.2,297.5,294.2z M297,298.3c0.1,0,0.2,0,0.3-0.1   C297.4,298.2,297.3,298.2,297,298.3z M298,297c0.2,0,0.6,0,0.7-0.2c0.4,0.4,0.5,0.4,0.5,0.9C298.7,297.6,298.6,297.5,298,297z    M301.7,298.2c1.2-0.7-0.4-0.8-1.2-1.2c0,0,0,0,0.1-0.1c0.8,0.1,1.8,0.1,2.7,0.2c-0.1,0.7-0.1,0,0.2,0.9   C302.7,298.2,302.3,298.3,301.7,298.2z M305.2,298.8C305.2,298.8,305.2,298.8,305.2,298.8C305.2,298.8,305.2,298.8,305.2,298.8   C305.2,298.8,305.2,298.8,305.2,298.8z M310.9,299.2C310.7,299.7,310,298.8,310.9,299.2L310.9,299.2z M309.5,297.3   c0.3,0.1,0.7,0.1,1,0.2C309.5,297.3,309.2,297.3,309.5,297.3z M307.4,297.2c-0.2,0.1-0.4,0.3-0.6,0.5c0.3-0.4,0.3-0.6-0.1-0.5   c0.2-0.1,0.3-0.2,0.5-0.3c-0.1,0.1-0.1,0.2-0.2,0.3C307.1,297.2,307.2,297.2,307.4,297.2z M313.9,300.7c0-0.5,0-0.6-0.1-0.8   c0,0,0,0,0,0C313.9,300.2,314,300.4,313.9,300.7z M314.7,296.4c0.1,0,0.3,0,0.4,0.1c-0.4-0.1-0.8-0.1-1.2-0.1   C314.3,296.3,314.5,296.3,314.7,296.4z M314.8,297.8c0.1,0,0.3,0,0.4,0.1C315.2,297.8,315,297.8,314.8,297.8c0.3,0,0.5,0.1,0.7,0.1   C315.5,298.2,315.3,297.9,314.8,297.8z M315.8,298.4C315.8,298.6,315.8,298.4,315.8,298.4L315.8,298.4z M315.9,298   c0.2,0,0.4,0.1,0.6,0.1C316.3,298.2,316.2,298.2,315.9,298z M316.4,298.1c0-0.1,0-0.1,0-0.2C316.5,298,316.5,298,316.4,298.1z    M326.6,300.8c-0.8-0.3-1.3-1.1-2-1.6c1.2-0.1,2.7,0.6,3.8,0.9c-0.1,0.2,0,0.5,0.2,0.6C327.9,301.3,326.5,299.4,326.6,300.8z    M329,300.8C329,300.8,329,300.8,329,300.8c0,0-0.1,0-0.2,0c0.1,0,0.2-0.1,0.3-0.1C329.1,300.7,329,300.8,329,300.8z M331.9,300   c0-0.1,0-0.1,0-0.2c0.4,0.1,0.6,0.1,0.8,0.2C332.4,299.9,332.1,299.9,331.9,300z M322.4,299.2c-1.4,0-2,0-3.3-0.8   c0.7,0,1.3,0.1,1.8,0.5c0.1,0,1.4-0.2,1.7-0.1C322.8,298.8,322.4,299.1,322.4,299.2z M323.5,299.3   C323.5,299.3,323.5,299.3,323.5,299.3C323.5,299.3,323.5,299.3,323.5,299.3z M323.4,299.3C323.4,299.3,323.4,299.3,323.4,299.3   C323.4,299.3,323.4,299.3,323.4,299.3z M328.7,301.8c0.2,0,0.3,0.1,0.5,0.2C329,301.9,328.9,301.8,328.7,301.8z M333.7,302.1   c0.1,0,0.1,0,0.2,0.1c0.2,0.1,0.5,0.2,0.7,0.3C334.3,302.4,334,302.2,333.7,302.1z M332.4,301.8c0.3,0.1,0.5,0.1,0.8,0.2   C332.9,301.9,332.7,301.8,332.4,301.8z M345.9,306.2C345.9,306.2,345.9,306.2,345.9,306.2C345.9,306.2,345.9,306.2,345.9,306.2   c0,0-0.1,0-0.2,0C345.8,306.2,345.8,306.2,345.9,306.2z M338.3,303.8C338.3,303.8,338.3,303.8,338.3,303.8   C338.3,303.8,338.3,303.8,338.3,303.8z M341,306.3c0.2-0.1,2.4,0.1,3.5,0.8C343.5,306.9,341.1,306.3,341,306.3z M351.8,309.1   c0.1,0.1,0.2,0.1,0.3,0.2C352,309.2,351.9,309.1,351.8,309.1z M358.6,313.5c-0.2,0.1-0.4,0.2-0.6,0.2   C358,313.7,358.3,313.6,358.6,313.5z M375.6,321c0.9,0.7,1.7,1.4,2.6,2.1c-2-1.6-4-3.1-6.1-4.6C373.3,319.3,374.5,320.1,375.6,321z    M364.3,315.3c-0.6,0.2-0.9,0-1-0.7c0.8,1.5,0.4,0.2,1.3,0.9C364.6,315.3,364.5,315.3,364.3,315.3z M364.8,315.5   c0.2,0.3,1.3,1,1.9,1.5C365.8,316.6,365.3,316.3,364.8,315.5z M367.7,318.4c-0.1-0.1-0.3-0.3-0.4-0.4c0.2,0.3,0.5,0.5,0.7,0.7   C367.9,318.6,367.8,318.5,367.7,318.4z M368,318.2c-0.3-0.3-0.6-0.6-0.8-0.9c0,0,0-0.1,0-0.1c-0.1,0-0.1,0-0.1-0.1   c-0.3-0.4-0.6-0.8-1.2-1.1c-1.2-0.7-1.6-1.3-2.4-2.3c2,1,4.2,2.4,5.9,3.7c0.9,0.6,1.7,1.2,2.6,1.8C370.9,319.1,368.8,317,368,318.2   z M373.5,321.5c0.1,0.1,0.3,0.2,0.4,0.3c0,0,0.1,0.1,0.1,0.1C373.7,321.7,373.4,321.4,373.5,321.5z M377.7,324.6   C377.6,324.6,377.6,324.6,377.7,324.6C377.6,324.5,377.6,324.5,377.7,324.6C377.7,324.6,377.7,324.6,377.7,324.6z M381,326.8   C381,326.8,381,326.8,381,326.8C381,326.8,381,326.8,381,326.8C381,326.8,381,326.8,381,326.8z M381,326.8   C381,326.8,381,326.8,381,326.8C381,326.8,381,326.8,381,326.8C381,326.8,381,326.8,381,326.8z M383.5,330.5   C383.5,330.4,383.5,330.4,383.5,330.5C383.5,330.4,383.5,330.4,383.5,330.5z M383.5,330.8C383.5,330.8,383.5,330.8,383.5,330.8   C383.5,330.8,383.5,330.8,383.5,330.8z M383.2,331.4C383.2,331.4,383.3,331.4,383.2,331.4C383.3,331.4,383.2,331.4,383.2,331.4z"/>
	<path class="st0" d="M394.6,337.8C394.7,337.8,394.3,337.5,394.6,337.8L394.6,337.8z"/>
	<path class="st0" d="M251,307.6c-0.1,0.3-0.2,0.5-0.3,0.8C251.1,308,251.5,309.2,251,307.6z"/>
	<path class="st0" d="M278.8,300.9c0.2-0.2,0.1-0.6,0-0.7C278.5,300.6,278,301.5,278.8,300.9z"/>
	<path class="st0" d="M278.8,300.2C278.8,300.2,278.8,300.2,278.8,300.2C279,300,279,299.9,278.8,300.2z"/>
	<path class="st0" d="M296.1,293.2C296.1,293.2,296.1,293.2,296.1,293.2c-0.2,0.1-0.4,0-0.5,0.2c0,0,0,0,0,0c0,0,0,0.1,0,0.1   c0.4,0,0.7,0,1.1,0C296.8,293.3,296.4,293.2,296.1,293.2z"/>
	<path class="st0" d="M263.6,303c0.3,0.2,0.6,0.3,0.9,0.5C265.1,303.2,264.4,303,263.6,303z"/>
	<path class="st0" d="M305.7,300.3C305.4,300,306.6,300.8,305.7,300.3L305.7,300.3z"/>
	<path class="st0" d="M342.9,304.4c1.1,0.6,1.2-0.2,2.1-0.5c0.4,2.5,1.4,1.3,3.1,1.5c0.1,0,0.2,0.1,0.3,0.1c-0.5-0.3-1.2,0-1.7,0.2   c0.3,0.2,1,0.4,1.4,0.5c0.5-0.1,1.1-0.4,1.5-0.7c-1.4-0.4-5.3-2.9-6.4-1.9C343.7,304,343.5,304.2,342.9,304.4z M348.4,305.6   C348.4,305.6,348.4,305.6,348.4,305.6C348.4,305.6,348.4,305.6,348.4,305.6C348.4,305.6,348.4,305.6,348.4,305.6z"/>
	<path class="st0" d="M179.8,460.2C179.8,460.2,179.7,460.2,179.8,460.2C179.7,460.2,179.7,460.3,179.8,460.2   C179.8,460.3,179.8,460.2,179.8,460.2z"/>
	<path class="st0" d="M223.1,522.7c-1.1-2.9,2.2-4.7-2-6.8c-2.1-1.1-0.8-0.3-1.9,0.2c0-0.4,0-0.8,0-1c-0.1,0.1-0.2,0.2-0.2,0.3   c0,0,0.1-0.1,0.1-0.1c0.1-0.1,0.1-0.1,0.1-0.2c0.1-0.8,0.1-1-1-2.2c-0.1-0.1-3.1-2.7-2.9-1.5c-0.3-0.3-0.4-0.3-0.7-0.2   c1-0.5-0.4-1.1-0.7,0.2c0.1-0.6,0.4-0.9,1-0.9c-0.8-0.9-6.5-7.5-6.9-7.1c-0.3,0.3-0.5,0.5-0.8,0.8c0.3-0.4,0.5-0.9,0.3-1.2   c0.2,0.2,0.4,0.4,0.5,0.5c0.4-0.4-0.9-1.5-1.2-1.8c-0.1,0.1-0.1,0.3,0,0.5c-0.1-0.1-0.1-0.2-0.2-0.2c-0.1,0.1-0.4,0.5-0.7,0.9   c0.3-0.7,0.4-1.3,0.1-1.6c-1.8-1.9-3.2-4.1-4.8-6.1c1.8,2.3,3.5,4.7,5.5,6.8c0.3-0.4-5.2-7-5.8-7.8c-1.8-2.4-3.2-5.7-5.7-7   c0.3,0.1,0.6,0.1,0.8-0.1c-0.1-0.1-0.2-0.2-0.3-0.3c0,0,0.1,0,0.1,0c-1.1-1.7-2.1-3.5-3.1-5.2c0.1,1-0.6,2.2-1.4,1.9   c0,0,0-0.1,0-0.2c1.2,0.5,1.6-1.5,0.5-2.6c0.2,0.1,0.4,0.2,0.5,0.2c-0.4-0.8-0.9-1.6-1.3-2.4c-0.2-0.4-0.3-0.3-0.4,0.3   c0-2.8-2.7-6.5-3.8-9.1c-1.2-2.8-2.2-5.7-3.4-8.6c-0.1,0.1-0.2,0.1-0.4,0.2c0.2-0.2,0.3-0.5,0.1-0.8c-0.4-0.8-0.7-0.9-1.4-0.1   c0,0-0.1-1.5-0.3-0.8c0,0,0-0.1,0-0.1c0,0,0,0,0-0.1c0.1-0.3,0.3-0.4,0.5-0.6c0,0,0,0,0,0c0,0,0,0,0.1-0.1c0,0,0,0,0,0   c0.2-0.2,0.3-0.6,0.2-1.3c-0.1-0.8-0.3-1.6-0.8-1.4c0.1,0.2,0.2,0.6,0.4,1.2c0.1,0.4,0.2,0.7,0.3,1.1c0.1,0.5-0.5-1.6-0.7-2.3   c-0.1,0-0.2,0.1-0.3,0.2c-0.1-0.1,0-0.3,0.1-0.4c-0.1,0.1,0,0.3-0.1,0.4c0.1-0.1,0.2-0.2,0.2-0.3c0,0,0,0.1,0,0.1c0,0,0,0,0,0   c0,0,0-0.1,0-0.1c0,0,0.1-0.1,0.1-0.1c-0.1,0-0.1,0-0.1,0c0-0.1,0,0,0,0c0,0,0,0,0,0c0,0,0,0,0,0c0,0,0,0,0,0c0,0,0,0,0,0   c-0.1,0.1-0.3,0.2-0.4,0.3c0-0.9,0.3-3.2-1.1-2.1c-0.3-0.5,0.1-0.7-0.6-0.7c0.1-0.1,0.1-0.1,0.1-0.2c0,0.1,0.1,0.2,0.3,0.2   c-0.1-0.2-0.2-0.2-0.2-0.2c0.4-0.5,0-0.7-0.7-0.6c0.1-0.1,0.2-0.1,0.3-0.2c-0.1,0.1-0.2,0.1-0.3,0.2c-0.7,0.1-1.6,0.6-2,1.3   c0.4-0.1,0.7-0.3,1-0.5c-0.2,0.1-0.3,0.2-0.5,0.4c0,0,0,0,0,0c-0.1,0.1-0.2,0.1-0.2,0.2c0.4-0.5-0.6,0-0.5,0.6c0,0.3,0,0.5-0.1,0.7   c0.3-0.1,0.4-0.4,0.4-0.8c0,0,0.1,0,0.2,0c-0.1,0.1-0.2,0.2-0.2,0.3c0,0.1-0.3,0.8-0.5,1.1c0,0,0,0-0.1,0.1c0,0-0.1,0.1-0.1,0.1   c0,0,0.1-0.1,0.1-0.1c-0.1,0.2-0.2,0.3-0.2,0.3c0,0,0,0,0,0.1c0,0,0,0,0,0c0-0.4-0.4-0.3-0.3,0.2c0,0.6,0.8,0.5,1,0.3   c-0.1-0.1-0.1-0.1-0.2-0.2c0.7-0.5,1.9-2,2-2.3c0.3,1.8-1.4,2.8,0.2,4.2c0,0,0,0,0,0c0,0,0-0.1-0.1-0.1c0,0,0,0.1,0,0.1   c-1.2-0.1-1.3,1.7-0.9,2.4c-0.1,0.1-0.2,0.1-0.3,0.2c-0.2,0.1-0.4,0.2-0.4,0.3c0,0,0.1-0.1,0.2-0.1c-0.1,0.1-0.2,0.2-0.1,0.3   c1,0.5,0.5,2.8,1.8,1.9c0.3,0.4,0.6,0.3,0.8,0.1c0,0.1,0,0.2-0.1,0.2c0.3-0.5,0.5-1,0.7-1.6c0.3,0,0.7-0.1,1.1-0.3   c-0.7,0.5-1.1,0.9-1.5,2.5c-0.2,0.6-0.5,1.1-0.6,1.8c0-0.1,0-0.2,0-0.3c-0.5,0.6,0.1,2.3,0.4,2.9c0.8,1.6,1.2,3.3,1.6,4.8   c0.2,0.6-0.1,1.2,0.2,1.9c1.2,2.6,0.7,0.2,1.2,0.8c0.5,0.8,1,2,1.4,2.9c1.1,2.3,1.4,4.1,2.6,6.2c0.5,0.8,1.7,2.2,2.2,3.1   c-0.4,0,0.5,0.7,0.5,1.2c0.1-0.1,0.1-0.2,0.1-0.3c0.8,1.2,1.8,2.6,2.6,4c0.3,0.5-0.1,1,0.2,1.2c0.2,0.2,0.6,0.2,1.1,0.1   c-0.3,0.1-0.6,0.2-0.8,0.2c0.4,0.6,0.7,0.7,1.1,0.9c-0.1,0-0.2,0-0.3,0c2.4,2.6,4.4,5.8,6.7,8.6c-0.1-0.3,0-0.6,0-0.9   c0,1.2,1.4,2.8,1.7-0.8c-0.8-0.3-1.2-0.2-1.4,0.1c0.1-0.2,0.2-0.4,0.4-0.5c0.3,0.2,0.6,0.3,1,0.3c0,0,0.1,0.1,0.1,0.1   c0.6,0.9-0.1,2.3-1.1,2.4c0.5,0.7,1.1,1.3,1.7,1.9c0,0,0.1-0.1,0.1-0.2c0,0.1,0,0.2,0,0.3c1,1.1,1.3,1.7,2.8,1.8   c-1,1.4,6.2,7.3,8,8.8c1.8,1.6,3.5,4.2,6,2.7c0.3,1.1-1,1-0.3,2c1,1.4,1.5-0.1,2.5-0.5c-0.1,1.8,0.9,1.1,1.2,1.3   c0,0,1.6,1.2,1.3,1.1C227.3,525,225.6,518.4,223.1,522.7z M177,454.4C177,454.7,177,454.5,177,454.4L177,454.4z M176.3,456.5   C176.3,456.7,176.3,456.5,176.3,456.5L176.3,456.5z M179.3,459.4c0,0,0.1-0.1,0.1-0.1C179.4,459.3,179.4,459.3,179.3,459.4   C179.4,459.4,179.3,459.4,179.3,459.4C179.3,459.4,179.3,459.4,179.3,459.4z M179.2,458.6C179.2,458.6,179.2,458.6,179.2,458.6   c0-0.1,0.1-0.1,0.1-0.1c0,0,0,0.1,0,0.2C179.3,458.7,179.3,458.7,179.2,458.6z M177.7,455.9c0.1-0.2,0.3-0.4,0.4-0.6c0,0,0,0,0,0   C178,455.5,177.8,455.7,177.7,455.9z M178.6,457.5c0-0.4,0,0,0.3,0.1C178.8,457.6,178.7,457.5,178.6,457.5z M178.9,460.6   c0.3-0.1,0.6-0.3,0.8-0.4c0-0.1,0-0.6-0.1-0.8c0.1,0,0.3-0.1,0.3-0.1c-0.1-0.2-0.2-0.2-0.2-0.2c0,0,0,0,0,0c0,0,0,0,0,0   c0.1,0,0.2,0.1,0.5,0.4c0,0,0,0-0.1,0c0,0.1,0.1,0.2,0.1,0.3c0,0,0-0.1-0.1-0.1c0,0.3-0.1,0.5-0.4,0.7c0.3-0.1,0.5-0.1,0.6,0   c0.2,0.2,0.2,0.4,0.2,0.8c0-0.1,0-0.3-0.1-0.3C180.2,460.3,179.6,460.4,178.9,460.6z M179.6,460.7c0.1-0.1,0.3-0.2,0.4-0.2   C179.8,460.8,179.7,460.9,179.6,460.7z M180.7,462c0.1-0.5,0.1-1.1-0.1-1.6C180.9,461,181.1,461.5,180.7,462z M180.1,465.7   C180.1,465.8,180.1,465.7,180.1,465.7L180.1,465.7z M179.8,467C179.8,467,179.8,467.1,179.8,467c0,0.2-0.1,0.2,0.1-0.1   c-0.1,0.1-0.1,0.2-0.2,0.3c0,0,0-0.1,0-0.1C179.8,467.1,179.8,467.1,179.8,467z M179.9,467.6c0-0.1,0-0.2-0.1-0.3   c0,0.1,0.1,0.2,0.2,0.1C179.9,467.5,179.9,467.6,179.9,467.6C179.9,467.6,179.9,467.6,179.9,467.6z M184.2,469.1   c0.3,0.6,0.2,0.8-0.4,1.1C183.6,469.8,183.7,469.4,184.2,469.1z M182.4,475.1c-0.1-0.4-0.3-0.8-0.4-1.3   C182,473.4,182.1,473.8,182.4,475.1z M185.3,475.1c-0.2,0.5-1.6-0.1-1.5-0.6C183.9,473.5,185.6,474,185.3,475.1z M186,483.3   C186,483.3,185.9,483.2,186,483.3L186,483.3z M191.3,483.1c-0.1-0.2-0.2-0.6-0.3-1C191.3,482.6,191.5,483.1,191.3,483.1z    M190.5,480c-0.2,0-0.3,0-0.4,0C190.2,479.9,190.3,479.9,190.5,480z M189.7,480.3c0.1,0.3,0.4,0.7,0.7,1   C190,481.1,189.4,480.8,189.7,480.3z M194.3,486.2c-0.4,0-0.7,0.1-0.9,0.3C193.7,486.2,194,486.1,194.3,486.2z M195.5,496.1   C195.5,496.1,195.4,496.1,195.5,496.1c0.2-0.3,0.5-0.6,0.6-0.7C196,495.6,195.8,496,195.5,496.1z M196.4,495.7   c0.2-0.5,0.1-0.8-0.2-1C196.5,494.8,196.6,495.1,196.4,495.7z M214,516.8c0.1-0.2,0.1,0.3-0.2,0.6C213.9,517.2,214,517,214,516.8z    M219.5,522C219.5,522,219.5,522,219.5,522c0.1-0.1,0.2-0.3,0.3-0.5C219.8,521.7,219.6,521.8,219.5,522z M220.3,521.4   c0-0.1-0.1-0.2-0.1-0.2c0,0.2,0.1,0.4,0.2,0.6C220.4,521.7,220.4,521.6,220.3,521.4z M221.6,522c-0.1,0-0.1,0-0.2,0   c0,0,0,0.1-0.1,0.1c0,0,0,0-0.1,0c0,0,0,0,0-0.1c0,0,0,0,0,0c0,0,0,0,0.1-0.1c-0.1,0-0.1,0-0.2,0c0,0-0.1,0-0.1,0   c-0.1,0-0.2,0-0.1,0c-0.1,0-0.1,0.1-0.2,0.1c0-0.1,0-0.1-0.1-0.1c0,0,0,0,0,0c0,0,0,0,0,0c0,0,0,0,0,0c0.1,0,0.1-0.2-0.2-0.6   c-0.3-0.7,0.1-0.8,0.7-1.3c0.6,1.6-0.9,1.3,0.6,2.1C221.8,522,221.7,522,221.6,522z M223.2,523.5   C223.2,523.7,223.2,523.5,223.2,523.5L223.2,523.5z"/>
	<polygon class="st0" points="219.2,515.1 219.2,515.1 219.2,515.1  "/>
	<path class="st0" d="M219.4,514.7C219.4,514.7,219.4,514.7,219.4,514.7C219.4,514.8,219.4,514.8,219.4,514.7z"/>
	<path class="st0" d="M197.2,500.8C197.3,501,197.2,500.9,197.2,500.8L197.2,500.8z"/>
	<polygon class="st0" points="221.5,522 221.5,522 221.5,522  "/>
	<path class="st0" d="M180.9,453.7C181.8,454.2,180.2,453.3,180.9,453.7L180.9,453.7z"/>
	<path class="st0" d="M205.5,509.3c-0.4,0-0.8-0.1-1.1-0.1C204.8,510.1,205.2,510.1,205.5,509.3z"/>
	<path class="st0" d="M378.4,518.7c-0.3-0.1-0.7-0.1-1-0.2C377.5,518.5,378.3,519,378.4,518.7z"/>
	<path class="st0" d="M341.6,538.9c2.6,0.7,3.1-3.8,3.4-3.9C344.2,535.3,337.9,537.9,341.6,538.9z"/>
	<path class="st0" d="M380,516.1c-0.1-1.5,0-2.2-2.3-0.4c0.1,0,0.7,0.2,1.2,0.4c-1.2-0.1-2.7-0.1-2.6,0.8c-0.2-0.1-0.6,0.1-1,0.7   c0.5,0.2,0.9,0.2,1.4,0c-1.1,0.5-1.6,0.1-2.7,1c-1.2,0.9-1.4,1.5-1.5,2.6c0-0.5,0.1-1,0.2-1.6c-1.1,0.8-1.4,1.3-1.5,2   c0-0.4,0-0.8,0-0.9c-0.1,0.1-0.2,0.1-0.2,0.2c0,0,0-0.1,0-0.1c-3.5,2.6-7.2,5-11.1,7c-1.9,1-3.9,2-5.9,2.9c-1.4,0.7-5,1.6-5.5,3   c0.6-0.3,1.1-0.5,1.7-0.8c-1.5,0.7-1.4,1-2.3,2.3c0.3-0.5,0.5-1,0.6-1.5c-0.2,0.1-0.7,0.4-0.9,0.7c0-0.1,0.1-0.2,0.1-0.4   c0,0,0,0,0,0c0,0,0-0.1,0.1-0.1c0,0,0,0.1,0,0.1c0.2-0.1,0.5-0.2,0.7-0.4c0.3-0.9-0.3-0.2-0.6,0.2c0-0.1,0.1-0.2,0.1-0.3   c-0.5,0.2-2,0.7-2.2,1.2c0-0.1-0.1-0.2-0.3-0.1c-0.5,0.1-0.8,2.2-0.8,2.4c0.3-0.3,1.1-0.3,1.2-0.6c0,0,0-0.2,0-0.4   c0,0.1,0,0.2,0.1,0.3c-0.1,0.1,3.9-1.4,3.9-1.4c0.6,1.1,6.5-2,6.9-3c1.2,0.5,3.2-0.8,3.4-1.7c1.6,0.5,3.7-1.8,4.7-2.5   c0.7-0.5,1.6-0.8,2.3-1.2c1.3-0.8,3-1.7,4.3-2.7c0.7-0.6,3.7-2.3,3.9-2.9c0,0,0,0,0,0c0,0,0-0.1,0-0.1c0-0.6,3.1-1.8,2.1-2.5   c1.5,0.1,2.9-0.2,2.9-2.3C380.2,516.2,380.1,516.2,380,516.1C380,516.2,380,516.1,380,516.1z M345.8,535.6c0-0.3-0.1-0.5-0.1-0.5   c0,0,0,0,0.1-0.1c0,0,0,0,0,0c0.2-0.1,0.4-0.2,0.6-0.2C346,535,345.8,535.3,345.8,535.6z M364.4,527.4   C364.4,527.6,364.4,527.6,364.4,527.4L364.4,527.4z M375,521c-0.1-0.1-0.2-0.3-0.3-0.4C374.8,520.7,374.9,520.9,375,521z    M367.3,526.1C367.3,526.2,367.3,526.2,367.3,526.1C367.3,526.1,367.3,526.1,367.3,526.1z M369.6,524.3   C369.6,524.3,369.6,524.3,369.6,524.3C369.6,524.3,369.6,524.3,369.6,524.3z M371.1,523.8C371.1,523.7,371.1,523.7,371.1,523.8   c-0.2,0.1-0.4,0.1-0.6,0.2C370.7,523.9,370.9,523.8,371.1,523.8c-0.3-0.4-0.5-0.9-0.5-1.5C370.7,522.9,370.9,523.5,371.1,523.8   c0,0,0-0.1,0-0.1C371.2,523.7,371.2,523.7,371.1,523.8c0.1-0.1,0.2-0.1,0.2-0.1C371.3,523.7,371.2,523.7,371.1,523.8z M372.6,522.4   c-0.2,0.3-0.4,0.6-0.6,0.8C372.1,522.9,372.3,522.6,372.6,522.4z M374,521.5C374,521.5,374,521.5,374,521.5   C374,521.5,374,521.5,374,521.5c-0.5,0.2-0.9,0.4-1.4,0.7c0.1-0.1,0.3-0.2,0.5-0.3c0.1,0,0.1-0.1,0.2-0.1   C373.6,521.7,373.8,521.6,374,521.5c-0.2,0.1-0.3,0.1-0.5,0.2c0.5-0.2,1-0.4,1.4-0.7c0,0.1,0,0.1-0.1,0.2   C374.6,521.3,374.3,521.4,374,521.5z M378.6,517.7C378.6,517.7,378.6,517.7,378.6,517.7C378.6,517.7,378.6,517.7,378.6,517.7z    M377.3,518.4C377.3,518.4,377.3,518.4,377.3,518.4c-0.1,0.1-0.1,0.2-0.1,0.4C377.2,518.7,377.3,518.6,377.3,518.4z"/>
	<path class="st0" d="M377.7,515.7C377.7,515.7,377.7,515.7,377.7,515.7C377.7,515.7,377.7,515.7,377.7,515.7z"/>
	<path class="st0" d="M396.5,496.5c-1.7,0.8-3.5,4.3-4.8,5.8c-0.5,0.6-1.6,1.7-2.4,2.8c0-0.1,0-0.2,0.1-0.4c-1.3,1.3-2.6,2.6-3.8,4   c-0.5,0.6-2.8,2.8-1.4,3.2c0.7,0.2,3-2.6,3.4-3c0.5-0.4,0.8-0.8,1-1.1c-0.1,0-0.1,0-0.2,0c0,0,0.1,0,0.1,0c0,0,0.1,0,0.1,0   c0,0,0,0,0,0c0,0,0,0,0,0c0,0,0,0,0,0c0,0,0,0,0,0c0,0,0,0,0,0c0,0.2,0.1,0.3,0.2,0.5c-0.2-0.3,2.7,0.5,0.1-0.5   c0.9,0.3,1-0.1,1.7-0.4c-0.9-0.2-0.7-1.7-0.9-2.3c0.7,2.4,0.4,2.5,2.1,1.1c0.4-0.3,2.1-1.7,2.2-2.1c0-0.1,0.1-0.2,0.1-0.4   c0,0.1,0.1,0.2,0.1,0.3c0.2-0.2,0.3-1.5,0.3-2.5C395.3,500.5,399.6,495,396.5,496.5z M388,508c0.1-0.1,0.1-0.1,0.2-0.2   C388.2,507.9,388.1,508,388,508z M394.3,500.7C394.3,500.7,394.3,500.6,394.3,500.7C394.3,500.6,394.3,500.7,394.3,500.7z"/>
	<path class="st0" d="M311.3,546.8C311.6,547,311.2,546.7,311.3,546.8L311.3,546.8z"/>
	<path class="st0" d="M205.2,341.6c0,3.1,4.1-0.4,2-1.5c0.9-0.8,1.2-1.9,1.8-2.6c0.7,2.3,2.8,0.4,2.1-0.7c-0.3,0.2-0.7-0.1-0.9,0.5   c-0.7-1.1-2.5-0.7-3.1-0.1c-0.6,0.5-0.1,1.3-0.8,1.9C205.2,337.9,203.8,342,205.2,341.6z M208.6,337C208.5,337,208.5,337,208.6,337   C208.5,337,208.5,337,208.6,337C208.5,337,208.5,337,208.6,337z M207.2,337.5C207.1,337.9,207.2,337.6,207.2,337.5L207.2,337.5z    M206,339.2c-0.1-0.1-0.1-0.2-0.2-0.3C205.8,338.9,205.9,339,206,339.2z M205.8,338.9c-0.1,0.2-0.2,0.5-0.2,0.7   C205.6,339.1,205.6,338.8,205.8,338.9z"/>
	<path class="st0" d="M188.4,363.7c1.2-0.3,1.2-0.9,1.5-1.9c0.3-1.3-0.5-3.2-0.8-4.4c0.1,0.3,0.9-2.7-0.5-2   c-0.3,0.2-0.2,0.6-0.4,0.8c-0.4,0.6-0.4,1.4-0.2,2.1c-0.4,0-0.8-0.1-0.8,0.4c0,0.6,0.5,1.5,0.6,2.1c0,0.9-0.6,1.7-0.6,2.6   C187,364.1,188.1,363.8,188.4,363.7z M188.6,355.8C188.6,355.8,188.6,355.8,188.6,355.8C188.6,355.8,188.6,355.8,188.6,355.8   C188.6,355.8,188.6,355.8,188.6,355.8z"/>
	<path class="st0" d="M422.2,442.5C422.2,442.5,422.2,442.6,422.2,442.5c-0.1-1.1-0.2-1.6-0.5-1.6c0.2-0.1,0.3-0.2,0-0.2   c-0.3,0-0.5,0.1-0.6,0.4c0.2,0,0.3-0.1,0.4-0.1c-0.6,0.4-1.2,3.5-1.1,3.5c0,0,0,0,0,0c0,0.1,0,0.1-0.1,0.2c0-0.1,0-0.1,0-0.2   c-0.6-0.1-0.9,2.9-1.1,3.6c0.1-0.1,0.3-0.1,0.4-0.1c-0.1,0-0.2,0-0.4,0.1c-0.1,0.5-0.6,1.8-0.4,2.2c0.7,1.4,1.5-1.1,1.2-2   c0.1-0.1,0.2-0.3,0.6-0.3c0,0.4,0.1,0.7-0.1,1.1c0.1,0.2,0.2,0.2,0.2,0.2c0,0,0,0,0,0c0,0,0,0,0,0c0,0,0,0,0,0c0,0,0,0,0,0   c0,0,0,0,0,0c0,0,0,0,0,0c-0.1,0.3-0.5,1.3-0.4,1.8c-0.1-0.1-0.1-0.1,0,0c0,0.1,0,0.2,0.1,0.3c-0.5,0-0.9,0.5-0.6,0.6   c0,0-0.1,0-0.1,0.1c0.6,2.4,1.9,0.4,1.2-0.3c0,0,0,0,0,0c0-0.1,0-0.1-0.1-0.2c0.1,0,0.2,0,0.3-0.1c0.4-0.1,1.1-3.5,1.1-4   c0-0.3,0.2-2.2,0.4-2.2c0,0,0,0,0,0c0,0,0.1,0.1,0.1,0.1c0,0-0.1-0.1-0.1-0.1C423.2,445.3,422.9,443.1,422.2,442.5z M421.1,446.8   c0-0.5-0.1-1,0.4-1.3c0.2,0.2,0.2,0.6,0.5,0.9C421.7,446.3,421.4,446.5,421.1,446.8z M421.5,444.5c-0.1-0.2,0-0.6,0-0.9   C421.5,443.9,421.4,444.3,421.5,444.5z M421.1,448.1c0-0.1,0-0.2,0-0.3c0,0.2,0,0.4,0,0.5C421.1,448.2,421.1,448.1,421.1,448.1z    M422,444.5c0,0.1,0.1,0.1,0.1,0.2C422.1,444.6,422,444.5,422,444.5z M421.9,444.3c0,0.1,0.1,0.1,0.1,0.2   C422,444.4,421.9,444.4,421.9,444.3z M421.9,441.6c0-0.2,0-0.5-0.1-0.5C422,441.1,422,441.3,421.9,441.6z M421.6,441   c0,0,0.1,0,0.1,0c-0.1,0-0.2,0-0.3,0.2C421.5,441.1,421.6,441.1,421.6,441z M420.7,450.1C420.7,450.1,420.7,449.8,420.7,450.1   L420.7,450.1z M420.8,451.9C420.8,451.9,420.8,451.9,420.8,451.9C420.8,451.9,420.8,451.9,420.8,451.9   C420.8,451.9,420.8,451.9,420.8,451.9C420.8,451.9,420.8,451.9,420.8,451.9z M422,447.8c0-0.2-0.8,0.7-0.5,1.7   c-0.3-1.1,0.5-1.7,0.5-2.3c0,0.2-0.1,0.3,0,0.3C422,447.7,422,447.7,422,447.8z"/>
	<path class="st0" d="M171,425.2c0,2.8,1.8,1,2.2-0.2c0.1-0.2,0.5-3.5,0-3.9C171.3,419.9,171,424.1,171,425.2z"/>
	<path class="st0" d="M174.8,425.2c-0.2,0.2-1,2.7-0.8,3.1c0.4,1.1,1.1,1.2,1.8,1.7C176.2,430.9,177.6,422.8,174.8,425.2z    M174.5,426.5C174.5,426.9,174.5,426.6,174.5,426.5L174.5,426.5z"/>
	<path class="st0" d="M190.9,358c0.3,0.2,0.6,0.4,0.9,0.6c0.8,0.5,3,2.6,2.9,0.1c0-1.1-1.9-2-2.5-2.2c-0.4-0.2-1.1-1.8-1.3-1.8   c-0.5,0-1.2,2.7-0.9,3.1C189.8,357.7,190.9,358,190.9,358z M194.3,358.7C194.3,358.7,194.3,359,194.3,358.7L194.3,358.7z"/>
	<path class="st0" d="M176.4,421.3c-0.5-0.4-0.8-0.9-1-1.5C175.2,420.7,175.1,422,176.4,421.3z"/>
	<path class="st0" d="M176.5,419.1c0-0.1,0-0.1-0.1-0.2c0,0,0,0,0,0c0.1,0.1,0.2,0.1,0.3,0c-0.1-0.3-0.1-0.5-0.3-0.6c0,0,0,0,0-0.1   c-0.2,0-0.3,0.1-0.3,0.1c0,0,0,0,0-0.1c0,0,0-0.1,0-0.1c0.2,0.3-0.1-2.8-1.4-1.3c-0.4,0.6-0.5,1.2-0.2,1.8c0,0.2,0.7-0.2,0.9-0.8   c-0.1,0.3-0.3,0.7-0.6,1c0.2,0,0.4,0,0.5-0.1c0,0.2,0,0.3,0,0.5c0.2-0.1,0.3-0.2,0.3-0.4c0-0.1-0.1-0.2-0.2-0.3   c0.1,0.1,0.1,0.2,0.2,0.3c0,0,0,0,0,0c0,0,0,0.1,0,0.1c0,0,0,0.1,0,0.2C175.8,420.7,177.6,422,176.5,419.1z"/>
	<path class="st0" d="M422.6,433.5c1.7,0.1,2.8-3.1,1.6-4.1C422.8,428.2,421.4,433.5,422.6,433.5z"/>
	<path class="st0" d="M228.7,528c1.1,2.8,1.7-1.1,1.6-1.9C230.2,521.6,227.9,526.1,228.7,528z M229.9,528   C229.9,527.4,229.9,527.8,229.9,528L229.9,528z M229.8,526.6c0,0,0-0.1,0.1-0.1c0.1-0.1,0.1-0.2,0.2-0.2   C229.9,526.3,229.8,526.4,229.8,526.6z M230.2,525.5C230.2,525.5,230.2,525.8,230.2,525.5L230.2,525.5z"/>
	<path class="st0" d="M371.6,524.9c-0.7-0.5-3.4,1.8-4,2.2c-2.8,1.8-5.7,3.8-8.8,5.2c-0.9,0.4-4.9,2.4-2.8,2.7   c0.7,0.1,2.2-1.2,2.9-1.6c4.2-2.2,8.1-4.6,12.1-7.2C371.6,525.9,372.5,525.4,371.6,524.9z M364,530.3c0.2-0.1,0.3-0.2,0.5-0.3   c-0.1,0.1-0.2,0.2-0.3,0.2C364.1,530.2,364.1,530.3,364,530.3z M364.6,529.9c0.3-0.2,0.6-0.5,0.9-0.8   C365.3,529.4,365,529.6,364.6,529.9z M370,526.5c0.3-0.2,0.6-0.4,0.9-0.5c0.3-0.2,0.5-0.3,0.8-0.5   C371.1,525.8,370.6,526.1,370,526.5z"/>
	<path class="st0" d="M243.1,537.8c0.7,0.4,1.6-2.2,1.2-2.7C243,533.2,241,536.7,243.1,537.8z"/>
	<path class="st0" d="M264.5,540.4c0.1-0.1,0.3-0.3,0.5-0.6c-0.3-0.1-0.6,0.2-0.7,0.5c0,0.1,0,0.1,0,0.1c0,0,0,0,0,0   c-0.4,1.1,0.7,1.9,1.6,1.5c0.1,0.4,0.3,1.8,0.7,1.9c1.2,0.1,0.1-2.7-0.2-3C265.5,539.7,265.4,540.1,264.5,540.4z M264.6,540.7   C264.6,540.7,264.6,540.7,264.6,540.7L264.6,540.7z"/>
	<path class="st0" d="M423.5,436.5c0.4,0.1,0.4,0,0.2-0.3c-0.1,0-0.2-0.1-0.4-0.1c0,0,0,0,0.1,0c-1.6-0.6-2.4,5.3-0.4,3.7   c0.6-0.5,0.7-0.6,0.9-1.3C424,438.3,423.8,437.2,423.5,436.5z M422.9,436.3C422.9,436.3,422.9,436.3,422.9,436.3   c0,0.1,0,0.1-0.1,0.2C422.9,436.3,422.9,436.4,422.9,436.3z M422.9,436.3C422.9,436.3,422.9,436.3,422.9,436.3   C422.9,436.3,422.9,436.2,422.9,436.3C422.9,436.2,422.9,436.2,422.9,436.3z M422.5,437.4C422.5,437.4,422.5,437.4,422.5,437.4   C422.5,437.4,422.5,437.4,422.5,437.4C422.5,437.4,422.5,437.4,422.5,437.4z"/>
	<path class="st0" d="M418.4,377.4c0.7-0.4-1.9-5.8-2.5-5.4c-0.5,0.3,0.3,1.6,0.2,1.5C416.3,373.9,417.6,377.9,418.4,377.4z"/>
	<path class="st0" d="M407.1,355.4c1.2-0.5-3.6-6.3-4-6.9c-0.8-1.1-4.4-6.3-5-5.2C397.8,343.9,407.2,355.3,407.1,355.4z    M406.4,353.7c0.3,0.4,0.5,0.9,0.7,1.3c-0.5-0.9-1.1-1.8-1.7-2.6C405.7,352.8,406.1,353.2,406.4,353.7z"/>
	<path class="st0" d="M262.7,540.4C262.7,540.3,262.7,540.3,262.7,540.4C262.7,540.3,262.7,540.3,262.7,540.4   C262.7,540.3,262.7,540.3,262.7,540.4c-0.1-0.2-0.1-0.2-0.1-0.3c-0.1-0.1-0.2-0.3-0.2-0.4c0,0,0,0-0.1,0c0,0,0,0,0,0   c0.4,0.3-0.4-1-0.9,0c-0.2,0.4-0.3,1.6-0.2,1.9c0.4,0.6,1.6,2.4,2.4,1.3C263.8,542.4,262.7,540.1,262.7,540.4z"/>
	<path class="st0" d="M262.7,540.2C262.7,540.3,262.7,540.3,262.7,540.2C262.7,540.3,262.7,540.3,262.7,540.2z"/>
	<path class="st0" d="M208.4,333.7c0.2,0.1,0.5-0.1,0.6-0.2c0.6,2.4,2.5-2,1-2.2C209.8,331.3,207.5,333.4,208.4,333.7z"/>
	<path class="st0" d="M172,428.2c-1.6,0.2-0.4,2.5,0.4,2.8c0.1-0.2,0.4-0.7,0.5-1.2c0,0,0,0,0-0.1c0,0,0,0.1,0,0.1   C173.3,429,173.4,428.1,172,428.2z M171.9,428.5C171.9,428.5,171.9,428.5,171.9,428.5c0.1,0,0.1,0,0.1,0   C171.9,428.5,171.9,428.5,171.9,428.5z M172.4,428.6c0.2,0.1,0.3,0.2,0.3,0.4C172.7,428.9,172.6,428.7,172.4,428.6z"/>
	<path class="st0" d="M173,429.8C173,429.8,173,429.8,173,429.8C173,429.8,173,429.8,173,429.8z"/>
	<path class="st0" d="M171.8,431.1c0.3,0,0.5,0.3,0.6-0.1C169.6,430,171.9,431.1,171.8,431.1z"/>
	<path class="st0" d="M249,535.5c-0.8,0.6-0.6,2.3,0.6,2.1C251.7,537.1,250.2,534.5,249,535.5z M250.3,535.9   C250.3,536,250.4,536.5,250.3,535.9L250.3,535.9z"/>
	<path class="st0" d="M178.5,450.7c0,0,0-0.1,0-0.1C178.5,450.6,178.5,450.7,178.5,450.7c0.6-0.2,0.7,0.3,0.8,0.3   c0.7-0.1,1.5-2.6,0.3-2.7c-1.4-0.2-1.2,1.4-1.1,2.1c0-0.2-0.2-0.4-0.4-0.5C178,450.2,178.1,450.8,178.5,450.7z M179.9,450   C179.9,450,179.9,450,179.9,450C179.9,450.3,179.9,450.3,179.9,450z"/>
	<path class="st0" d="M182.2,378c0.2,0,0.3-0.2,0.3-0.5C182.5,377.7,182.4,377.8,182.2,378C182.3,377.9,182.3,377.9,182.2,378z"/>
	<path class="st0" d="M184.5,363.7C184.5,363.8,184.5,363.8,184.5,363.7C184.5,363.7,184.5,363.7,184.5,363.7   C184.5,363.7,184.5,363.7,184.5,363.7z"/>
	<path class="st0" d="M272,543.7c-2.5,1,0.6,3.3,1.4,1.7C273.7,544.6,272.6,543.4,272,543.7z"/>
	<path class="st0" d="M235.5,526.4c-0.4-0.3-1.4-1.5-1.8-1.3c-0.1,0-0.7,2.2-0.7,2.5c0,0.5,0.3,1.5,0.3,1.8c0.1,0.8-1.4,0.9-0.1,2.2   c1.4,1.3,0.9-1.5,0.8-1.3c0.1-0.2,0.1-0.4,0.1-0.5c0.1,0.1,0.1,0.2,0.1,0.3c-0.2,0.1-0.1,0.3,0.1,0.4c0.2-0.2,0.3-0.4,0.4-0.6   c0.4-1-0.3-0.8-0.4-1c0.3-0.2,1-1,1.1-1C235.8,529.9,239.1,529.3,235.5,526.4z M234.6,529.5c0-0.1,0-0.2-0.1-0.3   C234.5,529.3,234.6,529.4,234.6,529.5z M233.5,527.1C233.5,527.1,233.4,527.2,233.5,527.1L233.5,527.1z M234.2,530.1L234.2,530.1   C234.2,530.1,234.2,530.1,234.2,530.1L234.2,530.1z M233.6,529.2c-0.3-0.2-0.4-0.4,0.9-0.8C233.7,528.7,233.5,529,233.6,529.2z"/>
	<path class="st0" d="M424.2,443.8C424.2,443.8,424.2,443.8,424.2,443.8C424.2,443.8,424.2,443.8,424.2,443.8   C424.2,443.8,424.2,443.8,424.2,443.8z"/>
	<path class="st0" d="M424.6,443.7c0,0-0.1,0-0.1,0C424.5,443.7,424.5,443.6,424.6,443.7c-0.2-0.1-0.2-0.2-0.3-0.2c0,0,0,0,0,0   c0,0,0,0,0,0c0,0,0,0.1-0.1,0.1c0,0,0,0.1,0,0.1c0,0,0,0,0-0.1c0,0.1,0,0.1,0,0.1c0,0,0,0,0,0c-0.1,0-0.1,0.1-0.1,0.1   c0.1-0.2,0-0.1-0.2-0.3c-0.3,0.6-0.4,1.3-0.2,1.9c0.2,0.1,0.3,0.1,0.3,0.1c0.1,0.4,0.6,1.4,0.8,0.1   C425.1,444.6,425.2,444.3,424.6,443.7z M424,445.7C424,445.7,424,445.7,424,445.7c0,0,0-0.1,0-0.1c0,0.1,0.1,0.2,0.3,0.2   C424.2,445.9,424.1,445.9,424,445.7z M424.5,445.8C424.5,445.8,424.5,445.8,424.5,445.8C424.5,445.8,424.5,445.8,424.5,445.8   c0-0.1,0.1-0.2,0.1-0.2c0,0.1,0.1,0.1,0.1,0.2C424.6,445.8,424.5,445.8,424.5,445.8z"/>
	<path class="st0" d="M416,464.2C416,464.2,416,464.2,416,464.2C416,464.2,416,464.2,416,464.2c0,0.1,0.1,0.1,0.1,0.2   C416.1,464.3,416,464.3,416,464.2C416,464.3,416,464.2,416,464.2C416,464.2,416,464.2,416,464.2C416,464.2,416,464.2,416,464.2   c-0.5-0.3-0.7,0-0.8,0.9c-0.2,1.5,0.9,1.9,1.3,0.2C416.8,464.1,415.8,463.7,416,464.2z"/>
	<path class="st0" d="M186.8,369c-0.9,0.5,0.3,2.6,1.7,0.5C189.5,368.1,187.3,368.7,186.8,369z M188.2,368.8   C188.2,368.8,188.2,368.8,188.2,368.8c0.1,0.1,0.1,0.1,0.2,0.1C188.3,368.9,188.3,368.8,188.2,368.8z M188.4,369   C188.4,369,188.4,369.3,188.4,369L188.4,369z"/>
	<path class="st0" d="M178.3,403.2c-0.1,0.1-0.2,0.2-0.2,0.2c1.3-3.5,2.7-10,1.5-10.6c-1.6-0.8-1.3,2.6-1.6,3.1   c0-0.1-0.8-0.3-1.1,0.2c-1.1,1.8-0.7,4.6,1.4,2.3c0.4,1.6-0.9,1.7-1.8,2c0,0,0,0,0,0c0,0,0,0,0,0c-0.2,0.1-0.5,0.2-0.6,0.3   c-0.8,0.9-2.7,4.8-0.7,4.6c-0.2,1.3,0,2.4-0.1,3.7c-0.1,1-0.5,1.8-0.8,2.6c0,0.1-0.1,0.1-0.1,0.2c-0.1,0.4-0.2,0.8-0.1,1.2   c0.2,0.7,1-0.2,1.2-0.2c0.7,1-0.7,2.3,0,2.9c0.3,0.2,1.7-0.1,1.8-0.3c0.4-0.5-0.7-2.4-0.7-3c0.1-0.8,1.8-3.9,1.2-5   c0,0,0.1,0.1,0.1,0.1C177.9,406.2,177.9,404.4,178.3,403.2z M176.5,398.9C176.5,398.8,176.5,398.8,176.5,398.9L176.5,398.9z    M176.7,398.2c0,0.1,0,0.1-0.1,0.2c0.1-0.3,0.2-0.6,0.2-1C176.8,397.7,176.8,398,176.7,398.2z M177.8,398.4   c0.2-0.2,0.4-0.4,0.7-0.5C178.5,398.1,178.3,398.3,177.8,398.4z M175.3,411c0-0.3-0.1-0.5-0.1-0.8   C175.3,410.5,175.3,410.7,175.3,411z M174.6,404.5C174.6,404.5,174.6,404.5,174.6,404.5C174.7,404.8,174.7,404.8,174.6,404.5z    M175.7,414.7c0,0,0.1-0.1,0.1-0.1C175.8,414.6,175.7,414.7,175.7,414.7C175.7,414.7,175.7,414.7,175.7,414.7z M176.7,413.7   c0.2,0.1,0.4,0.4,0.3,0.5c0.1-0.2-0.4-0.6-0.4-0.7C176.5,413.6,176.6,413.6,176.7,413.7z M176.2,412.4c0-0.1,0.1-0.2,0.2-0.2   c0.1-0.1,0.2-0.1,0.2-0.2C176.5,412.1,176.3,412.2,176.2,412.4z M176.8,407.1c-0.1-0.3,0-1.4,0.1-1.5c0,0,0,0,0,0c0,0,0,0,0,0   c-0.1,0.1,0.3,1.2,0.6,1.7C177.4,407.1,177.1,407.1,176.8,407.1z"/>
	<path class="st0" d="M246.8,535.5c-1.2-0.5-1.6,1.3-1,2C246.6,537.8,247.6,535.8,246.8,535.5z"/>
	<path class="st0" d="M259.4,540.3c-0.4,0.3-1.4,1.1-0.8,1.6C260.1,543.4,260.5,539.5,259.4,540.3z M258.8,541.1   c0.3-0.5,0.5-0.6,0.7-0.5C259.3,540.7,259,540.9,258.8,541.1z"/>
	<path class="st0" d="M173.9,392.8c0.3-0.1,0.8-0.9,1-1.7c-0.1,0.6,0,1.2,0.4,1.4c0.1-0.1,0.1-0.2,0.2-0.3c0,0.4,0.2,0.8,0.8,0.4   c0.1,0.2,0.2,0.3,0.4,0.3c1.5,0,2.9-3.9,1.4-3.7c-0.2,0-1.3,2.2-1.3,2.7c0,0,0-0.1,0-0.1c-0.1,0.1-0.2,0.2-0.3,0.4   c-0.7-1,0.2-1.3-0.1-2.7c0.1,0.2,0.1,0.5,0.2,0.9c1.2-1.7,0.4-2.1,0.6-3.6c0.2-1.1,0.7-1.4,1.2-2.1c0.9-1.4,1.6-3,2.3-4.6   c0.7-1.6,1.2-1.7,1.7-2.2c0.1-0.3,0.2-0.5,0.3-0.8c0,0.1,0,0.3,0,0.4c0.2-0.3,0.4-0.6,0.6-1.1c0.9-2.1,1.4-4.1,2.2-6.1   c0.5-1.2,0.4-2,1.1-3.2c0.5-1,2.3-3.4,0.1-2.9c0-0.6,0.7-5.2-0.6-4.4c-0.6,0.4-1.2,2.4-1.4,3.9c0.1-0.1,0.2-0.3,0.3-0.5   c0.4-0.6-0.2,0.3-0.3,0.5c-0.1,0.7-0.1,1.3-0.1,1.6c-0.8,0.1-1.8,2.1-1.3,2.9c-1-0.5-0.3-1.7-1.4,0c-0.3,0.4-1.3,2.9-0.3,2.8   c-1,0.6-1.2,2.9-0.8,3.8c-1.4,0.3-0.8,1.1-1.2,2.1c-0.4,1-1.1,2-1.5,3.2c-0.2,0.5-0.5-0.3-0.7,0.4c-0.3,0.8-0.2,2.4-0.5,3.4   c-0.2,0.7-0.4,2-0.7,2.7c-0.3,0.7,0.1,0.6-0.6,1.3c0.1-0.5,0.8-3.3-0.5-2.1c-1.3,1.2,0.1,3.5,0.4,2.6c0,0.4-0.2,1.1-0.4,1.8   c0-0.5,0-0.9-0.4-1.1C173.6,389,173.4,392.7,173.9,392.8z M177.8,390C177.8,390.3,177.8,390.1,177.8,390L177.8,390z M176.7,392   c0,0.1,0.1,0.1,0.3-0.1c0.1-0.1,0.2-0.2,0.3-0.3c-0.4,0.4-0.5,0.5-0.6,0.8c0-0.1,0-0.2-0.1-0.1C176.7,392.2,176.7,392.1,176.7,392z    M186.6,366.1c0.1-0.2,0.3-0.4,0.6-0.6c0.1,0,0.1-0.1,0.1-0.1C187,365.6,186.8,365.8,186.6,366.1z M187,364.2   c-0.3,0.6-0.5,0.8-0.7,0.6C186.5,364.6,186.7,364.4,187,364.2z M186.3,364.8c0,0-0.1-0.1-0.1-0.2   C186.2,364.6,186.3,364.7,186.3,364.8z M184.1,371.9C184.1,372.1,184.1,372.9,184.1,371.9L184.1,371.9z M181.9,370.8   C181.9,371.1,181.9,370.8,181.9,370.8L181.9,370.8z M181.8,371.3c-0.2,0.1-0.3,0.2-0.4,0.3c0,0,0,0,0,0   C181.5,371.5,181.6,371.4,181.8,371.3z M178,384.3c-0.1,0,0.1-0.1,0.3-0.2C178.1,384.2,178,384.3,178,384.3z M175.8,390.9   c0,0,0-0.1-0.1-0.1c0,0,0,0,0,0c0.1,0.1,0.1,0.1,0.2,0.2C175.9,390.9,175.8,390.9,175.8,390.9z M176,389.6c0-0.3,0.1-0.5,0.2-0.2   C176.1,389.5,176.1,389.6,176,389.6z M175.6,391.2c0.1,0.3,0.2,0.7,0.3,0.9C175.8,391.9,175.7,391.6,175.6,391.2   c-0.1,0.1-0.1,0.1-0.1,0.1C175.5,391.3,175.6,391.3,175.6,391.2C175.6,391.3,175.6,391.3,175.6,391.2   C175.6,391.3,175.6,391.3,175.6,391.2z M175.3,390.8c0.1,0.1,0,0.1,0,0.2C175.3,390.9,175.3,390.8,175.3,390.8z M174.7,389.7   c-0.2,0-0.3,0.1-0.4,0.4c0-0.1,0-0.3,0.1-0.4C174.4,389.7,174.6,389.7,174.7,389.7z"/>
	<path class="st0" d="M243.3,532.5c0.8-2.6-2.4-2.3-3.7-3c-0.9-0.4-1.4,0-1.5,0.6c-0.1,0.6,1.1,1.1,2,1.6c0.2,0.2-0.1,0.7-0.1,1.1   c0.1,0,0.2-0.1,0.3-0.1c-1.1,0.7,1.4,1,1.6-1.2C242.1,532,242.5,535.3,243.3,532.5z M240.4,532.3   C240.4,532.3,240.4,532.3,240.4,532.3C240.4,532.4,240.4,532.4,240.4,532.3z M242.3,532.1C242.3,532.1,242.3,532.1,242.3,532.1   C242.3,532.1,242.3,532.1,242.3,532.1C242.3,532.1,242.3,532.1,242.3,532.1z"/>
	<path class="st0" d="M238.2,533.1C238.2,533.1,238.2,533.1,238.2,533.1c-0.1,0-0.2,0-0.3,0.2c0,0,0,0.1,0.1,0.1c0,0-0.1,0-0.1,0   C235.2,536.9,241.9,533.2,238.2,533.1z M238.2,533.5C238.1,533.5,238.1,533.5,238.2,533.5C238.1,533.5,238.1,533.6,238.2,533.5   C238.1,533.5,238.1,533.5,238.2,533.5c0,0,0-0.1,0-0.1C238.2,533.5,238.2,533.5,238.2,533.5z M238.9,533.9   C238.9,533.9,238.9,533.9,238.9,533.9C238.9,533.9,238.9,533.9,238.9,533.9z M238.9,533.9c0,0,0-0.1-0.1-0.2   C238.9,533.8,239,533.9,238.9,533.9z"/>
	<path class="st0" d="M301.1,545.4c0.3,0.7,2.1,0.5,1.7-0.7C302.3,543,300.9,544.9,301.1,545.4z"/>
	<path class="st0" d="M191.8,360.5c-1.1-0.9-1.5,0.9-0.8,1.6C191.8,363.1,192.4,361.4,191.8,360.5z"/>
	<path class="st0" d="M423.2,447.3c-0.2,0.7-0.1,2.3,0.9,1.5C425,448,423.4,446.5,423.2,447.3z M423.3,448.2   C423.3,448.2,423.3,448,423.3,448.2L423.3,448.2z"/>
	<path class="st0" d="M423.4,447.1C422.7,447.3,424.1,446.8,423.4,447.1L423.4,447.1z"/>
	<path class="st0" d="M420.6,384.1c-0.7,0.4-0.5,1-0.1,1.7C421.4,387.4,422,383.5,420.6,384.1z"/>
	<path class="st0" d="M174.8,455.3c0.3,0.2,0.6,0.4,0.9,0.6c0-0.1,0-0.3-0.1-0.4c0,0,0,0,0,0c-0.1-0.2-1-0.7-0.9,0.2   c0,0.2,0.1,1.5,0.5,1.9c0,0,0,0,0,0c0,0,0,0,0,0c0.2,0.2,0.4,0.2,0.6-0.1C176.4,456.7,175.1,455.5,174.8,455.3z"/>
	<path class="st0" d="M393.6,506c0-0.1,0-0.1,0-0.2c-1.2,0.2-2,2.4-0.9,1.9C393.3,507.4,394,505.8,393.6,506z M393.3,506.2   c0.1-0.1,0.1-0.1,0-0.1c0,0,0.1,0,0.1,0c0,0,0,0,0,0c0,0,0.1,0,0.1,0.1C393.5,506.1,393.4,506.1,393.3,506.2z"/>
	<path class="st0" d="M420.4,454.8c0-0.4-0.4-0.4-0.6-0.2c0,0.1,0.1,0.1,0.1,0.1c-0.4-0.1-0.8,0-0.8,0.7c0,1.1,0.8,1.1,1.2,0.5   c0.2-0.3,0.1-0.6,0-0.8C420.4,455,420.5,455,420.4,454.8z"/>
	<path class="st0" d="M424,417.5C420.6,416.3,425.1,421.2,424,417.5L424,417.5z"/>
	<path class="st0" d="M175,397.7c-0.1-0.3-2.3-0.8-1.1,0.8C174.7,399.6,175.2,398.7,175,397.7z M174,397.6   C174,397.6,174,397.6,174,397.6C174,397.6,174,397.6,174,397.6C174,397.6,174,397.6,174,397.6z M174.5,398.8c0.1,0,0.1,0,0.2-0.1   c0,0,0,0,0,0C174.6,398.8,174.5,398.8,174.5,398.8z"/>
	<path class="st0" d="M253.5,539.7c-1.1-0.9-0.8,2.4,0.3,1.3C254.3,540.3,254.1,540.2,253.5,539.7z"/>
	<path class="st0" d="M339.6,538.3c0.1-0.2,0.1-0.4,0-0.6c-0.3-1.2-9.9,2.3-11,2.6c-3.3,0.8-6.6,1.4-10,2c-0.4,0.1-2.3,0.1-2.6,0.3   c-0.9,0.6-1.1,1.9,0.2,1.2c1.2,1.6-2.3,2.4-3.1,2.1c-0.7-0.2-1.8-2.6-2.8-1.3c-0.5,0.6,0.2,0.6,0.4,1.2c1.4,3.3,12.5,0.4,15-0.3   c2.6-0.7,5.2-1.2,7.9-2c0.7-0.2,3.9-0.8,3.9-1.5c0.1-1.6-2.2-0.5-2.6-0.2c0-0.1,0-0.2-0.1-0.3c0.1-0.6,0.1-0.2,0-0.9   c1.6,0.2,1.9-0.1,2.8-1.4c0.5,0.6,1.5,0.1,1.9-0.7c0,0.4,0.2,1,0.2,1c0.1-0.2,1.1-0.6,0.4-1.1C339.8,538.3,339.7,538.2,339.6,538.3   z M311.4,546.3C311.4,546.3,311.4,546.4,311.4,546.3L311.4,546.3z M326.1,543.6C326.1,543.6,326,543.7,326.1,543.6L326.1,543.6z    M321,542.1c0.5-0.1,1-0.2,1.5-0.3c-1.4,0.3-2.7,0.5-4.1,0.8C319.3,542.4,320.2,542.3,321,542.1z M318.2,544.1   c1.2-0.9,2.6-1.8,3.9-1.8C320.9,542.3,319.4,543.2,318.2,544.1z M321.9,543.9c0.4-0.1,1,0.1,1.4,0.3   C323.3,544.3,322.4,544.6,321.9,543.9z M325.1,543.7c-0.5,0.1-1.1,0-1.6,0C324.1,543.7,324.6,543.7,325.1,543.7z M324.5,544   c-0.2,0-0.5,0.1-0.7,0.2C323.6,544.3,323.7,544,324.5,544z M327.5,542.5c0.4,0.3,1.1,0.5,1.3,0.6   C327.8,543.6,327.7,542.9,327.5,542.5z M329.6,542.9c0,0,0-0.1,0-0.1c0.3,0,0.6,0,0.8,0c-0.3,0,1.8-3.1,2.7-1.6   c-0.7,1,0.3,1,1.2,0.5C333.7,542.4,330.7,542.9,329.6,542.9z"/>
	<path class="st0" d="M225.3,519.7c0,0.1-0.8,0.6,0.1,0.7C226.4,520.5,225.3,519.5,225.3,519.7z"/>
	<path class="st0" d="M229.6,522.5c-0.2,0-1.4-0.7-1.1,0.3C228.8,523.9,229.9,522.4,229.6,522.5z"/>
</g>
</svg>