<?xml version="1.0" encoding="UTF-8"?>
<!-- Generator: Adobe Illustrator 23.0.3, SVG Export Plug-In . SVG Version: 6.00 Build 0)  -->
<svg version="1.1" id="Vrstva_1" xmlns="http://www.w3.org/2000/svg" xmlns:xlink="http://www.w3.org/1999/xlink" x="0px" y="0px" viewBox="0 0 595.3 841.9" style="enable-background:new 0 0 595.3 841.9;" xml:space="preserve">
<style type="text/css">
	.st0{fill:#F6D22C;}
</style>
<g>
	<path class="st0" d="M332.2,513.9C332.1,514,332.2,514,332.2,513.9L332.2,513.9z"/>
	<path class="st0" d="M357.9,515.8c1.1,0.2,3.8-2,4.8-2.5c-1.6-2.5-3.4-5.7-5.1-8.4c-1.5-2.5-3-5-4.5-7.4c-1-1.7-1.9-3.8-3.2-5.3   c-1-1.1-1.1-0.5-2.7,0.3c-1.2,0.6-4.1,1.6-4.4,2.8c-0.2,0.8,0.5,2.6,0.6,3.5c0.2,1.3,0.5,2.6,0.7,4c0.2,1.1,0.3,1.8,1,2.7   c0.5,0.6,2.6,3.4,0.2,2.9c0.3,1.4,1.1,3.3,1,4.7c-3.2-4-6.7-7.6-10.2-11.3c-0.6-0.6-1.6-2.1-2.3-2.1c-1.2-0.1-3.8,2-4.9,2.6   c-1.3,0.7-1.5,0.5-1.5,1.5c0,1.3,1.6,3.5,2.1,4.7c0.7,1.5,1.2,3.9,2.3,5.1c0.3,0.3,0.3,0.5,0.3,0.5c0.1,0,0.2-0.1,0.7-0.1   c1.4-0.1,2.8-1.1,4.3-1.2c-0.3-0.6-0.6-1.2-0.8-1.8c-1.1-0.2-1.9-0.8-2.4-1.7c0.5,0,1.1,0,1.6,0.1c-0.6-1.2-1.1-2.4-1.7-3.5   c-0.3,0.5-0.6,1.1-0.9,1.6c-0.9-0.6,0.9-4,1.7-3.5c0,0-0.5,1.9-0.4,2.2c0.3,0.8,1.3,1.6,1.9,2.3c1.3,1.6,3.3,1.4,5.3,1.9   c-1,0.2-2,0.5-3.1,0.7c0.3,0.3,0.6,0.7,0.9,1c1.2-2.8,3,1.7,1.7,1.8c2,2.1,3.8,4.3,5.9,6.3c1,0.9,0.5,0.9,1.8,0.4   c0.9-0.3,3-1.2,3-2c0.1-1.1-0.8-0.4-1-1.2c-0.2-0.8,0.4-0.7,0.5-1.4c0.2-1.2-0.6-3-0.8-4.2c-0.2-1.3-0.5-2.7-0.7-4   c-0.5-2.8-2-6.6-1.9-9.3c2.6,4.9,5.4,9.8,8.2,14.6C356.4,513.6,357.2,515.7,357.9,515.8z M334.1,513.1   C333.9,513.3,334.1,513.1,334.1,513.1L334.1,513.1z M335.8,507.5c-1-0.1,2.3-3.1,3-2.1C337.9,506.2,336.9,506.9,335.8,507.5z    M350.5,499.4c0.7-0.9,1.1-2,2-2.7C351.8,497.5,351.2,498.5,350.5,499.4z M356.7,511.8c0.4,0,2.1-0.2,2.3,0.4c0,0-1.3,0.5-1.3,0.5   c-0.4,0.3-0.7,0.7-1,1.2C356.7,513.2,356.7,512.5,356.7,511.8z M354.5,502.7c0.6,0.5,1.3,0.9,2,1.3   C355.3,504.1,354.7,504,354.5,502.7z"/>
	<path class="st0" d="M284.6,506.6c-1.3-0.6-3.1-0.8-4.5-1.1c-1,4-2,8.1-2.9,12.1c-0.5,2-0.8,4.2-2,5.9c-1,1.4-1.9,1.2-3.3,1.9   c-1.1,0.5-1.2,1.2-2.7,1c-1-0.1-2-0.7-3-1c1.5-0.2,3.1-0.3,4.7-0.2c-2-0.4-2.8-1.5-3.5-3.3c-0.2-0.5-0.2-0.8-0.4-1.2   c-0.1-0.2-0.6-0.2-0.8-0.5c-0.4-0.7-0.3-1.6-0.3-2.4c0.2,0,1.7,0.3,1.8-0.1c-0.4,0-0.8-0.2-1.1-0.5c1.5-0.1,1.3-0.3,1.6-1.7   c0.4-1.6,0.8-3.3,1.2-4.9c0.6-2.5,1.2-5,1.8-7.5c-1.5,0.5-1.7-0.1-3-0.7c-0.3-0.1-2.2-0.8-2.5-0.6c-0.6,0.3-0.8,2.9-1,3.6   c-0.6,2.4-1.2,4.8-1.7,7.1c-0.2,0.8-0.4,1.7-0.6,2.5c-0.1,0.6-0.9,2.2,0.1,0.8c-1.1,1.8-1.1,4.6-0.7,6.7c0.1,0.6,1.7,4.7,2.3,4   c0.4,2.3,3.1,0.8,1.7-0.5c1.6,0.1,1.1,1,2.3,1.7c1.3,0.9,4.6-0.3,4.3,2.2c2.2,0,4.4-0.6,6.1-2c-0.3-0.3-0.6-0.5-0.8-0.8   c0.4-0.2,1.4-0.5,1.4,0.3c4-4.1,4.7-12.1,6-17.5c-1.3-0.1-2.6-0.2-3.9-0.3c0.9-0.6,1.9-0.7,2.7-1.3c0.1-0.1,0-0.5,0.4-0.7   c0.3-0.2,1-0.2,1.3-0.2c-0.6,0.4-0.5,1.1-0.3,1.7C285.6,507.2,286.1,507.2,284.6,506.6z M262.3,515.9c0.3-0.5,0.6-1,1.1-1.4   C263,515,262.6,515.4,262.3,515.9z M263.4,513.3c0.5-0.2,1.3-0.3,1.6-0.2C264.5,514.4,264,514.5,263.4,513.3z M265.3,523.4   c0.3,1.1-0.1,1.4-1.2,0.9C264.4,523.9,264.8,523.6,265.3,523.4z M265.3,526.6c-0.7,0.1-1.6,0.2-1.1-0.7   C265.4,526.1,265.7,526.4,265.3,526.6z M265.5,518.2C265.1,518.2,265.4,518.1,265.5,518.2L265.5,518.2z M266.1,514.5   c1.1,0.3,0.3,1.1-0.4,1.5C265.7,515.5,265.9,515,266.1,514.5z M274,529.4c0.7-0.9,1.7-1.6,2.4-2.4   C275.8,528.1,274.7,528.6,274,529.4z M277.9,525.3c-0.5-1.1,0.5-0.8,1.3-0.6C279.8,525,279.3,525.2,277.9,525.3z M278.9,514.5   C278.9,514.5,278.9,514.6,278.9,514.5C278.9,514.6,278.9,514.6,278.9,514.5z M278.9,514.5c0.2-1.3,0.8-1.9,1.7-0.7   C280.6,513.8,279.2,514.4,278.9,514.5z"/>
	<path class="st0" d="M286.8,511.3c0.9,0.2,0.3,1.3,1.7,0.9c-0.6-0.4-1.1-0.9-1.7-1.3C286.8,511,286.8,511.2,286.8,511.3z"/>
	<path class="st0" d="M286.7,507.4C287.3,507.4,286.8,507.4,286.7,507.4L286.7,507.4z"/>
	<path class="st0" d="M312.2,516.5c0.1,0.4,0,0.8-0.3,1.1c0.4-0.1,0.8-0.1,1.2-0.1c-1,0.7-0.2,1.9,0.3,2.6c-0.7-0.1-1.5-0.2-2.2-0.2   c0.3,1.2,0.6,2.5,0.9,3.7c0.2,0.7,0.2,1.7,0.6,2.4c0.6,1.1,0,0,0.9,0.6c0.4,0.3,0.8-0.3,1,0.4c0.1,0.4-1.2,1.2-1.3,1.4   c-0.1,0.3,0.3,1.4,0.4,1.7c0.2,1,0.2,1.9,0.9,2.1c0.7,0.2,2.7-0.7,3.4-0.8c1.6-0.4,3.3-0.8,4.9-1.2c2.4-0.6,4.7-1.2,7.1-1.7   c-0.1-0.6,0-0.8-0.8-0.7c0-0.8,0.4-0.6,0.2-1.6c-0.2-1-0.7-1.1-1.5-1.8c0.1-0.1,0.2-0.3,0.3-0.4c-1.2,0.3-2.3,0.6-3.5,0.8   c-1.6,0.4-3.8,1.4-5.4,1.3c-1.5-0.1-0.5-0.9-1.3-2.2c-1-1.5-3.5-2.1-4.7-3.7c0.5,0.1,1.3,0.7,1.8,0.9c0.2,0.1,0.7-0.2,0.6-0.2   c0.5,0.2,1.5,1,1.9,1.3c-0.1-0.6-0.3-1.2-0.4-1.8c3-0.7,6.1-1.5,9.1-2.2c0-0.8-4.6-0.4-5.4-0.5c1.5-1.8,3.4-0.8,5.2-0.2   c-0.2-0.7-0.5-3.6-1-3.9c-0.8-0.4-4,1-4.8,1.2c-0.7,0.2-3.7,1.4-4.3,1c-0.5-0.3-0.8-3.3-1-4c-0.5,0.5-1.1,1-1.6,1.5   c0.4-0.7,1.2-1.2,1.5-1.7c0.1-0.3-0.4-0.7-0.1-1c0.5-0.5,2.3-0.6,2.9-0.7c2.2-0.5,4.5-1.1,6.7-1.6c0.1,0.1-0.3-0.5-0.6-0.8   c0.1-0.2,0.3-0.7,0.1-1.1c0.1,0.5,0,0.8-0.2,0.9c-0.1-0.1-0.1-0.1-0.1,0.1c-0.4,0.2-1.2-0.1-1.2-0.8c0-0.9,1.1-1.2,1.4-0.3   c-0.2-0.9-0.4-1.8-0.6-2.7c-1.8,0.4-3.6,0.9-5.5,1.3c-1.4,0.3-4.6,0.5-5.3,1.8c2.3,0.8,4.2-1,6.2,1.1c-1.3,0.4-2.7,0.5-3.9,1.2   c0-1.4-1.8-0.9-2.6-0.9c-1.2,0-2,0-3.1-0.4c-0.5-0.2-0.8-0.9-1.1-0.3c-0.1,0.2,0.3,1.3,0.4,1.5c0.7,3,1.5,6,2.2,9   C311.3,517.6,311.8,517.1,312.2,516.5z M325.7,525.3c0.9,0.4,1.2,0.7,0.8,0.8C325.5,526.3,325.3,526,325.7,525.3z M325.5,528.7   C325.3,528.9,325.1,528.7,325.5,528.7L325.5,528.7z M325.2,529.1C325.3,528.7,325.3,528.9,325.2,529.1L325.2,529.1z M315.7,520.6   C315.9,520.8,315.7,520.7,315.7,520.6L315.7,520.6z M314.9,517.4c0.5,1.1-0.6,0.9-1.4,0.6C313.9,517.8,314.4,517.6,314.9,517.4z    M312.1,511.6c0,0.7-0.2,1.3-0.6,1.9C309.9,513.2,310.3,511,312.1,511.6z"/>
	<path class="st0" d="M305.8,507.1c-1-0.4-3.1,0-4.2,0.1c-1,0-2.1,0-3.1,0c1,0.3-1.6,0.3-2,0.3c-1.1,0-2.2,0-3.3-0.1   c-0.2,0.2-5.1-0.1-6.1-0.1c0.3,0.8-0.1,0.6-0.4,0.9c0.5-0.1,0.9,0.1,1.2,0.4c0.1,0.3-1.8,0.5-1.1,1.7c0.3,0.5,0.6,0.3,1.1,0.5   c0.2,0.1,0.8,0.2,1.3,0.6c1.4,1,2.7,0.7,4.5,0.7c0,1.4,0,2.7,0.1,4.1c0,1.8-0.7,3.1,1.4,3c-1.5,0.5-1.4,0-1.4,1.7   c0,1-0.1,2.2,0,3.2c0,0,0.4,1,0.5,0.9c-0.1,0.4-0.4,0.5-0.5,0.9c0,1.8-0.2,2,1.7,2.1c-0.1,0.8,0.1,4.1-1.7,2.4   c0,1.9-0.5,2.1,1.2,2.4c1.4,0.3,3.2,0,4.7-0.1c-0.1-4.3-0.1-8.6-0.2-12.9c-0.5,0.9-2.7,0.5-3.5,0.1c-0.2,0-0.4,0-0.6,0.1   c-0.1-0.3-0.1-0.6-0.3-0.9c-0.4-0.3-0.6-0.3-1.2-0.2c0.3-2.8,3.2-6.3,5.5-2.7c0-0.8-0.5-3.3,0-3.9c0.2-0.3,2.2-0.7,2.9-0.9   c-0.2,0.1-0.4,0.2-0.5,0.5c1.3-0.1,3.1,0,4.7-0.1c0-1.1,0-2.1,0-3.2C306.4,507.4,306.7,507.5,305.8,507.1z M288,510.5   C288.2,510.7,287.9,510.5,288,510.5L288,510.5z M290.3,511.1c0.3-0.1,1.7-0.7,2.4-0.8C292.7,511.2,290.6,511.1,290.3,511.1z    M299.2,522.4c-0.4,0.1-0.7,0-1-0.1C298.5,522.3,298.9,522.4,299.2,522.4z M297.3,523.3c-0.4,0.5-0.6,0-0.8-0.5   C296.7,523,297,523.1,297.3,523.3z M297.5,526.6c0.6,2-2.5,1.8-3.5,0.8C295.3,527.3,296.4,526.9,297.5,526.6z"/>
	<path class="st0" d="M311,518.8c0.3-0.1,0.5-0.3,0.5-0.6C311.1,517.9,310.9,518.5,311,518.8z"/>
	<path class="st0" d="M337.7,526.4c1.2-0.6,2.3-1.2,3.5-1.9c0.2-0.1,1.1-0.4,1.2-0.6c0.3-0.7-0.5-1.3-1.1-0.7c0.8-1.3-0.6-3-1.3-4.4   c-0.7-1.6-1.5-3.1-2.2-4.7c-1.3,2-3.2,1.2-5.3,0.9c0.2,0.5,0.4,1.2,0.8,1.7c0.6,0.9,0.2,0.4,1.3,0.7c-0.2,0.3-0.5,0.3-0.9,0.1   c0.4,1,2.9,4.5,2.6,5.1C336,523.1,337.4,525.7,337.7,526.4z M340.2,523.2c2,0.5,0.1,1.8,0.2,1.9   C339.3,524.9,339.3,522.9,340.2,523.2z M339.8,521.7c0,0.7-0.2,1.3-0.6,1.9C337.6,523.3,338.1,521.1,339.8,521.7z"/>
	<path class="st0" d="M258.8,498.1c-0.2-0.6-2-1.2-2.6-1.6c-1.3-0.7-2.7-1.5-4-2.2c-2.1,2-4.2,4.1-6.3,6.1c-1.4,1.3-2.8,2.7-4.2,4   c-0.3,0.3-2,1.7-1.5,1.7c-0.9,1-2.2,1.8-3.1,2.8c0.1,0,0.2,0,0.2,0c-1.5,0.5-3.5,3.2-4.4,4c1.3,0.7,2.6,1.5,3.9,2.2   c1.5,0.8,1.3,0.7,2.4-0.4c0.8-0.8,2.5-3.4,3.6-3.6c0.8-0.2,2.6,1.3,3.3,1.7c0.6,0.3,2.9,1.2,3.2,1.8c0.4,1-0.9,4-1.1,5.1   c-0.3,1.5-0.6,1.4,0.8,2.2c1.4,0.8,2.9,1.6,4.3,2.4c1.3-6.2,2.6-12.5,4-18.7c0.3-1.6,0.7-3.3,1-4.9   C258.4,500.1,259,498.6,258.8,498.1z M236.4,514.2c0.3-0.4,0.8-0.7,1.2-0.9C237.9,514.4,237.5,514.7,236.4,514.2z M241.5,509.8   c-1.5-0.4-0.4-1.5,0.6-2C242,508.5,241.8,509.2,241.5,509.8z M244.8,508.9c-0.2-0.1-1.3-0.8-1.4-0.8   C244.4,507.2,244.8,507.7,244.8,508.9z M252,504.8c-0.4,1.8-0.8,3.7-1.3,5.5c-1.6-0.9-3.3-1.8-4.9-2.8c2.5-2.5,5-5.1,7.4-7.7   C253,501.4,252.3,503.1,252,504.8z"/>
	<path class="st0" d="M268.3,529.3c0.2-0.1,0.4-0.7,0.6-0.9c-1,0-2-0.1-3-0.1C266.2,528.5,267.9,529.4,268.3,529.3z"/>
	<path class="st0" d="M273,327.7c-0.4,0.2-0.8,0.4-1.2,0.5C272.6,328.5,273.4,328.6,273,327.7z"/>
	<path class="st0" d="M235.4,329.6c-2.2,2.6-3.5,6.6-2.5,10c0.1,0.4,0.2,0.8,0.3,1.2c0.2-0.2,0.4-0.1,0.6,0.1c0,0.3,0,0.6-0.3,0.8   c0.2,0.4,0.3,0.9,0.5,1.3c0.9,2,2.2,3.8,3.9,5.2c-0.3-1.5,1-3.1,2.4-2c0.8,0.6,1.2,3.7,0.1,3.8c2.1,1.1,4.9,1.5,6.5,1.3   c-1.2-0.3-0.4-0.5,0.4-1.3c0.6-0.6,1.1-1.3,1.7-1.9c-0.1,1-0.2,2-0.4,2.9c9-2.5,11.5-12.2,6.7-19.6   C250.6,324.1,241.1,322.8,235.4,329.6z M247,330.4c0.4,0,0.8,0.1,1.2,0.1c-0.7,0.1-1.4-0.2-2.1-0.3   C246.4,330.3,246.7,330.4,247,330.4z M246.1,330.2c-0.2,0-0.5-0.1-0.7-0.1C245.7,330.2,245.9,330.2,246.1,330.2z M243.2,328.4   c0.7-1.9,1.1-1.6,1.4-0.2c0.2,0.9,0.2,1.3-0.1,1.8c0.2-0.3-0.8,0.3-1.1-0.1C243.1,329.3,243.1,329,243.2,328.4z M241.2,349.7   c0.3-0.4,0.6-0.8,1-1C241.8,349,241.5,349.3,241.2,349.7z M244.2,349.3c-0.9,0.1-0.6-1.9,0.4-1.8   C245.9,347.6,245.2,349.1,244.2,349.3z M242.3,345.9c1.6,0,3.3,0.3,4.9,0.7C245.3,346.8,243.4,347.8,242.3,345.9z M251.9,342.9   c0,0-1.7,2.1-2,2.3c-0.9,0.6-2,0.9-3.1,0.9c-2.7-0.1-4.9-2.1-6.4-4.2c-1.5-2.2-2.8-5.1-2.1-7.8c0.3-1.2,1-2.1,1.9-2.9   c0.6-0.5,1.3-0.8,2.1-1c0.3-0.1,1.8,0,1.9-0.1c0.5-0.5,3.1,1.4,3.6,1.7c1.3,1.1,2.4,2.5,3.2,4c0.8,1.5,1.1,2.9,1.3,4.6   C252.3,340.5,252.4,343.3,251.9,342.9z"/>
	<path class="st0" d="M403,402.8c-0.6-2.5,1.4-6.7,3.6-3.1c-0.3-1.7-0.6-3.4-0.8-5.1c-7.4,1.2-14.7,2.4-22.1,3.7   c0.5,0.3,0.9,0.3,1.4,0c0.3,1,0.2,1.4,0.8,2.2c-1.6-0.2-0.8,3.8-0.8,4.6c-1.5-0.2-1.7-0.8-1.8-2.2c0-0.7,0.4-2.5-1-2.3   c-0.1,0-0.1,0-0.2,0.1c0.6-0.4,1.1-0.8,1.6-1.2c-0.3,0-2.2-0.6-2.4-0.3c-0.1-0.1-0.3-0.3-0.4-0.4c0.1,0.8,0.3,1.6,0.4,2.4   c0.1-0.1,0.3-0.2,0.4-0.3c-0.7,0.8,0,2.7,0.1,3.3c0.4,2.3,0.7,4.5,1.1,6.8c0.1,0.6,0.2,3.3,0.6,3.6c0.2,0.2,4.4-0.5,4.6-0.8   c0.4-0.7-0.7-4.3-0.8-5.1c-0.1-0.9-1.3-4.3-0.8-5.1c0.3-0.5,3.9-0.7,4.7-0.8c0.7-0.1,0.9-0.3,1.3,0.1c0.4,0.4,0.4,2.4,0.5,3   c0.3,2,0.7,4,1,5.9c0.8-0.1,4.2-0.2,4.6-0.8c0.4-0.7-0.7-4.4-0.8-5.1c-0.1-0.7-1-3.6-0.5-4.1c0.7-0.7,4-0.7,5-0.8   c0.5,3.2,1.1,6.5,1.6,9.7c1.1-0.2,2.2-0.3,3.3-0.6c1.5-0.3,1,0.1,1.1-1.1c0.2-2.1-0.8-4.9-1.2-7C406.1,403,404.2,402.4,403,402.8z    M382.8,399.8C382.6,399.5,382.9,399.7,382.8,399.8L382.8,399.8z M402.1,400.1c-1.1-1.4-0.6-1.7,0-3.2V400.1z"/>
	<path class="st0" d="M257.7,317.7c-1.5,0.7-1,0.3-0.9,1.5c0.3,2.5,1.7,5.4,2.5,7.8c1.6,5,3.2,10,4.9,15c1-0.3,4.7-0.9,5.2-1.7   c0.5-0.7-1.1-3.9-1.7-4.6c0.6-0.2-1-4.2-1.2-4.8c0.8-0.3,1.8-0.2,1.8-1.1c0.4,0,2.6,0.2,2,0.4c3.2,0.7,4.2,5.8,6.4,7.8   c1.8-0.6,3.7-1.2,5.5-1.8c-2.8-2.8-4.2-9.2-8.7-9.6c0.8,0.6,1.4,1.5,1.3,2.6c0,0.2-0.9,1.9-0.9,2c-0.1-0.1,0.2-0.6-0.1-0.6   c-0.1,0.6-1.5,0.2-1.5,0c0.1-0.3,0.7-0.7,0.9-0.8c-0.9,0-3.1-0.9-1.7-1.9c-0.2,0-0.7,0-1,0.1c-0.4,0.3-0.4,0.6-0.5,0.7   c-0.6,0.4-1.1,0.5-1.8,0.9c0-1.6,0.2-3.3,1.6-4.3c0.8-0.6,2.6-1,1.9,0.7c0.6,0.1,1.2,0.4,1.7,0.8c1.6-1.7,4.1-4.8,1.2-6.4   c0.3-0.4,0.8-0.5,1.2-0.5c-0.7-3-3.5-5.8-6.7-4.3c-0.2,0.1-0.5,0.3-0.7,0.4c-0.4-1.1,1-0.6,1.5-1.3c-0.7-0.1-1.4,0-2.1,0   c0,0.3,0,1.3,0.5,1.3c-1,0.7-1.8,1.8-2.7,2.5c-1.2,1.1-2.8,1.8-4.1,2.7c1.3-2.2,2.7-4.3,4.4-6.2   C263.1,315.4,260.3,316.5,257.7,317.7z M272.3,330.6c-0.3-0.1-0.7-0.1-1-0.2C271.8,330,272.1,330.1,272.3,330.6z M263.6,339.8   c0.2-0.4,0.6-0.7,1-1C264.3,339.1,263.9,339.4,263.6,339.8z M264.6,338.8c0.2-0.2,0.4-0.4,0.6-0.6   C265,338.4,264.8,338.6,264.6,338.8z M263.8,319.8c1.9-1.3,5.2-1.3,6.3,0.8c1.4,2.6-0.6,4.8-2.9,5.5c-0.7,0.2-1.4,0.5-2.1,0.7   c-0.4-1.3-0.8-2.6-1.2-3.8c-0.2-0.6-0.7-1.6-0.7-2.2C263.3,319.9,262.8,320.6,263.8,319.8z"/>
	<path class="st0" d="M292.7,331.4c-4.9,0-4.7-6.2-4.9-9.8c-0.2-3.7-0.5-7.3-0.7-11c-1,0.1-5.8-0.1-5.7,0.8c0.4-0.1,0.8-0.1,1.2-0.1   c-0.4,0.3-0.8,0.4-1.2,0.4c0.2,3.1,0.4,6.3,0.6,9.4c0.2,3.6,0.1,7.6,2.1,10.8c2.5,4.2,7.9,4.9,12.2,3.5c5.2-1.6,6.8-6.6,6.5-11.6   c-0.2-3.7-0.5-7.5-0.7-11.2c-0.1-0.8,0.1-2.5-0.4-2.8c-0.9-0.6-4.3,0.3-5.4,0.3c0,0.7,0,1.6,0.1,2.3c0.2,1,0.6,1.2,0.6,2.2   c0-0.4-0.4,0.5-0.4,0.7c-0.2,1.8,0.2,3.9,0.4,5.7C297.3,324.6,298.3,331.4,292.7,331.4z M283.9,323.8c0.4-0.1,2.2-1,3.1-1   C287.2,323.8,284.3,323.8,283.9,323.8z"/>
	<path class="st0" d="M274.3,328.4c-1.3,0.1-1.2,1-0.4,1.8C274,329.6,274.1,329,274.3,328.4z"/>
	<path class="st0" d="M388.2,374.9c0.4-0.3,0.7-0.6,1-0.9c0.7-0.7,1.4-1.3,2.1-2c0.7-0.7,3.8-2.8,4-3.8c0.2-1.2-2.1-4.3-2.7-5.4   c-0.7-1.5-0.4-1.3-1.8-0.9c-7.5,2.5-14.8,6.2-22.2,9.3c0.5,1,1.4,4,2.2,4.5c0.7,0.4,2.6-0.9,3.5-1.3c5-2.2,10-4.4,14.9-6.6   c-2.5,2.5-5.7,4.7-8.4,7.1c-0.5,0.4-1.9,1.3-2.1,1.9c-0.3,1,0.9,3.1-1.4,2.5c0.1-0.5,0.2-1.1,0.4-1.6c-0.9,0.8-3.7,2.6-3.6,3.7   c0,0.6,1.2,3,1.7,3.4c0.5,0.4,0.4,0.1,1.2,0.1c2.5-0.1,5.1-0.8,7.6-1.2c2.4-0.4,9.1-0.4,9.9-2.4c0,0.2,0,0.4,0,0.6   c0.6-0.1,1.3-0.3,1.8-0.3c-1.7,0.8-1.8,0.7-1.8,2.4c-0.4-0.4-0.5-0.8-0.6-1.3c-4.3,2.2-8.5,4.5-12.8,6.9c-1,0.5-2.3,0.9-2.4,1.8   c-0.1,1.2,1.7,3.5,2.3,4.6c3.5-2,7-4,10.5-6c-1.7-0.2-3.5-0.3-5.2-0.4c1.4-0.9,3.3-2.6,5.1-2.5c-0.7,0.5-0.6,2.6,0.3,2.9   c0.3,0.1,1.7-0.9,1.9-1.1c1.4-0.8,2.8-1.6,4.2-2.4c-2.4,0.6-4.2-2.3-2.1-3.9c1.7-1.3,3.8,2.4,2.4,3.7c0.9-0.5,4.4-1.8,4.7-2.7   c0.2-0.7-2.4-5-2.8-5.6c-0.3-0.4-0.3-0.9-0.7-1c-0.6-0.3-2.4,0.4-3.1,0.5c-2,0.3-4,0.6-6,0.9c0.1,0.3,0.2,0.6,0.2,0.9   c-0.1-1.6-8,0.8-8.8,0.8c1.6-1.2,3.1-2.5,4.6-3.7c-0.3-0.2-0.6-0.5-0.9-0.8c0.4,0.2,0.7,0.5,1.1,0.6   C387.2,375.8,387.7,375.4,388.2,374.9z M371.7,374.5c-1.1-1.1-0.6-3.5,0-4.2V374.5z M394,366.8c-1.9,2.1-2.3,3.4-4.3,0.8   C387.4,361.7,391,364.8,394,366.8z M396.4,381.1c0.5-0.7,0.8-1.5,1.5-2c-0.7,0.8-1.2,1.7-1.8,2.4   C396.2,381.4,396.3,381.2,396.4,381.1z M383.4,381.8c0.8,0.1,1.6,0.3,2.4,0.4C384.9,382.2,384.2,381.9,383.4,381.8z M379,380.1   c0.3-0.6,0.2-2.1,1.5-0.6C380.3,379.6,379.5,379.8,379,380.1z M380.9,375.2c0.3-0.2,3.1-1,2.7-1.4c-0.6-0.7,1.5-0.8,1.7-0.8   c-1,0.7-0.2,1.9,0.3,2.6C384,375.4,382.4,375.4,380.9,375.2z"/>
	<path class="st0" d="M370.1,346.3c-1,0.9-2.1,1.7-2.9,2.7c-0.6,0.7-0.6,1.2-1.1,1.8c-0.8,1.1-1.4,0.7-2.2,1.3   c-0.9,0.6-1.7,1.6-2.5,2.4c-1.5,1.4-3,2.8-4.6,4.2c3.7,3.9,7.3,7.8,11,11.8c1.1-1.1,2.3-2.1,3.4-3.2c-2-2.2-4.7-4.3-6.3-6.8   c-0.7-1.1-0.8-0.7,0.4-1.8c1.1-1,2.2-2,3.3-3.1c1.4,1.5,2.7,2.9,4.1,4.4c0.8-2.8,3.8,1.6,1.8,1.9c0.2,0.2,0.3,0.4,0.5,0.5   c0.8-0.8,2.5-1.8,2.9-2.7c0.4-0.9,0.3-0.6-0.6-1.6c-1.5-1.6-3.9-5.7-6.3-5.5c1.2-0.8,2.4-1.4,3.4-2.4c0.3-0.3,1.1-1.3,1.4-1.3   c0.8,0,3,3.2,3.5,3.8c0.5,0.5,2.5,3.4,3.2,3.4c0.8,0,2.8-2.6,3.4-3.2c-3.5-3.7-6.9-7.5-10.4-11.2   C374.1,343.3,371.7,344.8,370.1,346.3z M376,358.6c-0.8,0.1-1.6-0.2-2.4-0.4C374.4,358.3,375.2,358.5,376,358.6z M370,353.2   c0.1-0.1,0.4-0.3,0.9-0.6C371.1,353.3,370.9,353.5,370,353.2z"/>
	<path class="st0" d="M309.6,318c-2.1,3.3-2.9,7.7-1.9,11.5c0.9,3.2,4.4,8.1,8.1,7.2c-1.3,1,0.6,1,1.6,1.3c0.9,0.2,1.8,0.4,2.7,0.5   c0.9,0.1,3.8,0.6,4.4-0.1c0.7-0.7,0.2-3.4,0.2-4.6c-5.5,1.1-11.7-1.9-11.4-8.1c-1.9,0.7-4.1-0.6-5.8-1.2c1.2-0.1,5.3,0.3,6-0.4   c0.2-0.2,0.6-2,0.7-2.4c0.3-0.8,0.8-1.5,1.3-2.1c2.1-2.4,5.2-2.8,8.2-2.1c-0.9-3.3-1.8,0.3-3.1-0.6c1.9-0.9,3.5-2.3,5-3.6   c0,1.1,0,2.1,0,3.2c0,2,0.2,1.6,1.9,2.7c0.7-1.4,1.3-2.8,2-4.2C323.6,310.4,313.6,311.8,309.6,318z M313.4,333.1   c-0.5,0.5-1.1,1-1.6,1.6C312.1,334,312.8,333.6,313.4,333.1z"/>
	<path class="st0" d="M336,318.1c-0.8,1.7-1.6,3.4-2.4,5.1c-1.5,3.1-3.3,6.3-4.2,9.7c-1.5,5.7,1.5,10.1,6.9,12   c5.9,2.1,10.5-1.2,13-6.5c1.6-3.5,3.3-7,4.9-10.4c-0.8,0.1-1.6-0.2-2.2-0.8c0.8-0.1,1.6,0.2,2.2,0.8c0.4-0.8,0.7-1.6,1.1-2.3   c-1-0.5-4.4-2.7-5.2-2.3c-0.4,0.2-1,2.1-1.1,2.4c-0.7,1.4-1.3,2.9-2,4.3c-1,2.1-1.9,4.2-2.9,6.3c-0.8,1.6-1.8,3.4-3.5,4.2   c-1.9,0.8-3.5-0.7-5.1,0.3c0.3-0.3,0.6-0.6,0.9-0.9c-3.9-2.6-0.3-8.2,1.2-11.3c1.4-3.1,2.9-6.2,4.3-9.3c-0.6-0.3-1.7-1.1-2.3-1.1   c-0.9,0-3,1.7-3.8,2.4c0.7-1.1,1.3-2.1,2.1-3.1C336.5,316.5,336.6,316.9,336,318.1z M334.3,336.9c0,0-1,3.1-1.4,3.7   C331.9,339.9,334.1,337.3,334.3,336.9z M337,340.9c-0.3,0.4-0.6,0.8-0.9,1.2C336.4,341.7,336.6,341.2,337,340.9z M336.1,342.1   c-0.7,1.1,1.1,0.6,2,0.8c1.1,0.2,2.2,0.4,3.3,0.6c-2,0.3-4,1.1-6,0.7c-0.6-0.4-1.1-1-1.4-1.7C334.9,342.5,335.5,342.9,336.1,342.1z   "/>
	<path class="st0" d="M322.6,311.5c1.7,0.3,1.9,0.6,3.1-0.5c1.2-1,2.3-1.9,3.5-2.9c-1-0.2-2.7-0.9-3.7-0.7c-0.9,0.2-1.8,1.3-2.5,1.9   c-0.5-0.7-0.9-2.2-1.6-2.7c-0.8-0.6-2.8-0.5-3.9-0.7c0.7,1.3,1.5,2.7,2.2,4C320.6,311.3,320.9,311.2,322.6,311.5z M325,308.6   c0.7-0.5,1.2-0.1,1.7,0.5c-0.3,0.1-2.3,0.7-2.3,1C324.4,310.2,324.8,308.8,325,308.6z"/>
	<path class="st0" d="M369.1,336c-1.1-0.8-2.2-1.7-3.3-2.5c-2.4,3.2-4.8,6.3-7.2,9.5c-0.8,1-1.6,2.1-2.4,3.1   c-2.7,3.3-5.7,3.1-8.2-0.5c-0.6,0.6-1.2,1.2-1.8,1.8c-1,1-1.4,0.9-1,2.1c0.6,1.6,3.7,3.4,5.1,4c1.9,0.9,4,1,6,0.1   c-0.3-0.9-0.3-1.9-0.4-2.9c1.6,0.1,2.6,0.3,1.7,2.1c2.7-1.9,4.6-5,6.5-7.6c-0.6,0.3-0.2-0.1-0.7,0.6c0.5-0.8-0.7-0.7-1.5-0.8   c-0.8-0.2-1.6-0.3-2.4-0.5c0.4,0,0.8,0,1.2,0c-0.7-0.3-0.4-2.2,0.3-2.7c0.5-0.4,1.2-0.3,2-0.2c1.6,0.3,2.3,1.1,1.8,2.7   c1.5-2,4.2-4.4,5.1-6.7C370.3,336.5,370.3,336.9,369.1,336z M363.3,345.8c-0.2,0.3-0.4,0.6-0.7,0.9   C362.9,346.4,363.1,346.1,363.3,345.8z"/>
	<path class="st0" d="M216.5,345.5c-1.3,1.3-2.5,2.8-3.6,4.2c-0.3,0.4-1.9,2.1-1.8,2.6c0.1,1.1,4.1,3.6,4.9,4.3   c4.6,4.1,9.1,8.1,13.7,12.2c1.2-1.4,2.5-2.8,3.7-4.2c-2.2-2-4.5-4-6.7-6c4.6-3.9,6.9-10.7,1.7-15.1c-0.3,0.6,0.2,1.5,0.6,1.9   c-1.4-0.2-2.7-0.2-4.1-0.4c1-0.7,2.1-1.5,3.2-1.8c-0.5-0.4-1.1-0.7-1.7-1c1.1,2.5-2.8,1.2-2-0.5   C221.3,341.4,218.6,343.4,216.5,345.5z M216.6,352.6c-0.4,0-0.8,0-1.2,0C215.5,352.6,217.3,352.3,216.6,352.6z M225.9,349.3   c0.9,1.8,0.1,3.8-1.2,5.2c-1,1.2-0.9,1.3-2,0.8c-0.9-0.4-1.9-1.7-2.6-2.3c-0.5-0.4-2-1.4-2.2-2c-0.2-0.7,1.1-1.9,1.7-2.5   c-1.2-0.9-1.3-2.1-0.1-2.5c-0.1,0.2-0.3,0.4-0.5,0.6c1.1-0.3,1.8-0.1,2.1,0.8C223,346.6,225,347.6,225.9,349.3z"/>
	<path class="st0" d="M201,380.2c0.6,0.2,2.2-0.1,2.5,0.6c0.3,0.8-1.1,1.7-1.7,1.7c2,2.2,4.8,3.7,7.7,4.4c-1.3-1.1,1-1.2,1-1.1   c0.2,0.3-0.5,1.1-0.7,1.1c1.7,0.4,3.5,0.4,5.3,0.1c1.4-0.3,1.7-0.9,1.9-2.3c0.4,0.4,0.6,0.9,0.6,1.4c2.2-1.1,3.9-3,5.1-5.2   c0.3-0.5,1.8-4,1.2-4.1c0.9,0.1,0.2-4.3,0-5c-0.5-2-1.7-3.7-3.1-5.1c0.1,0.7,0.2,3.3-1.2,2.8c-1-0.3-0.7-2.2,0.4-1.6   c0.3-1.6,0.5-1.7-0.9-2.7c-1-0.8-2.1-1.4-3.3-2c-1-0.5-2.7-1.3-3.9-1.2c-1.7,0.2-0.7,0.5-1.6,1.7c0.2-1.7-2.5-0.6-1.3-1.8   c-1.8,0.2-3.5,0.7-5,1.7c1.3-0.5,3.1-1.2,4.5-1.1c-0.7,0.7-1.6,1.3-2.5,1.6c-1.3,0.5-2.2-0.1-3.2,0.5c-2.5,1.4-4.1,5.8-4.3,8.5   C198.2,375.4,198.5,379.4,201,380.2z M222.1,373.7c0.5-0.1,0.6,2.6,0.6,2.9c-1.2-0.1-1.6,0.2-1.7-1.1   C221,374.9,221.6,373.8,222.1,373.7z M203.6,381.9c-0.1-0.5-0.3-1,0.3-0.9C203.8,381.4,203.7,381.7,203.6,381.9z M217,384.7   C217,384.7,217,384.7,217,384.7C217,384.6,217,384.6,217,384.7z M217.8,365.2c-1,0-1.5-0.1-1.7-1.2   C216.6,364.5,217.2,364.8,217.8,365.2z M215.9,366.3c-0.3,0.4-1.2,0.4-1.6,0.4C214.7,366.3,215.3,366.2,215.9,366.3z M211.1,364.5   c-0.3,0.4-0.6,0.8-0.9,1.2C210.4,365.2,210.7,364.8,211.1,364.5z M209.7,363.8c-0.1,0.4-0.2,0.9-0.4,1.3   C208.4,364.9,209,364.2,209.7,363.8z M206.9,364C206.6,364,206.8,363.9,206.9,364L206.9,364z M204.8,365.4c0.5,1.8-0.9,1.4-2.5,1   C203.1,366.1,203.9,365.7,204.8,365.4z M203.2,375c-0.2,0-0.4,0-0.5,0.1c0.2-0.3,1.3-2.5,0.1-1.6c1.3-2.1,1.1-4.2,3.7-5.3   c0.9-0.4,2-0.5,3-0.4c1.2,0.1,2.8,1,3.7,0.4c-0.1,0.9,4.2,3.2,5,4.4c1.3,1.8,1.7,4,0.7,6c-1.1,2.1-3.4,3.1-5.7,2.9   c-1.9-0.1-5.4-2.6-6.8-1.7c1.4-1.9-2-0.4-2.6,0c-0.1-0.8-0.3-1.7-0.4-2.5c-1,0.2-1.1,1.3-2.4,0.8C201,377.8,203.4,375.2,203.2,375z   "/>
	<path class="st0" d="M192.8,409.8c2.4,0.5,4.7,0.9,7.1,1.4c1.2,0.2,9.4,3,9.1-0.2c-0.2-0.2-0.4-0.2-0.7,0.1c1.2-2,2.8-3.6,4.6-5   c-0.8-0.5-1.2,0.5-2,1.2c-0.8,0.6-1.7,1.1-2.5,1.7c1.2-1.9,2.5-3.8,4.1-5.4c0.4,0.6,0.5,1.5,0,2.1c3.1-0.8,1.7-6.9,0.8-9.2   c-1.3,0.6-3,1.1-4.2,0.1c-0.1-0.1,3.5-1.3,3.6-1.3c-0.4-0.7-0.9-1.4-1.4-2c-0.8-0.8-1-1.5-2-0.5c0.6-1.1,0.6-0.9-0.5-1.5   c0.2,1.4,0.3,1.8-1.2,1.7c-1.1-0.1-1,0-1.2-1.1c-0.2-0.9,0.2-1.3-0.2-1.9c-0.4-0.5-2.2-0.7-2.8-0.8c-3.4-0.6-6.9-0.2-9.6,1.9   c-2.8,2.3-4.1,5.7-4.9,9.1c-0.4,1.7-2.1,7.7-0.8,8.7C189.1,409.6,191.6,409.6,192.8,409.8z M200.8,409.9c-1.5,0.2-2.3-0.5-1.4-2   C200.4,406.3,200.9,409.5,200.8,409.9z M208.1,393.5c-0.9-0.1-1.1-0.1-1.9-0.7C206.9,392.8,207.6,393,208.1,393.5z M206.1,392.8   C206,392.7,206.2,392.8,206.1,392.8L206.1,392.8z M193.1,401.4c0.7-3.7,3.2-6.4,7.1-6.5c2.1,0,4.4,0.5,6.2,1.7   c0.8,0.5,1.3,1.4,2,1.9c0.2,0.7,0.5,0.8,1.1,0.2c0.5-0.2,1-0.4,1.6-0.6c0.4,1.6-0.5,1.9-1.9,1.7c0.7,1.6,1.1,4.8,0.1,6.4   c-0.7,1.2,0,0.6-1.1,0.7c-1.8,0.2-4.2-0.8-6-1.1c-2.3-0.4-4.7-0.9-7-1.3C192.8,404,192.6,404.3,193.1,401.4z"/>
	<path class="st0" d="M369.3,427.4c0.3,0.8,0.7,0.7,1.7,1c1.5,0.4,3,0.9,4.5,1.4c0.9-8.3,0.6-16.7-1.1-24.8c-2,1-4.3-0.5-6.2-1   c1.9-0.2,3.9-0.3,5.9-0.2c-0.3-1.5-0.7-2.9-1.1-4.3c-0.5,0.3-1.1,0.3-1.7,0.2c-0.4,5.4-3.3,1.3-2.2-1.7c-0.9,0-0.7-0.9-1.2-1.1   c-0.6-0.2-1.7,0-2.4,0c2.2,6.1,3.5,12.4,4,18.9c0.2,3.1,0.3,6.2,0.1,9.2C369.4,425.4,369.1,426.9,369.3,427.4z M373.5,402.1   c-0.7-0.1-1.4-0.2-2.1-0.3C372.1,401.7,372.8,401.8,373.5,402.1z"/>
	<path class="st0" d="M372.1,398.3c0.6-0.6,0.1-1.3-0.2-2.3c-0.3,0.3-0.7,0.4-1.2,0.3c-0.8,0-0.3,1.6-1.7,1.6   c0.3,1.1,0.5,1.9,1.9,1.6c-0.6-0.1-1.1-0.4-1.4-0.9C370.4,398.6,371.4,399.1,372.1,398.3z"/>
	<path class="st0" d="M350.6,478.5C350.6,478.5,350.6,478.5,350.6,478.5C350.6,478.5,350.6,478.5,350.6,478.5   C350.6,478.5,350.6,478.5,350.6,478.5z"/>
	<path class="st0" d="M288,343.5c-7.3,0.9-14.4,2.9-21.2,5.8c-3.3,1.4-6.5,3.1-9.6,5c-1.5,0.9-6.9,3.3-6.3,5.5   c-0.2-0.2-0.4-0.5-0.5-0.8c-1,0.8-3.2,2-3.8,3.1c-0.3,0.5-0.7,3.2,0.1,2.5c-0.2,0.2-0.3,0.5-0.2,0.8c0.3-0.6,1-0.9,1.3-1.4   c1.9,1.7-2.9,3.6-3.8,4.2c0.7-1,0.3-1-0.6-1c-1.2,0.1-1.9,1.7-2.2,0.1c-0.5,0.5-0.9,1-1.4,1.5c1,0,1.6,0.2,1,1.3   c-0.7,1.3-2.2,0.1-2.7,0.6c0.4,0.3,1.2,1.1,1.8,0.7c-0.5,0.4-1,0.9-1.4,1.4c0.8-1.3,0.4-1.1-0.6-0.8c-1.2,0.4-1.8,1.2-2.5,2.2   c-2.1,2.7-4,5.6-5.7,8.6c-3.4,6.1-6,12.6-7.7,19.4c0.3-0.5,0.1,1.3,0.1,1.6c0,0.8,0,1.6,0,2.4c-0.5-0.5-0.6-1.2-0.6-1.8   c-8,36.5,12,75,47,89.2c9.3,3.8,19.3,5.7,29.3,5.7c1.7,0,5,0.3,6.2-0.6c0.5-0.4,0.7-1.4,1.2-1.9c0.9-0.9,1.3-0.9,2.6-0.9   c-0.9,1.1-1.8,2.1-2.9,3.1c2.2-0.2,5.9-0.1,7.9-1.1c0.9,0.1,1.2-0.2,0.9-1c0-0.5,0.1-1,0.3-1.4c0.4-1,1.2-1.8,1.8-2.6   c-0.2,1.5-0.5,3-0.8,4.5c3-0.7,6-1.5,8.9-2.5c-0.5-0.4-0.9-0.8-1.3-1.3c1.1-0.5,2.2-0.4,1.8,1.1c9.7-3.5,18.6-9,26.2-15.9   c-1.2,0.4-1.5,0-1-1c0.4,0.3,0.7,0.7,1.1,1c0.8-0.7,1.6-1.4,2.3-2.2c-0.5-0.4,1.8-2.6,2.3-3.2c0.7,0.7,3-2.6,3.6-3.3   c1.1-1.4,2.2-2.8,3.2-4.3c2.1-3.1,4.1-6.3,5.7-9.6c3.4-6.8,5.8-14.1,7.1-21.6c-0.8-0.1-1.7-0.1-2.5-0.2c0.6-0.4,1.5-0.3,2-0.7   c1.1-0.7,0.9-2,1-3.3c-1.5,0.2-3.1,0.3-4.7,0.4c-1,0.1-1.5-0.1-2,0.6c-0.3,0.5-0.3,2.1-0.4,2.6c-0.3,1.4-1,3.1-1,4.6   c0,1,1.1,2.8,1.9,3.6c-0.9-0.3-1.7-0.7-2.5-1.2c-4.1,14.4-12.8,27.2-24.5,36.5c1.8,0.8,3.4,2.1,5.1,3.2c-0.9,1-2,3.1-3.6,2.9   c-2-0.3-2.8-3.3-3-4.9c-2.6,1.9-5.3,3.7-8.1,5.3c-1.2,0.6-7.1,2.9-7,4c-1.9-0.2-4.2,1.1-6.1,1.7c-2.2,0.7-3.3,0.9-3.7,3.3   c-1.1-0.4,0.2-1.3,0-2.2c-0.6,0.2-1.3,0.3-1.9,0.4c0.3,0,0.7,0,1,0.1c-1.7,2.5-3.6,0.9-6,0.9c-2.6,0-5.3,0.7-7.9,0.8   c-4.7,0.2-9.4,0-14-0.7c-4.4-0.7-8.8-1.8-13-3.3c-2.1-0.7-4.1-1.6-6.1-2.5c-0.6-0.3-1.1-0.5-1.7-0.8c-0.6-0.6-1.1-0.6-1.6,0.1   c-1,0.4-2.1,1.5-3,2.1c0.7-1.2,1.5-2.3,2.3-3.5c-3.8-2-7.4-4.4-10.7-7.1c-3.5-2.8-6.4-6.1-9.6-9.3c-5.2-5.1-9.3-12.9-12.1-19.8   c-6.4-15.8-7-33.8-1.5-49.9c1.5-4.3,3.3-8.5,5.6-12.4c1.2-2.1,2.5-4.1,3.9-6.1c0.2-0.3,0.7-0.8,0.8-1.1c0.2-0.7-0.2-0.5-0.1-1.2   c0.1-0.8,0.7-1.4,1.2-2c-0.2,0.3-0.4,0.6-0.6,0.9c0.3-0.5,0.6-0.3,0.9,0.5c0.9-1.1,1.7-2,2.2-3.3c0,0.2,0,0.5,0,0.7   c7.7-8.8,17.5-15.7,28.4-19.9c-1.2,0-2.5-0.2-3.7-0.1c0.5-0.5,1.3-1.5,0.6-2.2c1.5,0.1,1,0.7,1.6,1.3c1.6,1.4,2.8,0.6,4.5,0   c4.7-1.6,9.6-2.7,14.5-3.2c1.3-0.1,2.8-0.1,4-0.3c1.2-0.3,1.1-0.5,2-0.7c0.8-0.2,2,0.2,2.8,0.3c1.2,0.2,2.5,0.3,3.7,0.4   c2.4,0.1,4.8,0.4,7.2,0.8c1.2,0.2,6.5,2,7.2,1.2c0.1,0.7,4.4,1.7,5.3,2c2,0.7,4,1.5,5.9,2.4c1.7,0.8,3.5,2.2,5.2,2.7   c0.3-0.4,0.6-0.5,1-0.2c0.1,0.2,0.3,0.4,0.4,0.5c0.2,0.7,0.6,1.1,1.2,1.3c0.5,0.3,1.1,0.7,1.6,1c0.8-3,3.9-0.4,1.7,1.1   c4.2,2.9,8,6.3,11.4,10.1c1.7,1.9,3.3,3.8,4.9,5.9c1,1.4,0.9,1.6,2.6,1.1c0.7-0.2,1.4-0.5,2.1-0.5c-0.8,0.8-1.9,1.5-3,1.8   c1,1.5,0.3-0.5,1.1,0.1c0.2,0.3,0.1,0.5-0.3,0.5c-0.6,0.2-0.5,0.5,0.2,1c0.3,0.7,0.9,1.4,1.3,2.1c0.9,1.6,1.8,3.2,2.6,4.8   c0.7,1.5,1.4,3,2.1,4.5c0.2,0.4,0.8,2.6,1.1,2.8c0.4,0.3,2.1-0.1,2.6-0.1c-0.1-0.8-1.2-0.5-1.7-0.5c0.2-1.8,0.4-3.7,1.1-5.5   c0.3-0.7,1.2-1.3,1.4-1.9c0.3-0.7-0.8-2.3-1.2-3.2c-0.4,2.9-4.2-2.1-1-1.9c-1.1-1.9-2.3-4.1-3.7-6.1c-0.1,0.8-0.3,1.7-0.7,2.4   c0.5,0,0.6,0.5,0.5,0.9c2.1-2.4,1.9,2.3,1,3.4c-0.3-0.5-0.6-1-0.8-1.5c-0.3,0.2-0.6,0.2-0.9,0.2c-0.2-0.2,0.4-0.8,0.4-0.9   c-0.2-0.4-0.2-1.6-0.5-2.1c-0.3-0.5-0.7-1-1.7-1c0.5-0.4,1.1-0.9,1.4-1.5c0.6-1,0.6-0.5,0.1-1.6c-0.5-1.2-1.8-2.5-2.6-3.5   c-1.7-2.2-3.6-4.2-5.5-6.2c-0.9-0.9-2-1.6-2.8-2.4c-0.3-0.1-0.5-0.1-0.8-0.2c0-0.2,0.1-0.5,0.1-0.7c-0.2-0.2-0.6-0.7-0.9-0.8   c-0.3-0.1-1.5,0.8-2,0.1c-0.1-0.2,0.3-1.7,0.1-1.7c-0.1,1.1-0.2,2.4-1.6,2.4c-0.5,0.3-0.8,0.2-0.9-0.3c-0.1-0.4-0.3-0.5-0.8-0.3   c-0.9-0.4-2-0.6-3-0.9c1.1-0.1,2.3-0.2,3.4-0.2c-0.2-1.3-0.1-1.1-1.4-1.3c0.4-0.1,0.8,0,1.3,0.1c0-0.4,0-0.8,0-1.1   c0.4,0,0.9,0,1.3,0.1c-1.1-0.8-2.1-1.6-3.2-2.4c-0.2,0.5,0,0.8-0.8,0.8c0.1,0.4,0.5,1.5-0.4,1.3c0.5-2.4-1.2-1.7-3-2.1   c0.8,0,1.7,0,2.5-0.1c-0.1-0.5-0.8-0.3-1.1-0.3c0.2-1.3,0.3-0.8-0.7-1.8c-0.6-0.5-1.5-0.9-2.2-1.3c-1.6-0.9-3.2-1.8-4.9-2.6   c0.1,0.8-0.8,1.1-1.5,1.1c0.9-2-0.5-2-2.1-2.7c-1.8-0.8-3.6-1.4-5.4-2.1c-3.7-1.3-7.4-2.2-11.3-2.9   C303.9,342.6,295.9,342.4,288,343.5z M371.9,439.8c-0.4,0.2-0.8,0.4-1.2,0.6c-0.1,0.1,1.5,0.9,1.6,1c-0.7,0.2-1.4,0.4-2,0.7   c-0.3-0.4,0.2-1.1,0.1-1.3c-0.3,0-0.6,0.2-0.8,0.4C369.5,439.5,370.6,438.2,371.9,439.8z M366.1,457.1c-0.3,0.4-0.7,0.7-1.1,1   C365.4,457.7,365.8,457.4,366.1,457.1z M365.1,458.1c-0.3,0.3-0.7,0.7-1,1.1C364.3,458.7,364.7,458.4,365.1,458.1z M353.9,473.3   c0.4-0.2,1-0.5,1.5-0.5c-1.1,0.4-1.4,1.9-2.8,1.8C352.9,474,353.4,473.6,353.9,473.3z M335.8,488.3   C336.3,489,335.8,488.5,335.8,488.3L335.8,488.3z M324.9,490.2c-0.6,0.3-1.2,0.5-1.8,0.8C322.4,489.6,323.8,489.8,324.9,490.2z    M319.7,494.6c0.5-0.5,0.9-0.9,1.4-1.4c-0.7,1.1-1.7,1.8-2.7,2.6C318.8,495.4,319.3,495,319.7,494.6z M315.8,492.6   C315.8,492.6,315.8,492.7,315.8,492.6L315.8,492.6z M314.4,493.8C314.4,494.1,314.4,493.7,314.4,493.8L314.4,493.8z M245.7,471.9   c0.6,0.3,0.1,0.5-1.5,0.7C243.6,471.4,244.7,471.6,245.7,471.9z M245.2,476c-0.6-0.4-1-0.8-1.4-1.4   C245.3,474.2,245.8,474.6,245.2,476z M233.6,455.8c-0.6,0.2-1.2,0.2-1.9,0C232.3,455.8,233,455.8,233.6,455.8z M223.6,399.8   c0.6-0.5,1.3-0.6,2.1-0.5C225.3,399.8,224,399.8,223.6,399.8z M240.1,371.3c0.2-0.2,0.5-0.5,0.7-0.7   C240.5,370.9,240.3,371.2,240.1,371.3z M241.4,370.3c-0.1-0.5-0.3-1,0.3-0.9C241.5,369.7,241.4,370,241.4,370.3z M246.8,364.5   c0.2-0.3,0.5-0.5,0.8-0.8C247.3,364,247,364.2,246.8,364.5z M247.6,363.7c0.3-0.3,0.5-0.5,0.7-0.8   C248.1,363.2,247.9,363.5,247.6,363.7z M268.7,349c0.3,1.1-0.1,1.4-1.2,0.9C267.8,349.6,268.2,349.3,268.7,349z M257.6,358   c-1.1,0.1-1.1-2.4,0.2-1.7c0.2-0.8,0.4-1.5,0.7-2.3C258.6,354.6,259,357.9,257.6,358z M268.5,353.9c-1.8,1.8-3.9,3-5.9,4.5   c1.4-2.2,2.9-4.4,4.7-6.3c0.1,0.3-0.2,2.3,0.4,2.3C267.5,353.8,268,353.7,268.5,353.9z M268.6,352.2c-0.7,0.1-1.6,0.2-1.1-0.7   C268.7,351.8,269.1,352,268.6,352.2z M287.1,346.7c-0.5-0.4-1.4-1.2-1.6-1.6C287.3,344.6,287.7,345.1,287.1,346.7z M358.7,380.4   C358.4,380.4,358.6,380.3,358.7,380.4L358.7,380.4z M360.2,383.2c-0.3,0.3-0.5,0.6-0.8,1C359.5,384.1,360.5,382.4,360.2,383.2z    M361.5,380.2c0.1,1.2-0.1,1.6-0.8,1.1C360.2,381,361.5,380,361.5,380.2z M359.7,383.5c-1.1-1.2-1.6-1.7-0.7-2.9   C360.8,380.7,361.2,382.3,359.7,383.5z M356.1,376.8c0.7-0.3-0.8,0.8-0.8,0.9C355.5,377.4,355.8,377.1,356.1,376.8z M337.2,355.5   c0.9-0.1,0.6,1.9-0.4,1.8C335.6,357.1,336.2,355.6,337.2,355.5z M301.2,347.5C301.3,347.6,301.1,347.5,301.2,347.5L301.2,347.5z    M301.1,347.5c-0.6,0-1.1-0.1-1.5-0.5C300.3,347,300.7,347.1,301.1,347.5z"/>
	<path class="st0" d="M252,436.7c1.9,1.8,4.5,2.6,7,2.4c5.2-0.4,9-5.2,8.4-10.3c-0.6-5.1-5.5-8.8-10.6-8c-2.4,0.4-4.5,1.7-5.9,3.6   c-0.8,1.1-1.3,2.3-1.6,3.6c-0.1,0.7,0.1,2-0.1,2.4C248.4,432.3,250.8,435.5,252,436.7z M258.3,423.4c8.4,0,8.4,13,0,13   C249.9,436.4,249.9,423.4,258.3,423.4z M251,432.3c0.5,0.4-1.2,1.7-1.1,1.5C249.8,432.2,250.1,431.7,251,432.3z"/>
	<path class="st0" d="M258.3,435c6.5,0,6.5-10.1,0-10.1C251.8,424.9,251.8,435,258.3,435z M254.3,429.9   C254.3,429.9,254.3,429.9,254.3,429.9C254.3,429.9,254.3,429.9,254.3,429.9z M258.3,425.8c-2.6,0-3.9,2-3.9,4.1   C254.3,427.9,255.7,425.8,258.3,425.8c2.6,0,4,2,3.9,4.1C262.2,427.9,260.9,425.8,258.3,425.8z M258.3,434.3c2.9,0,4.4-2.3,4.4-4.5   C262.6,432,261.2,434.3,258.3,434.3c-2.9,0-4.4-2.3-4.4-4.5C253.9,432,255.4,434.3,258.3,434.3z"/>
	<path class="st0" d="M235,424.2C234.9,424.4,235,424.3,235,424.2L235,424.2z"/>
	<path class="st0" d="M354,431.6c4-2.8,4.4-9.6,4.2-14.1c-1.3,1.1-3.3,0.8-4.9,0.9c1.5-1,3.1-1.9,4.7-2.7c-0.6-3.6-3.3-4.8-6.5-5.6   c-2-0.5-4-1.3-6-1.5c-1.2-0.2-3.6,0.4-4.7-0.6c-0.6-0.5-0.3-1-0.6-1.5c-0.4-0.7-1.4-1-2.2-1.4c-1.8-0.8-3.6-1.7-5.5-2.4   c-3.9-1.6-7.9-3-12-4c0.8,0.7-1.2,1-1.9,1.4c0.1-0.5,0.3-1.4,0.8-1.7c-4.3-1-8.6-1.6-13-1.8c-2.1-0.1-4.2-0.1-6.4,0.1   c-1.1,0.1-2.2-0.1-2.7,0.7c-0.5,0.7-0.3,1.9-0.9,2.7c1.5-0.2,2.9-0.4,4.4-0.6c-0.2,2.2-0.5,4.3-0.7,6.5c-0.1,1,0,2.6-0.4,3.5   c0,0.3-0.1,0.7-0.1,1c-0.7,0-1.4,0.1-2,0.1c-2,0.1-4.1,0.2-6.1,0.3c-2.2,0.1-3.1,0.7-4.9,2c0.4-0.6,0.8-1.3,1.2-1.9   c-4.8,0.2-9.5,0.4-14.3,0.6c3.8-4.6,8.7-7.7,14.3-9.5c1.3-0.4,2.7-0.8,4-1.1c0.7-0.2,0.7-0.2,1.5-0.3c0.7-0.1,1.4-0.2,2.1-0.5   c0.4-0.2,1.5,0.3,0.8-0.9c-0.2-0.3-1.8-1.2-2.2-0.8c-1.1,1.1-2.7,2.1-4.2,2.4c-0.9,0.2-3.2,0.2-2.1-0.8c0.7-0.7,2.8-0.9,3.8-1.1   c1.8-0.4,2.5-0.4,3.7-1.8c-7.8,1.2-16.1,4.5-22,9.8c-1.3,1.2-2.7,2.8-4.4,3.3c-1.2,0.4-2.6,0.3-3.8,0.4c-3.3,0.4-6.6,0.8-9.8,1.4   c-5.1,0.9-11.7,1.7-16,4.9c-1.2,0.9-2.9,2.5-3.2,4c-0.3,1.2-0.6,1.3,0.9,1.6c0.6,0.1,1.2,0,1.8,0.2c1.2,0.3,1.7,0.4,0.9,1.7   c-1,1.6-2.5,0.7-3.9,0.6c0.7,0.5,1.4,1,2.1,1.6c-0.7,0.2-1.5,0.2-2.1,0.5c-1.1,0.5-0.9,0-1,1.2c-0.1,1.2,0.5,3.3,1.2,4.2   c0.5,0.7,1.4,1.3,2.3,1c0.8-0.3,1.4-1.5,2-2.2c-0.3,0.3-0.5,0.8-0.8,1.2c0.4-0.5,0.7-0.4,0.9,0.3c0.3,0.7,0.8,1,1.5,0.7   c0.9,0.2,2,0,2.9,0c1.1,0,2.3-0.1,3.4-0.1c-2.4-6.4,2.1-14,9.3-14.5c7.7-0.5,13.6,7.2,10.9,14.5c4.8,0,9.6,0,14.3,0   c2.5,0,5,0,7.5,0c1.3,0,2.5,0,3.8,0c1.7,0,1.7,0.2,2.7-1c-0.2,1.7,4.2,1,5.3,1c2.4,0,4.7,0,7.1,0c4.4,0,8.8,0,13.3,0   c-0.3-0.9-0.5-1.8-0.6-2.8c-0.1-0.5,0.2-1.7,0-2.1c-0.3-0.7-3.4-1.4-4.4-1.7c0.9-0.1,4.1,0.2,4.8-0.3c0.6-0.5,1.1-2.6,1.7-3.4   c1.5-2,3.8-3.5,6.3-4.1c2.5-0.6,5.2-0.2,7.4,1c1.2,0.6,2.2,1.4,3.1,2.4c0.6,0.7,1.6,2.9,2.3,2.9c-0.7,0.7,0.5,2.7,0.5,3.7   c0,1.3-0.4,3-0.9,4.2C346.4,433.7,350.6,434.1,354,431.6z M355.3,418.9C355.7,418.7,355.3,419,355.3,418.9L355.3,418.9z    M353.3,418.5c0,0.3,0.1,0.5,0.1,0.8c-0.4,0-0.8,0-1.2,0C352.5,419,352.9,418.7,353.3,418.5z M292,400.2   C291.6,400.3,291.9,400.1,292,400.2L292,400.2z M240.2,425c-0.2-0.7-0.4-1.3,0.3-1.1C240.4,424.3,240.3,424.7,240.2,425z    M247.4,417.4c0.3-0.3,0.7-0.7,1-1C248.1,416.7,247.7,417,247.4,417.4z M248.4,416.4c0.3-0.3,0.7-0.7,1-1   C249.2,415.7,248.8,416,248.4,416.4z M273,428.8c-1.3,1.4-3.4-1.3-1.1-1.8C273.2,426.8,273.1,427.9,273,428.8z M292,416.8   C291.7,417.2,291.9,416.9,292,416.8L292,416.8z M287.2,431.2c-0.2,0.3-0.4,0.6-0.6,0.9c0.2-0.6,0.6-1.2,1.2-1.5   C287.5,430.8,287.3,431,287.2,431.2z M289.6,418.6c0.6-0.3,1.2-0.6,1.8-0.7c-0.9,1-2.1,2.5-3.6,2.4   C288.2,419.6,288.9,419,289.6,418.6z M291.6,425.2c-0.6-0.3-3.6-1.9-3.7-2.7c-0.1-0.7,2.9-3.3,3.4-3.9c1.2,1.2,3.9,2.6,4.2,4.4   C295.8,425.3,293.2,426,291.6,425.2z M296.7,429.4c-0.7,1.5-1.2,1.6-1.9,0.2C296.4,428.8,297,428.8,296.7,429.4z M297.4,432.7   c0.2-0.6,0.3-1.2,0.5-1.7C299.2,431.3,298.3,432.3,297.4,432.7z M318.6,400.1C318.6,400.1,318.6,400.1,318.6,400.1   C318.5,400.2,318.5,400.1,318.6,400.1z M306.1,398.4c-0.5,0.7-0.8,0.1-1.1-0.7C305.4,397.9,305.7,398.1,306.1,398.4z M301.5,400   c1.5,0.4,0.3,1.5-0.6,2C301,401.3,301.2,400.7,301.5,400z M301.3,432.5C300.9,432.6,301.3,432.4,301.3,432.5L301.3,432.5z    M303.1,423.9c-1,1.6-1.5-1.6-1.4-2C303.2,421.7,304,422.3,303.1,423.9z M321.4,404.8c-0.1,1.6-0.2,3.2-0.2,4.7   c-1.5,0.1-1.4,0.1-1.4,1.6c-0.6-0.1-0.8-0.5-1.3-0.7c-1-0.5-0.8-0.6-2-0.5c-1.5,0.1-2.9,0.2-4.4,0.3c-3,0.2-6.1,0.3-9.1,0.1   c0.1-0.6,0.1-1.3,0.2-1.9c-0.5,0.5-1.7-0.4-2-0.9c-0.5-0.8-0.3-2.1-0.3-3c0.7,0,1.5,0.1,2.2,0.1c-0.6-0.2-1-0.5-1.4-0.9   c1.2,0.2,1.4,0.4,1.9-0.6c0.7-1.2-0.4-3.1,0.9-3.7c0.9-0.4,3.4,0.2,4.4,0.3c1.4,0.1,2.7,0.3,4,0.6c2.4,0.5,4.7,1.1,6.9,2.1   C321.5,403,321.5,403.2,321.4,404.8z M327.9,402.6c-1,0.1-1.9-0.2-2.8-0.4C326,402.3,327,402.5,327.9,402.6z M322.5,409.4   c0.1-1.9,0.2-3.9,0.4-5.8c2.9,1.7,5.8,3.4,8.6,5.1C328.5,408.9,325.5,409.1,322.5,409.4z M345.2,430.6c0.6-1.5,1.2-1.7,1.9-0.2   C345.5,431.2,344.9,431.2,345.2,430.6z M350.6,413.9c-0.1,0.4-0.2,0.8-0.3,1.1c-0.1-0.2-0.1-0.5-0.2-0.7c-0.1,0.3-0.5,0.9-0.8,1   c-0.2,0.2-0.4,0.3-0.5,0.5c-0.3,0.4-0.7,0.4-1.1-0.1c-1.5-0.1-2.7-0.7-4.3-0.5C345.7,413.8,348.4,413.4,350.6,413.9z M343.8,415.8   c1.1,1.1,1.3,2.3-0.5,2.4C343.5,417.4,343.7,416.6,343.8,415.8z M346.6,421.6c-0.2,1.8-0.2,4.3-1.4,5.8c0.1-1.3-1.4-1.6-2.4-1.6   C344.2,424.4,345.3,423,346.6,421.6z M344.5,427.3c-0.2,0.6-0.3,1.2-0.5,1.7C342.7,428.7,343.6,427.7,344.5,427.3z"/>
	<path class="st0" d="M341.1,427c-0.5,0.3-1,0.6-1.6,0.8c-0.9,0-1.1,0.4-0.7,1.1c-0.2,1,0.1,2-0.3,3.1c-0.6,1.7-1.9,3.1-3.6,3.8   c-4.5,1.9-7.1-1.5-9.6-4.5c1-0.3,0.7-3.2,1.2-4.4c0.8-1.6,2.3-2.9,4-3.4c1.8-0.5,3.7-0.3,5.2,0.7c0.8,0.5,1.2,1.3,2,1.8   c0.2,0.8,0.6,0.9,1.3,0.4c0.6-0.2,1.2-0.3,1.8-0.5c-3.4-7.4-14.4-6.9-17.1,0.8c0.4,0,0.8,0.1,1.2,0.1c-0.9,1.1-1.5,1-1.6,2.5   c-0.1,1.1,0.1,2.3,0.4,3.3c0.7,2.1,2.2,4,4.2,5.1c2.1,1.2,4.5,1.5,6.8,0.9c3-0.8,3.6-3.3,5.2-5.6c0.4,0.3,0.6,0.6,0.6,1.1   c0.6-1.1,1.1-2.5,0.8-3.7c-0.3-1.3-1.1-1.5,0-2.9C341.6,427.8,341.5,427.5,341.1,427z M337.5,422.6c-0.5,0.4-0.9,0.9-1.4,1.3   C336.5,423.4,337,422.9,337.5,422.6z M340.7,427.5C340.4,427.5,340.7,427.4,340.7,427.5L340.7,427.5z"/>
	<path class="st0" d="M328.3,432.9c1.6,2.1,4.6,2.7,6.8,1.3c1.5-1,3.8-5.1,1.4-6.1c0.1,0.3,0.2,0.6,0.3,0.9   c-0.1-0.5-0.4-0.9-0.8-1.2c0.1,0.1-0.2-0.5-0.5-1c0.4,0.4,0.9,0.7,1.2,0.6c-0.9-1.5-2.6-2.4-4.3-2.4c-2.9,0-5.3,2.6-5,5.5   c0.3-0.2,0.4-0.4,0.5-0.7c0,0.1,0,0.3,0,0.4c0.2-0.1,0.4-0.4,0.5-0.6c0,0.1,0,0.2,0,0.3c2.6-1.5,1.3,0.3,1.1,1.9   c-0.1,0.5-0.1,0.8,0,1c-0.1-0.1-0.3-0.3-0.4-0.4c-0.2,0.2-0.1,0.4,0,0.6C328.8,432.8,328.6,432.8,328.3,432.9z M334.8,433.6   c0.8-0.5,1.6-1.5,1.9-2.5C336.4,432.1,335.7,433,334.8,433.6z M336.1,431.7c-0.2,0.5-0.5,0.9-0.9,1.2c0.9-0.9,1.4-2.3,1.2-3.6   C336.5,430,336.5,430.8,336.1,431.7z M336.3,429c0,0.1,0,0.2,0.1,0.2C336.4,429.1,336.3,429,336.3,429z M333.9,425.5   c0.1,0,0.1,0.1,0.2,0.1c-0.9-0.4-1.8-0.4-2.8-0.2C332.2,425.2,333.1,425.2,333.9,425.5z M334.3,425.8c-0.1,0-0.1-0.1-0.1-0.1   C334.2,425.7,334.3,425.7,334.3,425.8z M330.9,425.5c-0.1,0-0.2,0.1-0.3,0.1c0,0,0,0,0,0C330.7,425.6,330.8,425.6,330.9,425.5z    M330,425.9c-0.2,0.2-0.5,0.3-0.7,0.5C329.5,426.3,329.8,426.1,330,425.9z M329.2,426.5c-0.1,0.1-0.3,0.3-0.4,0.4   C329,426.8,329.1,426.7,329.2,426.5z M328.7,427.1c-0.1,0.1-0.2,0.3-0.3,0.4C328.5,427.4,328.6,427.3,328.7,427.1z M328.1,428.4   c0-0.1,0.1-0.2,0.1-0.3c0-0.1,0.1-0.1,0.1-0.2C328.2,428,328.1,428.2,328.1,428.4z M329.2,427.5c0.1-0.1,0.1-0.2,0.2-0.2   c0.8-0.9,1.9-1.4,3.1-1.4c0.7,0,1.3,0.2,1.8,0.5C332.5,425.4,330.3,426,329.2,427.5z M334.6,426.5c-0.1-0.1-0.2-0.1-0.3-0.2   C334.4,426.4,334.5,426.4,334.6,426.5z M335.1,432.9C335.1,432.9,335.1,433,335.1,432.9C335.1,433,335.1,432.9,335.1,432.9z    M331.1,434.1c1.2,0.4,2.5,0.2,3.6-0.5c-0.3,0.2-0.6,0.3-0.9,0.4c-1,0.3-2.1,0.3-3.1-0.1c-0.1,0-0.2-0.1-0.3-0.1   C330.7,434,330.9,434.1,331.1,434.1z"/>
	<path class="st0" d="M205.6,471c1.3,1.3,4,1.5,5.7,1.2c8.4-1.7,7.2-14.6-1.5-14.6c-1.2,0-2.3,0.2-2.9,1c-0.5,0.6-0.3,1.7-0.9,2.3   c0.1-1.4-0.9-1.4-1.6-0.9c-0.7,0.5-1.3,1.8-1.5,2.6c-0.5,1.4-0.8,4.1,0.3,5.4c1,1.2,0.8-0.3,1.8,0.3c0.2,0.4,0.2,0.8,0.1,1.2   C204.7,470.2,204.9,470.7,205.6,471z M213.4,464.1c-0.5,0.6-1.4,0.4-2.1,0.5C212.3,464.1,212.5,464.1,213.4,464.1z M210,466.6v4.2   C208.9,469.7,209.4,467.3,210,466.6z M207.2,461.7c-0.4,0.5-0.8,1-1.2,1.5C206.3,462.6,206.6,462.1,207.2,461.7z M204.2,462.3   c-0.5-0.4,1.2-1.7,1.1-1.5C205.5,462.4,205.1,462.9,204.2,462.3z"/>
	<path class="st0" d="M385.9,457.6c-9.5,0-9.5,14.7,0,14.7C395.4,472.3,395.4,457.6,385.9,457.6z M390.6,468.7   c-1,0.5-1.1,0.5-2.1,0.5C389,468.6,389.9,468.8,390.6,468.7z M382.1,466c0.6-0.4,1.8-2.5,2.3-0.2   C384.7,467.8,382.7,467.3,382.1,466z M386,458.6c0.7-1.2,2.6,1.1,1.6,2.3C385.8,461.4,385,460.2,386,458.6z"/>
	<path class="st0" d="M295,295.6c0.6-0.1,0.3-0.9,0.2-1.4c0-0.7-1.3-0.2-1.2,0.4C294,294.8,295,295.6,295,295.6z M295,295   C295,295,295,295,295,295C295,295,295,295,295,295z"/>
	<path class="st0" d="M393,338.1c1.2,1.4,2.4,2.9,3.6,4.2c0.6,0.6,1.9,1.5,1.6,0.2c-0.3-1-4.3-4.6-4.4-4.5c0.1,0.1,0.2,0.2,0.3,0.3   C393.8,338.1,393.5,338.1,393,338.1z"/>
	<path class="st0" d="M419.8,394.9c0.2,0.7-0.7,2.1,0,2.6c0.4,0.3,1.2-0.2,1.4-0.2c0.5-0.1,1.1,0.8,1-0.9c0-0.6-0.8-2.9-1.2-3.1   c0,0.4,0.1,0.8,0.2,1.2c-0.3-1.6-0.7-0.7-1.3-1.7c0.2,0.3,0.5,0.3,0.9,0.4c-1.2-0.8-0.3-2.2-0.3-3.5c0,0-0.1-1.6-0.2-1.7   c-0.2-0.2-0.7-0.3-0.7-0.4c-0.1-0.1-0.3,0-0.5-0.4c-0.5-0.9,0.4-0.7,0.4-1.5c0-0.3-0.2-0.6-0.5-0.8c0.1-0.2,0.1-0.4,0.2-0.6   c0,0-0.1-0.1-0.2-0.2c0.1,0,0.1,0,0.2,0c-0.2-0.5-0.3-1.1-0.8-1.1c0.1,0.2,0.2,0.4,0.3,0.6c0,0,0,0.1,0,0.1   c-0.2-0.4-0.4-0.6-0.7-0.7c0.2,0,0.3,0,0.5,0c0,0,0,0,0,0c0.1,0,0.2,0,0.4,0c-0.2-0.4-0.4-0.8-0.5-1.2c0,0-0.1,0.1-0.1,0.1   c0.2-0.5-0.5-1.4-0.7-1.8c-0.1-0.2-0.1-0.4-0.1-0.6c0.1,0.1,0.1,0,0.2-0.2c0-0.2-0.2-0.3-0.3-0.4c0,0,0,0,0,0   c0-0.1-0.1-0.1-0.2-0.2c-0.1,0.2-0.1,1.2,0,2c-0.1-0.4-0.1-0.7-0.2-1.1c-0.3-1.3,0.4-0.6-0.5-1.4c-0.3-0.3-0.6-0.4-0.9-0.4   c0.3,0,0.5-0.1,0.6-0.1c-0.1,0,0.5,0.7,0.6,0.8c-0.3-0.4,0.2-0.8,0.1-1.2c-0.1-0.5-0.7-0.8-0.9-1.2c0,0,0.4-0.4,0.3-0.6   c0,0-0.8-1.2-0.9-1.2c0,0,0,0.1,0,0.1c0-0.6-0.2-1.2-0.7-1.7c0.3-0.1-0.3-1.2-0.5-1.6c-0.3-0.7-0.6-1.4-0.9-2.2   c-0.5,0.5,0.5,1.2,0.2,1.5c0.1-0.1-0.2-0.6-0.5-1.2c0.4-0.5-0.2-1.3-0.6-1.7c-0.1,0.2-0.1,0.4,0,0.6c0-0.1-0.1-0.1-0.1,0   c-0.1-0.2-0.1-0.3-0.1-0.3c-0.1-0.2-0.9-2.3-1.2-3c-0.7-1.3-1.7-2.4-2.4-3.7c-0.3-0.5-1.6-2.4-1.5-2.8c2.2,1.9-0.7-4-0.8-1.3   c-0.6-0.3-0.8-1.7-1.2-2.2c-0.3-0.4-0.8-0.7-1.2-1.2c-0.5-0.7-1-1.9-1.6-2.7c-0.9-1.2-2.5-2.1-3.3-3.4c-0.1-0.2,0.6-0.5,0.2-1   c-0.4-0.6-1.2-1-1.7-1.5c-1.3-1.4-2.2-3-3.5-4.4c-0.1,0.2,0,0.4,0,0.5c-0.1-0.1-0.2-0.1-0.2,0.1c0,0,0-0.1,0-0.1c0,0,0.1,0,0.1-0.1   c-0.1-0.1-0.1-0.1-0.1-0.1c0,0-0.1-0.1-0.1-0.1c0,0,0,0,0,0c0.1,0.1,0.1,0.1,0.2,0.2c0.2-0.6-0.5-1.2-1.1-1.2   c0.4,0.4,0.6,0.7,0.9,0.9c0,0,0,0,0,0c0,0,0-0.1-0.1-0.1c-0.5-0.5-1-0.7-1.5-0.7c0.2-0.1,0.5-0.1,0.7-0.1c-0.1-0.1-0.2-0.2-0.3-0.3   c0.2,0.2,0.5,0.3,0.8,0.4c-0.6-0.6-1.1-1.1-1.7-1.6c0.1,0,0.1,0,0.2,0.1c-0.2-0.2-0.5-0.5-0.7-0.7c-0.1-0.4-0.3-0.6-0.6-0.6   c0.1,0.2,0.2,0.4,0.4,0.6c-1.9-1.7-3.8-3.3-5.4-5.3c-1-1.2-1.8-2.7-2.9-3.8c-0.3-0.3-0.5-0.3-0.9-0.6c-0.3-0.2,0.2-0.3-0.2-0.5   c0.1,0.1-0.9,0.1-0.6,0.2c-0.9-0.6-1.2-1.2-1.7-0.9c0.1-0.1,0.2-0.2,0.3-0.2c-0.1,0.1-0.2,0.2-0.4,0.3c0.1-0.1,0.2-0.2,0.3-0.3   c-0.6-0.5-1.2-0.9-1.7-1.4c-0.3-0.3-0.5-0.7-0.9-0.9c-1-0.4-0.5-0.1-1.6,0c0,0,0,0,0,0c0.3-0.1,0.5-0.3,0.7-0.5   c-0.2-0.2-0.3-0.3-0.5-0.5c-0.8-1.1-1.5-1-2.1-2.3c1.2,0.8,2.3,1.7,3.4,2.6c0.6,0.5,1.3,1,1.9,1.5c0.7,0.5,0.9,1,1.4,0.8   c0,0.1-0.1,0.1-0.1,0.2c0.2,0.1,0.7-0.6,0.8-0.7c0,0,0,0,0,0c0,0,0,0,0,0c-2.7-2.3-5.7-5-8.8-6.5c0,0,0,0,0,0   c-0.1-0.3-1.3-1-1.6-1.2c0,0.1,0.1,0.2,0.1,0.3c-0.2-0.1-0.4-0.3-0.6-0.5c-0.3-0.3-0.7-0.4-1-0.7c-0.8-0.6-1.1-1.1-1.7-0.8   c0.1-0.1,0.1-0.2,0.2-0.3c-0.2-0.1-1.3-0.5-0.8-0.2c-0.1,0-0.1-0.1-0.2-0.1c0,0,0,0,0,0c-0.1-0.1-0.2-0.1-0.3-0.2   c0.3,0.1,0.5,0.1,0.6,0c-1.6-1.1-3.2-2-4.9-2.9c-0.1,0.1-0.1,0.1-0.2,0.2c-0.3-0.5-0.7-1.1-1.5-0.9c-2.2-1-4.2-2.3-6.5-3.2   c0,0.2,0.3,0.4,0.7,0.6c-0.2-0.1-0.4-0.2-0.7-0.3c0.1,0.3,0,0.5-0.3,0.6c1.7,0.9,3.5,1.6,5.3,2.4c0.7,0.3,1.3,0.9,2.1,1   c0,0-0.1,0-0.1,0c0.1,0.1,0.2,0.2,0.3,0.2c0,0,0,0,0,0c0,0,0,0.1,0.1,0.1c0.2,0.2,0.1-0.2,0.3-0.2c-0.3,0.5,0.3,0.6,0.8,0.8   c-0.1-0.2-0.3-0.4-0.5-0.6c0,0,0,0,0.1,0c0.6,0.5,1.1,0.9,1.9,1.3c-0.5,0-0.4,0.5-0.5,0.8c-0.1-0.1-0.2-0.2-0.3-0.2   c0.1,0.4,0,0.5,0.2,0.5c0,0,0,0,0,0c0,0-0.1-0.1-0.1-0.1c0-0.7-0.9-1.2-1.4-1.6c0,0-0.8,0-0.7-0.1c-0.5,0.1-0.3-0.2,0.1,0.6   c-0.1-0.2-0.3-0.3-0.4-0.5c-0.2-0.1-0.4-0.2-0.6-0.2c0,0,0.1,0,0.1,0c0,0,0,0,0,0c0,0,0,0,0,0c0,0,0,0,0,0c0,0,0,0,0,0   c0.1,0,0.1,0,0.2,0c0.3,0,0.7,0.1,0.4-0.1c-0.1-0.1-0.3-0.1-0.4-0.2c0,0,0,0,0,0c0,0,0,0,0,0c-0.1,0-0.1,0-0.2-0.1   c-0.2-0.1-0.4-0.1-0.5-0.2c-0.7-0.4-1.4-0.7-2.2-1c-0.5-0.3-1.1-0.6-1.6-0.8c-0.2-0.1-0.3-0.2-0.5-0.3c1.1,0.7,1.9,1.1,3.2,1.4   c-0.2-0.1-0.4-0.2-0.5-0.4c-1.3-0.7-2.8-1.5-4.2-2c0.3,0.2,0.6,0.5,0.9,0.7c0,0-0.1,0-0.1-0.1c-0.8-0.5-1.5-0.9-2.3-1.4   c-0.2-0.2-0.5-0.4-0.7-0.6c-0.5-0.3-1-0.4-1.5-0.1c-0.5-0.2-2.3-2.3-2.2-0.8c-0.3-0.3-0.7-1-1.2-1.2c-0.3,0-0.6,0-0.8,0.1   c-0.2-0.1-0.2,0.3-0.2,0.3c0.2,0.1,0.2,0.2,0.1,0.2c-0.1-0.1-0.2-0.2-0.3-0.3c0.1-0.1,0.2-0.1,0.2-0.3c-0.3-0.2-0.8,0.1-0.8,0.1   c0,0-1-0.6-1.1-0.7c-1.1-0.8-0.7-0.9-2-0.3c0,0,0,0,0,0c0.3-0.3,0.7-0.5,0.8-0.6c-0.8-0.4-1.8-0.5-2.5-0.6c0.1,0,0.3-0.1,0.5-0.1   c-0.4-0.3-0.8,0.2-1.1,0c-0.2-0.1-0.6-0.6-0.9-0.7c-0.4-0.1-0.8-0.1-1.2,0c-0.3,0-0.5,0.5-0.6,0.8c-0.1-0.1-0.3-0.2-0.4-0.3   c0.4,0,0.4-0.8,0.2-1.1c0,0-1.3-0.3-1.4-0.3c-0.7-0.2-1.4-0.5-2.2-0.7c0,0.2,0.2,0.3,0.4,0.4c-0.1,0-0.2-0.1-0.3-0.1c0,0,0,0,0,0   c0,0,0,0,0,0c-0.1,0-1.3-0.6-1.6-0.7c0.1,0-0.1,0.1-0.3,0.3c0-0.2-0.2-0.5-0.6-0.7c0.2,0.1,0.4,0.1,0.7,0c0,0,0,0.1,0,0.1   c0.6,0.2,1.2,0.3,1.8,0.5c0-0.1,0-0.3,0-0.4c0.2,1,4,1.4,4.9,1.6c0.9,0.2,1.5,0.5,2.4,0.7c1,0.2,1.7,0.2,2.6,0.1   c-0.5,0.1-1.1,0.2-1.6,0.3c0.3,0.1,0.6,0.3,0.9,0.4c0.4,0.3,0.7,0.3,1.1,0.1c-0.1,0.1-0.2,0.1-0.3,0.2c0.3,0.1,0.6,0.3,0.9,0.4   c1.2,0.4,1.9,0.9,3,0.3c-0.2,1.2,1.8,1.3,2.9,1.7c0.9,0.4,2.3,1.5,3.2,1.1c0.4,1,1.7,0.2,0.3-0.3c0.2,0.1,0.4,0.2,0.7,0.2   c0-0.6-3.3-2-4-2.3c-0.7-0.3-1.5-0.6-2.2-1c-1.6-0.7-2.5-1.2-3.9-0.7c0.3-0.2,0.5-0.3,0.8-0.5c-0.3-0.1-0.7-0.2-1.1-0.2   c0.2,0,0.4,0,0.5,0c-1.6-0.5-3.2-1-4.8-1.6c-0.5-0.2-1.7-0.8-2-0.4c0,0,0.1-0.1,0.1-0.1c0,0-0.1,0.1-0.1,0.1c0,0,0,0,0,0   c0.2-0.3-0.5-0.4-1.3-0.4c0-0.1,0.1-0.2,0-0.3c-0.5-0.2-0.8-0.2-1.1-0.2c0.1,0,0.2-0.1,0.2-0.1c-4.2-1.4-8.6-2-12.7-2.8   c-3-0.6-5.6-1.4-8.7-1.5c-0.4,0-1-0.4-1.4-0.4c0,0-0.8,0.2-1,0.2c-1.3,0.1-2.6-0.5-3.9-0.6c-1.3-0.1-3.2,0-4.7,0   c-1,0-1.9,0.2-2.9-0.1c-0.6-0.2-1.5-0.6-1.9-0.9c0.3,0.2-1.2-0.7-0.5-0.6c-1.9-0.3-0.4,0.7-0.2,1.7c-1.2-0.3-2.4,0.1-3.5-0.4   c-0.6-0.3-0.2-1.1-1-0.6c-0.3,0.2,0,0.9,0.2,1.1c-1,0.2-4.4-2.1-3.7,0c-1.4-1.1-2-1.3-3.8-1.1c-0.7,0.1-2.5-0.1-2.6,0.8   c-1.5-0.3-2.9,0-4.4,0.3c-1,0.2-1.6,0.3-2.5,0.5c-1.7,0.3-3,0.1-3.5,1.9c-0.3-0.1-0.4-0.2-0.4-0.3c0.1,0.1,0.2,0.2,0.4,0.3   c0.1-0.4,0.2-0.8,0.4-1.3c-0.1,0-0.1,0-0.2,0.1c0,0,0,0,0.1,0c-11.5,2.3-22.4,6.4-32.6,11.9c-5.7,3.1-11.2,6.3-16.4,10.2   c-1.5,1.1-3,2.2-4.5,3.3c-1.1,0.8-2.9,1.8-3.6,3c-0.3,0.5-1.4,3.4-0.8,3.7c-0.3,0.1-0.5,0.2-0.7,0.5c-0.4-1.2,1.4-4.1-1.2-1.7   c-2,1.9-0.4,3.4-0.8,5.9c0,0.3-0.6,1.4-0.6,1.6c0.3,0.8,0.8,0,1.5,0.1c0.1,0,2.3,1.2,1.4-0.2c1.4,0.4,1.3-1.6,1.8-2   c0.2-0.1,1.2-0.2,1.7-0.5c0.5-0.3,0.8-1,1.2-1.4c0.4-0.4,1.3-0.8,1.7-1.2c0.4-0.4,0.5-1,0.8-1.4c0.5-0.6,1.5-1,2.1-1.5   c0.4-0.3,0.6-0.8,1-1c0.2-0.1,0.9-0.3,1-0.3c0.5-0.3,1-0.9,1.5-1.4c-0.4,0.5-0.7,0.9-1.1,1.4c0.9-0.1,2.8-1.9,2.3-2.9   c-0.4,0.4-0.7,0.8-1,1.2c0.3-0.4,0.7-0.8,1-1.2c0.7,1.2,0.8,0,0.2-0.3c0.9-0.3,1.9-0.6,1.8-1.7c0.2,0.2,1.1,0.7,1.1,0   c-0.2,0-0.3,0-0.3,0c0.5,0,0.8-0.4,0.7-1c0.7,0.7,3.7-1.8,4.2-2.1c0.8-0.5,1.8-0.8,1.2-1.8c0.6-0.2,1.2,0.9,1.7,0.8   c0.9-0.2,0.1-0.5,0.3-0.6c0,0,0.4-0.6,0.5-0.7c0.3-0.3,1-0.4,1.3-0.6c0.1-0.4,0.3-0.6,0.7-0.6c0.4,0,0.7,0,1.1,0   c0.4-0.2,0.5-0.6,0.4-1c0.2,0.3,2.1-0.6,2.4-0.9c-0.1,0.1,0.5-1,0.5-1c1.5,1.9,0.9-0.6,2-0.5c0,0,0,0-0.1,0c0.3,0.1,0.5,0,0.5-0.3   c0.2,0.2,0.5,0.6,0.8,0.5c0-0.3-0.1-0.5-0.1-0.8c-0.2-0.8-1.3-1.3-1.9-1.1c0.1-0.1,0.3-0.1,0.6-0.2c0.9-0.1,1.1,1,1.6,1.5   c-0.1-0.1-0.2-0.2-0.2-0.3c0.4,1.5,0.7,0.1,0.1-0.4c1.4-0.1,1.2-0.2,2.2-0.8c0.6-0.4,1.5-0.4,2.2-0.6c0.4,0.3,0.8,0.3,1.2-0.1   c0.1-0.2,0.2-0.4,0.3-0.5c0.1-0.1,0.3-0.2,0.4-0.3c0,0,0.8-0.3,0.9-0.3c1-0.4,1.9-0.6,3-0.8c0.1,0,0.9-0.3,0.9-0.3   c0.2-0.1,0.5,0,0.8-0.2c0.1-0.1-0.3-0.6-0.2-0.7c1.2-1,1.1-0.1,2.1-0.2c0.5-0.1,1.1-0.5,1.5-0.7c0.7-0.3,1.3-0.7,2.3-0.9   c0.3-0.1,0.7,0.2,1,0.1c0.1,0,0.2-0.5,0.4-0.5c0.4-0.1,1.2,0.1,1.7,0c1.5-0.3,1.2-1.2,0.8-1.9c0.3,0,0.9,0.3,0.9-0.2   c0.4,0.3,1.3,1.3,1.7,1.4c0.5,0.1,1.1-0.2,1.5-0.5c-0.1,0.1-0.2,0.2-0.4,0.3c0.9,0.1,1,0.3,1.1-0.8c-0.1,0.1-0.2,0.1-0.3,0.2   c0.1-0.1,0.2-0.2,0.3-0.2c-0.3,2.2,0,0.2,0.3,0.1c0.4,0,0.8,0.1,1.2,0.1c0.1,0,0.2-0.4,0.3-0.4c0,0,0.6,0.3,0.7,0.3   c0.6-0.2,1,0.7,0.9-0.4c0-0.4-1.5-1.7,0-1.5c0.9,0.1,0.3,0.8,1.1,1.3c1.5,0.9,3.6-0.1,5.1-0.3c0.4,0,1,0,1.4,0c0.3,0,1.7,0.1,1.8,0   c0.5-0.2,0.6-0.4,0.6-0.6c0.1,0.1,0.2,0.2,0.3,0.3c0.7,0.5,0.6-0.1,1.3-0.1c0.8,0,1.1,0.4,1.9,0.6c1.3,0.3,2.1-0.4,3.2-0.3   c0-0.1,0-0.2-0.1-0.3c0.3,0.1,0.5,0.2,0.9,0.3c1.5,0.3,2.9,0,4.4,0.1c1.3,0.1,2.9,0,4.1,0.2c0.4,0.1,2.7,0.9,1.3-0.4   c0.1-0.1,0.8,0.4,1.1,0.4c1,0.2-0.5-1.6-0.5-1.6c0.6,0.4,1.2,0.7,1.8,1.2c0.1,0.1-0.5,0.5,0,0.7c0.8,0.5,1.2,0.1,2,0.2   c0.8,0.1,1.5,0.4,2.3,0.5c1.7,0.2,2-0.7,0.9-1.9c0.7,0.1,1.6,2,2.7,2.3c1.2,0.4,2.8,0.4,4,0.7c5.2,1,10.6,1.9,15.6,3.7   c-0.2-0.2-0.5-0.3-0.7-0.5c1.4,0.8,2.9,1.3,4.4,1.8c-0.1-0.3-0.3-0.6-0.6-0.9c0.1,0,0.2,0,0.3,0c-0.1,0-0.2,0-0.3,0   c1.4,1.3,3.1,1.7,5,2.4c1,0.4,1.9,0.8,2.9,1.2c0.8,0.3,2.2,1.4,2.6,0.6c-0.3,0.7,0.5,0.8,1,0.8c0.1,0.1,0.1,0.2,0.1,0.2   c1.1,0.7,2.5,1.2,3.7,1.8c0.1-0.6,0.6-0.9,1.1-1c-0.1,0-0.2,0.1-0.3,0.1c-1.1,0.6-0.7,1,0.1,1.2c-0.1,0-0.3,0-0.4-0.1   c0.6,0.7,1,0.8,1.2,0.2c-0.5,0.9,0.8,0.8,1.9,0.6c-0.3,0.1-0.6,0.2-0.9,0.4c6.7,3.5,13.1,7.7,19,12.4c2.9,2.3,5.7,4.7,8.4,7.3   c1.3,1.3,2.6,2.6,3.9,4c1,1.1,0.8,1.2,2,1.2c-0.2,0.1-0.5,0.2-0.7,0.2c0.4,0.5,0.8,0.8,1.2,1.1c-0.1,0-0.2-0.1-0.3-0.1   c2.6,2.9,5.1,5.8,7.5,8.9c0-0.3,0-0.5,0-0.6c0.2,0.9,1,2.7,1.7,2.4c-0.1,0.1-0.2,0.1-0.3,0.2c1.9,2.6,3.6,5.2,5.3,8   c0.6,1.1,1.3,2.1,1.9,3.2c0.3,0.6,0.6,1.3,1,1.8c0.3,0.4,0.5,0.7,0.6,0.8c0.1-0.1,0.2-0.1,0.4-0.1c-0.1,0.1-0.2,0.2-0.4,0.3   c0,0,0-0.1,0-0.1c-0.1,0.1,0,0.2,0,0.2c0.1,0.2,0.3,0.2,0.4,0.1c0.3,1.3,2.4,5.5,2.7,6.2c0.6,1.3,1.1,2.6,1.7,3.8   c0.5,1.3,0.9,1.4,1.7,1.4c-0.4,0-0.7,0-1.1,0c0,0.1,0.1,0.1,0.2,0.1c-0.1,0-0.1,0-0.2,0c1.4,3.5,2.6,7.1,3.8,10.8   c0.5,1.5,1.1,3.1,1.4,4.7C419,393.8,418.8,395.6,419.8,394.9z M421.5,395.7c0.1,0.3,0.3,0.5,0.4,0.8   C422,396.7,421.8,396.2,421.5,395.7z M420.1,389.6c0,0.4,0.1,0.7,0.1,1.1C420.2,391.5,419.9,387.1,420.1,389.6z M356.9,310.1   c0.1,0,0.1,0.1,0.2,0.1C357.1,310.2,357,310.1,356.9,310.1z M347.2,305.6c0.5,0.2,0.9,0.4,1.3,0.7c-0.7-0.4-1.5-0.7-2.3-1   C346.5,305.3,346.9,305.5,347.2,305.6z M211.4,329.1C211.4,329.1,211.4,329.1,211.4,329.1C211.4,329.1,211.4,329.1,211.4,329.1   C211.4,329.1,211.4,329.1,211.4,329.1z M212.9,334.3c0.2,0.3,0.4,0.5,0.5,0.7C213.2,334.7,213.1,334.5,212.9,334.3z M226.6,318   c-0.7,0-0.8-0.3-1.5-0.1c0,0-0.1,0-0.1,0.1c0.2-0.1,0.3-0.2,0.5-0.4c0,0,0,0,0,0c0,0,0,0,0,0C225.8,317.8,226.2,318,226.6,318z    M226.2,317.2c0-0.1,0.1-0.1,0.1-0.1c0,0,0,0-0.1,0c1.8-1.3,3.7-2.5,5.6-3.7c-1.9,1.2-3.7,2.4-5.6,3.7c0.2-0.1,0.5-0.2,0.7-0.2   C226.7,316.9,226.4,317,226.2,317.2z M215.6,325.1c0.6-0.5,1.1-0.9,1.7-1.4c-0.6,0.5-1.2,1-1.8,1.5   C215.6,325.1,215.6,325.1,215.6,325.1z M214.9,326.6c0-0.2-0.1-0.4-0.1-0.5C214.8,326.2,214.8,326.4,214.9,326.6z M214.3,328   C214.3,328,214.3,328,214.3,328c0,0,0,0.1,0,0.4C214.3,328.2,214.3,328.1,214.3,328z M213.8,329.5c0.1-0.2,0.2-0.2,0.3-0.2   C214,329.3,213.9,329.4,213.8,329.5z M215.7,331c-0.3-0.4-0.8-1.9-1.3-2c0.4-0.1,0.7-0.5,1-0.6c0.2,0.4,0.9,1.3,0.9,1.8   C216.3,330.4,215.9,331.3,215.7,331z M217.8,324.3c0.6,0.5,0.2,0.3,1,0.3c0.4,0.7,0.1,0.9-0.4,1.4c-0.2-0.8-0.5-0.3-1-0.3   C217.1,325,217.1,324.8,217.8,324.3z M223,319.4c-1.3,1-2.7,2-4,2.9c1.5-1.1,2.9-2.2,4.4-3.3C223.3,319.2,223.2,319.3,223,319.4z    M224,325.8C224,325.7,224,325.7,224,325.8L224,325.8z M227.7,322.4C227.7,322.4,227.7,322.4,227.7,322.4   C227.7,322.4,227.7,322.4,227.7,322.4z M227.9,317.6c0.2-0.8,2.1-1.2,2.5-1.6C229.9,316.5,228.9,317.2,227.9,317.6z M230.4,316   c0.8,0,1.9,0.2,1.8,1.2C232.4,316.2,231.2,316,230.4,316z M234.2,317.9c0,0,0-0.1,0.1,0C234.3,317.9,234.3,317.9,234.2,317.9z    M232.9,312.7c0.8-0.5,1.6-0.9,2.4-1.3C234.5,311.8,233.7,312.3,232.9,312.7z M236.6,316.1c0,0,0-0.1,0-0.2c0,0.1,0,0.2,0.1,0.3   C236.6,316.2,236.6,316.1,236.6,316.1z M247.4,310.4C247.4,310.4,247.4,310.4,247.4,310.4C247.4,310.4,247.4,310.4,247.4,310.4   C247.4,310.4,247.4,310.4,247.4,310.4z M250.7,303.7c-0.2,0.1-0.5,0.3-0.8,0.5C250.2,303.8,250.5,303.6,250.7,303.7z M250.7,303.7   c0.1,0.1,0.2,0.2,0.3,0.3C250.9,304,250.8,303.9,250.7,303.7z M251.8,305C251.8,305,251.8,305,251.8,305c0.1,0,0.1-0.1,0.2-0.1   C251.9,304.9,251.8,304.9,251.8,305z M253.2,303c0,0,0.1,0,0.1,0C253.3,303.1,253.3,303.1,253.2,303z M271.3,297.7   C271.3,297.7,271.3,297.7,271.3,297.7C271.3,297.7,271.3,297.7,271.3,297.7z M262.8,302c0-0.1-0.1-0.1-0.1-0.2   C262.7,301.9,262.7,302,262.8,302z M264.3,302.8c1.3,0.2,3.1,0.1,3.6-0.1C267.4,302.9,265.7,303,264.3,302.8z M264.1,302.7   C264.2,302.7,264.2,302.7,264.1,302.7C264.2,302.7,264.2,302.7,264.1,302.7z M274.1,301c-0.3-0.1-0.3-0.2-0.2-0.4   C274.1,300.6,274.1,300.7,274.1,301z M275.4,300.7c-0.2-0.1-0.4-0.3-0.6-0.5C274.9,300.1,275.3,300.5,275.4,300.7z M276.7,300.3   c0.2,0,0.3,0.1,0.4,0.1C276.9,300.5,276.8,300.4,276.7,300.3z M297.2,298.9C297.4,298.9,297.7,298.9,297.2,298.9L297.2,298.9z    M295.2,295.9c-0.8,0.1-1.6,0.3-2.2-0.2c0,0,0,0,0,0C293.6,296.2,294.4,296,295.2,295.9z M293,299.7c0,0-0.1-0.1-0.1-0.2   C292.9,299.6,292.9,299.7,293,299.7z M285.4,299c-0.1-0.1-0.3-0.2-0.4-0.3c0.1,0.1,0.4,0,0.5,0C285.3,298.9,285.4,298.8,285.4,299z    M280.3,299.2c0.6,0,2,0.2,2.2,0.2C281.4,299.4,281.4,299.7,280.3,299.2z M282.8,299.2c0.2,0,0.3,0.1,0.3,0.2   C283.1,299.3,283,299.2,282.8,299.2z M286.3,298.7c-0.3,0.1-0.5-0.3-0.7-0.1C285.7,298.3,286.7,298.6,286.3,298.7z M286.4,299   c0.1-0.1,0.2-0.3,0.3-0.4C286.7,298.8,286.6,298.9,286.4,299z M287.7,299.2c-0.2-0.3-0.4-0.6-0.7-0.8   C287.2,298.1,288,299,287.7,299.2z M288.9,298.7c0-0.2,0.1-0.5,0.2-0.7c0.3,0.2,0.6,0,0.2,0.3c0.1,0,0.2,0,0.2,0.1   C289.2,298.4,289,298.5,288.9,298.7z M291.9,299.9c-0.3-0.1-0.6-0.4-1-0.7c0.7,0.5,1.2,1,2.2,0.7c-0.1,0-0.1-0.1-0.2-0.2   c0.3,0.2,0.8-0.1,1.4-0.1c-0.5,0-1,0.2-1.2,0.2c0.2,0.1,0.4,0.1,0.6,0.1C293,300,292.5,300.1,291.9,299.9z M296.2,299.6   c-0.1,0-0.3-0.1-0.4-0.1c0.1-0.1,0.1-0.2,0-0.3c0.6,0,0.6-0.1,1.1,0.4C296.7,299.6,296.5,299.6,296.2,299.6z M299.2,298.4   c-0.3,0.2-0.6-0.3-1.1-0.7c0.5-0.2,0.8-0.1,1.2,0.2C299.1,298,299,298.2,299.2,298.4z M302.7,298.8c-0.4,0.1-0.4,0.4-1,0.1   c1.4-0.8-0.8-0.8-1.4-1.3c0.9,0.1,1.9,0.1,3,0.2c-0.5,0.6-0.2,0.3,0.2,0.9C303.3,298.7,303,298.8,302.7,298.8z M306.4,298   c0.3,0,0.7,0,1-0.1C307.1,298,306.6,297.9,306.4,298z M310.5,299.8c0.2,0,0.3,0.1,0.5,0.1C310.8,300.2,310.6,300,310.5,299.8z    M309.6,298c0.3,0.1,0.7,0.1,1,0.2C309.6,298,309.3,298,309.6,298z M314,301.4c0-0.5,0-0.6-0.1-0.8c0,0,0,0,0,0   C314,300.9,314,301.1,314,301.4z M338.8,304.6C338.8,304.7,338.7,304.7,338.8,304.6c-0.1,0-0.2,0-0.3-0.1   C338.6,304.6,338.7,304.6,338.8,304.6z M336.9,305.3C336.9,305.3,336.9,305.3,336.9,305.3C336.9,305.3,336.9,305.3,336.9,305.3z    M328.5,300.8c-0.1,0.2,0,0.5,0.2,0.6c-0.4,0.3-2.5-1.3-2,0.1c-0.8-0.3-1.3-1.1-2-1.6C325.8,299.8,327.4,300.6,328.5,300.8z    M327.4,303.4C327.4,303.4,327.4,303.4,327.4,303.4C327.4,303.4,327.4,303.4,327.4,303.4z M332.8,300.7c0,0-0.1,0-0.1,0   C332.7,300.6,332.7,300.6,332.8,300.7c-0.2,0-0.4-0.1-0.7-0.2c0.4,0.1,0.7,0.1,0.8,0.1C332.7,300.6,332.7,300.6,332.8,300.7z    M327.7,299.5c-1.6-0.4-3-0.7-3-0.7C324.6,298.8,326,299.2,327.7,299.5z M314.1,297c0.2,0,0.5,0,0.7,0.1c0.1,0,0.3,0,0.4,0.1   C314.8,297,314.5,297,314.1,297z M314.9,298.5c0.1,0,0.3,0,0.4,0.1C315.2,298.5,315.1,298.5,314.9,298.5c0.3,0,0.5,0.1,0.7,0.1   C315.5,298.9,315.4,298.6,314.9,298.5z M315.9,299.1C315.9,299.3,315.9,299.1,315.9,299.1L315.9,299.1z M315.9,298.7   c0.2,0,0.4,0.1,0.6,0.1C316.4,298.9,316.2,298.9,315.9,298.7z M316.5,298.8c0-0.1,0-0.1,0-0.2C316.5,298.6,316.5,298.7,316.5,298.8   z M322.4,299.8C322.4,299.8,322.5,299.8,322.4,299.8C322.4,299.8,322.4,299.8,322.4,299.8z M322.3,299.8c-0.5-0.1-0.8,0.3-1.2,0.2   c-0.8-0.2-1.2-0.8-1.9-0.9c0.6,0,1.3,0.1,1.8,0.5c0.3,0.2,0.5-0.1,0.5-0.3c0.6,0.2,0.7,0.1,1.2,0.3   C322.4,299.7,322.3,299.7,322.3,299.8z M323.4,300c0,0,0.1,0,0.1,0C323.6,300,323.5,300,323.4,300z M331.6,303.9   c-1.5-0.1-3-0.2-4.4-0.3C328.6,303.7,330.1,303.8,331.6,303.9z M333.4,304.1c0.4,0.1,3,2.1,3.1,0.9c0.1,0.1,0.2,0.2,0.2,0.2   c-0.1-0.1-0.2-0.1-0.2-0.2C336.4,306.2,333.8,304.1,333.4,304.1z M343.2,306.4c0.4,0.3,0.9,0.6,1.2,0.6   C344.1,307.2,343.7,306.8,343.2,306.4z M346,306.9C346,306.9,346,306.9,346,306.9C346,306.9,346,306.9,346,306.9   C346,306.9,345.9,306.9,346,306.9C345.9,306.9,346,306.9,346,306.9C346,306.9,346,306.9,346,306.9z M345.4,307.5c0,0,0.1,0,0.2,0   C345.5,307.6,345.5,307.6,345.4,307.5z M347.5,307.4c0.4,0.3,0.7,0.7,1.1,0.9C348.3,308.1,347.9,307.8,347.5,307.4z M351.2,309.3   c0.2,0.2,0.5,0.4,0.7,0.5c-0.1-0.1-0.2-0.1-0.3-0.2C351.5,309.6,351.4,309.4,351.2,309.3z M352,309.9c0.2,0.1,0.5,0.3,0.8,0.4   C352.5,310.1,352.3,310,352,309.9z M359.1,313.1c-0.3-0.1-0.6-0.1-0.8-0.2c0.2,0.1,0.4,0.3,0.7,0.4c-0.4-0.2-0.9-0.4-1.5-0.6   c0.3,0.1,0.6,0.1,0.8,0.2c-0.1-0.1-0.2-0.1-0.3-0.2C358.3,312.9,358.7,313,359.1,313.1z M358.8,313.9c0,0.2,0.3,0.4,0.9,0.6   C359.2,314.3,358.8,314.1,358.8,313.9z M374.8,322.9C374.8,322.9,374.8,322.9,374.8,322.9c0.1,0.3,0.3,0.5,0.6,0.7   c-0.4-0.3-0.9-0.5-1.4-0.6c0.4,0,0.8,0,0.7-0.3C374.7,322.8,374.7,322.9,374.8,322.9z M373.5,322.2c0.1,0.1,0.3,0.2,0.4,0.3   c0,0,0.1,0.1,0.1,0.1C373.8,322.4,373.4,322.1,373.5,322.2z M375.7,321.7c0.9,0.7,1.7,1.4,2.6,2.1c-2-1.6-4-3.1-6.1-4.6   C373.3,320,374.5,320.8,375.7,321.7z M369.1,317.2c-0.6-0.5-1.5-1-2.2-1.4C367.4,316.1,368.7,316.7,369.1,317.2z M360.7,312.6   C360.7,312.6,360.7,312.6,360.7,312.6C360.7,312.6,360.7,312.6,360.7,312.6C360.7,312.6,360.7,312.6,360.7,312.6z M363.4,315.2   c0.2,0.4,0.4,0.6,0.6,0.7C363.8,316,363.8,316,363.4,315.2z M364.5,316.1c0,0.2,0.1,0.6,0.2,0.8   C364.3,316.6,364.2,316.3,364.5,316.1z M365.3,317c0.2,0,0.4,0.1,0.7,0.2C365.8,317.1,365.5,317,365.3,317z M368.1,318.9   c-0.8-0.7-0.6-1.1-1.6-1.7c-0.3-0.2-1.5-1.2-1.4-0.3c-0.2,0-0.3,0-0.4,0.1c0.2-0.2,0.3-0.2,0.3-0.3c0,0,0,0,0,0   c0.5-0.4,0.1-1-0.5-0.7c0,0-0.1,0-0.1,0c0,0,0,0-0.1,0c0.1,0,0.3-0.1,0.4-0.2c-0.7-0.5-0.8,0.1-1.3-0.8c-0.1-0.2-0.1-0.4-0.2-0.6   c0.8,0.4,1.3,1,2,0.9c-0.1,0.1-0.1,0.1-0.2,0.2c0.2,0.3,0.5,0.5,0.7,0.5c0,0,0,0,0,0c2,1.4,3.9,2.5,5.9,4c-0.6-0.1-0.5,0.1-1.4-0.3   c-0.4-0.2-0.9-0.9-1.2-1C368.8,318.4,368.3,318.1,368.1,318.9z M375.6,323.8c0.2,0.2,0.5,0.3,0.8,0.4c0.3,0.1,0.5,0.5,0.9,0.9   C376.6,324.3,376.5,324.4,375.6,323.8z M377.7,325.3C377.7,325.2,377.7,325.2,377.7,325.3C377.7,325.2,377.7,325.2,377.7,325.3   C377.7,325.2,377.7,325.3,377.7,325.3z M381.1,327.5C381.1,327.5,381.1,327.5,381.1,327.5C381.1,327.5,381.1,327.5,381.1,327.5   C381.1,327.5,381.1,327.5,381.1,327.5z M381.1,327.5C381.1,327.5,381,327.4,381.1,327.5C381,327.4,381,327.4,381.1,327.5   C381,327.5,381.1,327.5,381.1,327.5z M383.1,329.8c0.2,0.2,0.3,0.4,0.5,0.6C383.4,330.2,383.3,330,383.1,329.8z M392.4,341.6   c0.3-0.1,0.6-0.3,0.9-0.7C393,341.3,392.7,341.5,392.4,341.6z M398.8,347c0.4-0.6-0.6-1.1-1.2-1.5   C398.2,345.9,399.2,346.3,398.8,347z M398.5,349.3c0.2,0,0.4,0,0.7,0c0,0,0,0,0,0C399,349.3,398.8,349.3,398.5,349.3z M403.1,352.6   c-0.2-0.3-0.3-0.7-0.6-1C402.7,351.9,402.9,352.2,403.1,352.6z M404.1,354.7C404.1,354.7,404.1,354.7,404.1,354.7   C404.1,354.7,404.1,354.7,404.1,354.7C404.1,354.7,404.1,354.7,404.1,354.7z M405,355.4C405,355.4,405,355.4,405,355.4   C405,355.2,405,355.2,405,355.4z M407,359.1C407,359,407,359,407,359.1C407,359,407,359,407,359.1C407,359,407,359,407,359.1z    M407.5,359.9c0.2,0.1,0.3,0.3,0.4,0.6C407.8,360.2,407.7,360,407.5,359.9z M409.8,363.8c0.2,0.2,0.3,0.4,0.5,0.6   c0.6,0.8,0.7,1.9,1.3,2.7C410.8,366.2,410.6,364.8,409.8,363.8z M412.7,369c0,0,0,0.1,0.1,0.1C412.7,369,412.7,369,412.7,369   C412.7,369,412.7,369,412.7,369z M418,382.6c-0.2-0.4-0.4-0.3-0.5-0.4c0.1,0,0.2,0,0.3-0.1C417.9,382.3,418,382.4,418,382.6z    M415.5,375.8c-0.1,0.1-0.2,0.1-0.3,0.1C415.4,375.8,415.5,375.7,415.5,375.8z M413.6,371.6c0.1,0.2,0.2,0.4,0.3,0.6   C413.7,372.1,413.6,371.9,413.6,371.6z M414.6,374.4C414.6,374.4,414.6,374.4,414.6,374.4C414.6,374.4,414.6,374.4,414.6,374.4   C414.6,374.4,414.6,374.4,414.6,374.4z M416.4,383.2c0.8,0.2,1.5,0.6,2.3,0.8c0,0,0,0,0,0c0,0,0,0,0,0c0,0,0,0.1,0.1,0.2   c0,0,0,0,0,0C418.9,384.1,417.1,383.5,416.4,383.2z M418.3,386.7C418.3,386.7,418.4,386.6,418.3,386.7   C418.4,386.6,418.4,386.7,418.3,386.7C418.4,386.7,418.3,386.7,418.3,386.7z"/>
	<path class="st0" d="M388,333.2c-1.6-0.6,2.4,4.3,2.5,2.4c0.8,0.8,1,1.1,2.2,1.3c-0.1-0.1-0.2-0.2-0.3-0.3c0.3,0.2,0.5,0.3,0.8,0.3   c-0.2-0.2-1.5-1.8-1.8-1.7c0,0,0,0,0,0c0,0,0,0,0.1-0.1c0,0-0.1,0-0.1,0c0.1-0.2-1.1-1.3-1.3-1.5c0,0,0,0,0,0   c0-0.1-0.1-0.2-0.3-0.3c-0.1,0.1-0.2,0.2-0.2,0.3c0,0,0,0,0,0c0.5-0.8-4.3-4.5-5.1-5.2c-1-0.8-1.9-1.7-2.9-2.5   c-1.1-0.9-1-1.2-2-0.3C382.6,328.2,385.4,330.7,388,333.2z M390.1,334.2C390.1,334.2,390.1,334.2,390.1,334.2   C390.1,334.2,390.1,334.2,390.1,334.2C390.1,334.2,390.1,334.2,390.1,334.2C390.1,334.2,390.1,334.2,390.1,334.2   c0,0.1-0.1,0.1-0.1,0.2c0-0.1,0-0.2-0.1-0.3C390,334.1,390,334.2,390.1,334.2z M389.7,335c0,0.2,0.1,0.3,0.5,0.7   c-0.2-0.2-0.4-0.3-0.6-0.5C389.7,335.1,389.7,335,389.7,335z M387.9,332.1c-0.4-0.3-0.7-0.7-1.1-1   C387.2,331.4,387.6,331.7,387.9,332.1z M385.8,330.1c-0.6-0.5-1.1-1-1.7-1.5C384.6,329.1,385.2,329.6,385.8,330.1z M383.3,327.9   c-0.8-0.7-1.6-1.4-2.5-2.1C381.7,326.5,382.5,327.2,383.3,327.9z"/>
	<path class="st0" d="M416.5,378.5C416.5,378.5,416.5,378.5,416.5,378.5C416.5,378.5,416.5,378.5,416.5,378.5z"/>
	<path class="st0" d="M421,393.3c0.1,0.1,0.1,0.1,0.3,0.1c-0.1-0.5-0.4-0.5-0.8-0.5c0.1,0.1,0.2,0.2,0.3,0.3   C420.9,393.3,421,393.3,421,393.3z"/>
	<path class="st0" d="M212.3,327.5C212.1,327.7,212.2,327.7,212.3,327.5L212.3,327.5z"/>
	<path class="st0" d="M346.1,306.2c0-0.2,0.1-0.4,0.1-0.6C345.3,306.1,345.5,306.1,346.1,306.2z"/>
	<path class="st0" d="M393.7,338c0.1,0,0.3-0.1,0.4-0.1c-0.5-0.5-0.7-0.9-1.4-1c-0.3,0-0.7-0.1-1-0.1   C392.5,337.6,392.7,338.2,393.7,338z"/>
	<path class="st0" d="M313.2,296.5C313.2,296.5,313,296.5,313.2,296.5L313.2,296.5z"/>
	<path class="st0" d="M225,521.9c-0.8-0.1-1.2,0.6-1.7,1.5c-1-2.9,2-3.8-1.2-6.2c-0.1-0.1-1.6-1.4-1.9-1.3c-0.1,0-0.6,0.2-0.5,0.3   c0.3,0-0.1,0.6-0.3,0.6c0-0.6,0.5-1,0.4-1.6c-0.1-0.6-1.1-1.3-1.4-1.6c-0.2-0.2-3.1-2.7-2.9-1.6c-0.6-0.7-1.4-2.3-1.8-2.8   c-0.7-0.8-1.6-1.4-2.3-2.2c-1.2-1.2-8.7-10.4-9-10.2c0.2,0.3,0.5,0.6,0.7,0.9c-0.4-0.4-0.7-0.6-0.9-0.6c0.2-0.1,0.3-0.2,0.2-0.3   c0,0,0,0,0,0c0.3-0.1,0.4-0.3,0-0.5c-0.1,0.1-0.1,0.1-0.2,0.2c0.1-1-3.8-5.6-4.5-6.6c-1.3-2-2.2-4.9-4.8-5.1   c0.5,0.3,0.9,0.6,1.3,0.9c-0.4-0.3-0.8-0.7-1.3-0.9c0.7,0,1.2,0.3,1.8,0.4c-0.2-0.3-1.2-2.5-2.1-3.4c0.1,0,0.1,0.1,0.2,0.1   c-1.4-2.5-2.8-5.1-3.9-7.5c-0.3,0.5-0.9,0.5-1.4,0.2c0.5,0.1,1.2,0.2,1.4-0.2c0.1-0.2-0.8-1.7-0.9-2c0.1-0.8-1.2-2.9-1.5-3.7   c-0.4-1.1-0.8-2.2-1.3-3.2c-0.3-0.7-1.7-6.6-3.1-4.6c-0.4-1.3,1-1.6,0.3-3.3c-0.3-0.7-0.3-1.6-1.2-0.9c0-0.7,0.3-3.6-1.1-2.1   c-0.1-0.3-0.2-1.5-0.5-1.7c-0.6-0.5-2.2,0.9-2.5,1.5c-0.3,0.6-1.3,2.6-0.6,3.1c0.2,0.4,0.9-0.9,1-1.5c-0.1,0.1-0.3,0.2-0.4,0.3   c0.2-0.1,0.3-0.2,0.4-0.3c-0.1,0.5-0.3,1-0.4,1.4c0.9-0.8,1.2-1.8,1.9-2.6c0.1,0.8-0.5,1.4-0.5,2.2c0,0.3-0.1,0.6-0.1,1   c0,0.4,0.7,0.3,0.7,0.7c0,1-1.9,1.9-0.8,2.8c-1.4,0.4-0.2,0.7-0.1,1c0.2,0.6,0.2,2.9,1.2,1.6c0.9,1.3,0.9-0.8,1.6-1.4   c0.3,0.8-0.8,2.9-1,3.8c-0.2,1-0.3,1.9,0.3,3c0.7,1.2,1.2,2.2,1.5,3.7c0,0.1,0.4,5,1.5,3.7c1,2.1,2.2,4.5,2.8,6.6   c0.5,1.6,1.7,2.7,2.1,4c0-0.1,0-0.3,0-0.5c0,0.5,0.1,0.9,0.3,1.2c0.9,1.7,2.3,3.1,3.5,4.6c0.4,0.5,0.7,1.1,1.1,1.6   c-0.6,0.5,3.4,5.1,4.1,6c3.1,4.1,6.5,8.1,10.2,11.7c0.9,0.9,1.7,1.7,2.5,2.5c0.1,0.2,0.2,0.3,0.3,0.3c1.2,1.2,2.5,2.4,3.9,3.7   c1,0.9,2.1,2,3.2,2.7c1.1,0.7,1.3,0.4,2.6-0.1c0.3,1.2-1.3,1.2,0,2.2c1.2,1,1.1-0.5,2.2-0.7c0.4,2,0.6,1.3,2.2,1.7   c0.2,1.9,3.6-0.7,2-2.2C226.1,522.7,224.4,521.9,225,521.9z M177.1,455.1C177.1,455.4,177.1,455.2,177.1,455.1L177.1,455.1z    M176.3,457.1C176.4,457.1,176.3,457.1,176.3,457.1c0-0.1,0.2-0.3,0.4-0.5C176.6,456.8,176.5,457,176.3,457.1z M177.7,456.5   c0.2-0.3,0.3-0.5,0.5-0.8c0,0.1-0.1,0.2-0.1,0.2C178,456.2,177.9,456.4,177.7,456.5z M177.4,454.6c0.5-0.5,1.2-1,1.8-1.4   C178.6,453.6,178,454.1,177.4,454.6z M178.6,458.2c0-0.4,0,0,0.3,0.1C178.8,458.3,178.7,458.2,178.6,458.2z M179.7,461.4   C179.7,461.4,179.7,461.4,179.7,461.4C179.7,461.4,179.7,461.4,179.7,461.4C179.7,461.4,179.7,461.4,179.7,461.4z M179.8,461   c-0.3-0.6-0.1-0.8,0.3-1.2C180.3,460.4,180.3,460.6,179.8,461z M180.6,465.3C180.6,465.3,180.6,465.2,180.6,465.3   C180.6,465.3,180.6,465.3,180.6,465.3C180.6,465.3,180.6,465.3,180.6,465.3z M182.4,475.8c-0.1-0.4-0.3-0.8-0.4-1.3   C182.2,474.9,182.3,475.4,182.4,475.8z M184.2,469.8c0.3,0.6,0.2,0.8-0.4,1.1C183.7,470.5,183.8,469.9,184.2,469.8z M185.3,475.8   c-0.2,0.5-1.6-0.1-1.5-0.6C183.9,474.3,185.7,474.6,185.3,475.8z M186.1,484C186,484,186,483.9,186.1,484L186.1,484z M187,473.5   c0,0.1-0.1,0.3-0.1,0.4c0,0,0,0,0-0.1C186.9,473.7,186.9,473.6,187,473.5z M188.9,484.3c1.1-0.9,2.1,0.3,3.2-0.3   c-0.2-0.2-0.3-0.5-0.4-0.8c0.1,0.3,0.3,0.6,0.4,0.8c-1.3,0.6-2.2-0.8-3.4,0.5c-0.2,0.2-0.3,0.5-0.5,0.8   C188.4,484.9,188.6,484.5,188.9,484.3z M191.6,483.1C191.6,483.1,191.6,483.1,191.6,483.1C191.6,483.1,191.6,483.1,191.6,483.1z    M197.8,493.2c-0.2-0.3-0.4-0.5-0.6-0.7C197.4,492.6,197.6,492.9,197.8,493.2z M195.9,495.1c0,0.1,0.1,0.2,0.2,0.2   c0.1,0.2,0.3,0.3,0.5,0.4C196.2,495.6,196,495.4,195.9,495.1z M197.1,496c0.3,0,0.6-0.1,0.8-0.3c-0.1,0.1-0.1,0.3-0.2,0.4   C197.5,496.1,197.3,496,197.1,496z M201.9,496.5c0.1,0.1,0.1,0.2,0.2,0.2c0,0,0,0,0,0c0,0,0,0,0,0c0,0,0,0,0,0   c-0.1,0.2-0.2,0.3-0.3,0.5C202,496.9,202,496.7,201.9,496.5z M205.7,501.3c-0.2-0.3-0.7-0.9-1.2-1.6c2,2.5,4.1,4.9,6.3,7.3   C209.1,505.1,207.4,503.2,205.7,501.3z M214.1,517.5c0.1-0.2,0.1,0.3-0.2,0.6C214,517.9,214,517.7,214.1,517.5z M219.4,515.4   C219.4,515.4,219.4,515.4,219.4,515.4C219.4,515.4,219.4,515.4,219.4,515.4z M219.1,515.9c0.1-0.1,0.1-0.1,0.2-0.2   c-0.1,0.1-0.2,0.2-0.2,0.3C219.1,516,219.1,515.9,219.1,515.9z M219.6,522.6C219.6,522.6,219.6,522.7,219.6,522.6   c0.1-0.1,0.2-0.3,0.3-0.5C219.8,522.3,219.7,522.5,219.6,522.6z M220.4,522.1c0-0.1-0.1-0.2-0.1-0.2c0,0.2,0.1,0.4,0.2,0.6   C220.5,522.4,220.4,522.2,220.4,522.1z M220.6,521.6c0-0.3,0.5-0.7,0.7-0.9c0.3,0.7,0.3,1.4-0.4,2   C220.9,522.8,220.6,521.8,220.6,521.6z"/>
	<path class="st0" d="M380,515.4c-1-0.7-4.1,2.5-5,3.2c-2,1.6-4.1,3.4-6.1,4.8c0-0.1,0.1-0.2,0.1-0.3c-0.3,0.2-0.6,0.4-0.9,0.6   c0.1,0,0.2,0,0.3,0c-1.9,1.3-4.4,2.7-6.5,3.9c0.1,0,0.2,0,0.3,0c-0.1,0-0.2,0-0.3,0c-0.5,0.3,0.1,0.1,0.4,0   c-0.1,0.1-1.4,0.6-1.7,0.7c-1.3,0.6-2.6,1.4-4,2c-2.4,1.2-5.4,2-6.9,4.2c0.2-0.2,0.3-0.4,0.4-0.6c0,0,0,0,0,0.1   c1.7-2.3,0.1-0.3,0.2-0.3c0,0,0,0-0.1,0c0,0,0,0,0,0c-0.2,0.1-0.3,0.2-0.5,0.2c0.3-0.2,0.6-0.5,0.8-0.8c-1.6,0.8-3.2,1.6-4.9,2.3   c-1.3,0.5-3.2,1-4.1,1.8c-0.6,0.6-1.7,1.8-0.2,2.3c-0.1-0.3,0-0.6,0.2-0.8c-0.4,0.5-0.2,1.1,1,0.8c0.5-0.1,0.6-0.4,1.1-0.6   c-0.2,0-0.4-0.1-0.6-0.1c0.3,0,0.6,0,0.9-0.1c0.8-0.3,1.2-1.3,2.1-1.6c0.7-0.2,1.2,0,1.9-0.2c0.6-0.2,1.1-1.1,1.8-1.1   c0.5,1.3,1.9-0.1,2.6-0.5c1.2-0.6,3.8-1.1,4.2-2.5c0.9,0.5,1.7-0.8,2.2-0.6c-0.1-0.1-0.1-0.1-0.1-0.2c0.7,0.3,1.6,0,1.4-0.8   c1.2,0.3,1.6-0.1,2.4-1c-0.1-0.1-0.2-0.2-0.3-0.3c0,0,0,0,0,0c0.7,0.2,0.2-0.1,0.7-0.1c0.6-0.1,1.9-0.8,2.1-1   c0.5-0.5,0.6-1.1,1.4-1.4c0.7,0.5,0.8-0.2,1.3-0.6c0.8-0.5,1.7-0.9,2.5-1.5c1-0.7,1.7-0.9,2.5-1.9c1-0.8,2.4-1.4,3.2-2.1   c0.5-0.5,0.8-1.1,1.5-1.5c0.6-0.3,1.3-0.5,1.7-0.9C379.8,518.3,381.1,516.2,380,515.4z M342.3,538.3c-0.1,0-0.2,0.1-0.2,0.1   C342.1,538.3,342.2,538.3,342.3,538.3z M341.8,538.8c0.1,0,0.3-0.1,0.4-0.1C342,538.8,341.9,538.8,341.8,538.8z M342.4,538.8   C342.4,538.8,342.4,538.8,342.4,538.8C342.4,538.8,342.4,538.7,342.4,538.8z M358.8,531.2c0.4-0.8,1.6-1.9,2.1-2.4   C360.3,529.6,359.6,530.4,358.8,531.2z M364.5,528.1C364.4,528.3,364.4,528.3,364.5,528.1L364.5,528.1z M367.4,526.8   C367.4,526.9,367.4,526.9,367.4,526.8C367.4,526.8,367.4,526.8,367.4,526.8z M369.7,525C369.7,525,369.7,525,369.7,525   C369.7,525,369.7,525,369.7,525z M372,523.9c0.2-0.3,0.5-0.6,0.7-0.9c0.4-0.2,0.8-0.4,1.2-0.6C373.2,522.7,372.5,523.2,372,523.9z    M378.6,518.4C378.6,518.4,378.6,518.4,378.6,518.4C378.6,518.4,378.6,518.4,378.6,518.4z M377.3,519.5c0-0.1,0.1-0.3,0.1-0.4   c0.1,0,0.2,0,0.3,0C377.5,519.1,377.3,519.3,377.3,519.5z"/>
	<path class="st0" d="M397.2,496.7C397.2,496.7,397.2,496.7,397.2,496.7C397.2,496.7,397.2,496.7,397.2,496.7   c-0.1,0.1-0.2,0.1-0.2,0.2c-2.3,1.7-3.9,4.8-5.9,6.9c-1.9,2.1-4.1,4.1-5.9,6.3c-0.5,0.6-2.4,3-0.5,2.4c0.9-0.3,2.1-2.1,2.8-2.7   c0.4-0.3,0.7-0.7,1.1-0.9c0.2-0.1,0.3,0.4,0.5,0.3c1.8-0.8,4.9-3.8,5.4-5.2c0,0-0.1-1,0.1-1.4c0.4-1.2,1.4-2.4,2.1-3.4   C396.7,499.1,398.5,495.9,397.2,496.7z M388.4,508.5c-0.1,0-0.1,0-0.2,0.1C388.3,508.5,388.4,508.5,388.4,508.5z M396.2,499.2   c-0.3,0.5-0.6,0.9-0.9,1.4c0.8-1.2,1.6-2.4,2.3-3.5C397.1,497.8,396.7,498.5,396.2,499.2z"/>
	<path class="st0" d="M339.6,538.6c-0.1-0.9-0.5-0.5-1.4-0.3c-2.1,0.4-4.1,1.1-6.1,1.7c0.7,0.4,1.2,0.9,1.9,1.4   c-1.6-1.1-1.7-1.4-3.7-0.9c0.2,0.6,0.4,1.2,0.7,1.8c0.3-0.1,2-0.7,2.1-0.4c-0.2,0.3-0.2,0.4-0.3,0.7c0.5,0.2,1,0.1,1.5-0.1   c-0.6,0.8-2.7,1-4,1.1c0.6-0.2-0.1-1.1,0.7-1.3c-0.9-1.5-0.2-1.5-1.6-1.5c-0.7,0-1.9,0.4-2.6,0.6c-2.1,0.5-4.1,0.8-6.2,1.3   c-1.2,0.2-2.3,0.5-3.4,0.7c-0.6,0.1-1.8-0.3-2,0.7c-0.1,0.9,0.6,1,1.1,0.6c0.2,0.3,0,1.3-0.3,1.6c-0.3,0.3-1.1,0.2-1.6,0.4   c-1,0.4-0.6,0.2-1.3,1.2c-0.4-0.2-0.2-1-0.2-1.1c-0.2-0.4-0.5-1.1-1-1.3c-0.9-0.4-1.5,0-1.5,0.7c0,0.7,1.8,2,2.2,2.1   c0.4,0,1.1-0.3,1.6-0.4c0.3,0,0.7,0,1,0c-0.1,0.1-0.1,0.1-0.1,0.1c0,0,0.1-0.1,0.2-0.1c0.3,0,0.5,0,0.8,0c3.4-0.1,6.5-0.5,9.8-1.4   c0.9-0.2,2-0.2,2.8-0.4c1.2-0.3,1.4-0.3,0.8-1.5c1.7,1.3,5.1-0.1,6.9-0.9c2.6-1.1,0.4-1.8-1.2-1c0-0.1,0-0.2-0.1-0.3   c0.5-0.4,0.5-0.3,0-0.9c0.4,0.1,1.1,0.1,1.4-0.1c0.4-0.1,0.3-0.1,0.7-0.4c0.2-0.2,0.3-0.8,0.7-1c0.5,1,0.5,0.2,0.9,0   C338.9,539.8,339.7,539.5,339.6,538.6z M311.4,547C311.4,547,311.4,547.1,311.4,547L311.4,547z M330.1,543.5c-0.2,0-0.4,0-0.5,0.1   c0,0,0-0.1,0-0.1C329.8,543.5,330,543.5,330.1,543.5z M327.6,543.2c0.4,0.3,1.2,0.5,1.3,0.5C328,544.2,327.7,543.6,327.6,543.2z    M326.2,544.3C326.2,544.3,326.1,544.4,326.2,544.3L326.2,544.3z M322.1,545c0-0.1-0.1-0.2-0.1-0.4c0.6-0.2,1.1,0.5,1.6,0.3   C323,545.2,322.5,545.3,322.1,545z M325.2,544.3c-0.5,0.1-1.1,0-1.6,0C324.1,544.3,324.6,544.3,325.2,544.3z M324.6,544.7   c-0.2,0-0.5,0.1-0.7,0.2C323.7,544.9,323.8,544.7,324.6,544.7z"/>
	<path class="st0" d="M313.1,546.6c-0.2,0.4-0.2,0.7,0,1.1c0.2-0.3,0.3-0.7,0.5-1C313.4,546.6,313.2,546.6,313.1,546.6z"/>
	<path class="st0" d="M330.5,545.1c-0.4-0.2-0.8-0.5-1.1-0.8c0.2,0.3,0.3,0.6,0.5,0.9C330.1,545.2,330.3,545.1,330.5,545.1z"/>
	<path class="st0" d="M310.4,545.3c-0.2,0.1-0.2,0.2-0.2,0.3C310.5,545.3,310.5,545.2,310.4,545.3z"/>
	<path class="st0" d="M205.2,342.4c-0.2,0-0.4,0-0.6,0C204.7,342.6,205,342.5,205.2,342.4z"/>
	<path class="st0" d="M205.3,342.4c0,0.4,0.1,0.8,0.3,1c0.8,0.7,1.9-0.6,1-0.7c0.2,0.1,0.4,0.1,0.5,0.1c0,0,0,0,0,0   c0.1,0,0.1,0,0.1-0.1c0.1-0.1,0.2-0.2,0.3-0.3c0.1-0.2,0.2-0.4,0.3-0.7c-0.1,0-0.2,0.1-0.3,0.1c0.3-0.3,0.4-0.6-0.4-1   c0.7-0.6,0.9-1.6,1.4-2.1c0.2-0.2,0.2-0.3,0.2-0.3c0,0,0.1,0.1,0.4,0.2c0.2,0.1,0.4,0.7,0.6,0.9c-0.2-0.1,1.6-0.4,0.8-0.6   c0,0,0.1,0,0.1-0.1c-0.3-0.1-0.7-0.1-1-0.1c0.7-0.1,2.2-0.2,1.4-1.2c-0.4,0.1-0.7,0-0.9,0.5c-0.4-0.6-1.3-0.9-2-0.7   c-0.4,0.1-0.6,0.2-0.7,0.3c0-0.1-0.1-0.2-0.1-0.2c0,0-0.1,0.1-0.1,0.1c0,0,0,0,0-0.1c-0.3,0.2-0.4,0.5-0.4,0.8   c-0.2,0.6-0.3,1.2-0.5,1.5c-0.1,0.1-0.5-0.7-0.7-0.5c-0.7,0.7-0.4,1.1-0.4,2c0,0,0,0,0,0.1c0-0.4-0.1-0.7-0.1-1.1   C204.8,341.5,204.1,342.2,205.3,342.4z M208.6,337.7C208.6,337.7,208.6,337.7,208.6,337.7C208.6,337.7,208.6,337.7,208.6,337.7   C208.6,337.7,208.6,337.7,208.6,337.7z M207.2,338.2C207.2,338.6,207.2,338.3,207.2,338.2L207.2,338.2z M207.2,338.6   c0-0.1,0-0.1,0.1-0.2c0,0.2-0.1,0.4-0.1,0.7C207.2,338.9,207.2,338.8,207.2,338.6C207.2,338.6,207.2,338.6,207.2,338.6z"/>
	<path class="st0" d="M187.7,364.5c1.4,0.5,2.1-1.1,2.2-2.1c0.1-1.4-1.1-3.6-0.4-4.6c-0.1,0-0.3,0-0.4,0c-0.1,0.1-0.1,0.1-0.2,0.2   c0.1-0.1,0.2-0.2,0.1-0.2c0,0,0.1,0,0.1,0c0.5-0.5,0.9-0.7-0.2-1.5c-0.4-0.3-0.7,0.5-0.7,0.8c0.1,0,0.2,0,0.3-0.1   c0,0.1,0,0.1,0,0.2c0,0,0,0,0,0c0,0,0,0,0,0c-0.1-0.1-0.2-0.1-0.3-0.1c-0.3,0.6-0.4,1.4-0.2,2.1c-1.1-0.2-0.6,0.5-0.5,1.2   c0.1,1.1,0.1,1.8,0,3C187.4,364.3,186.7,364.1,187.7,364.5z M188.4,357.6c0,0,0.1,0.1,0.3,0.1C188.6,357.7,188.5,357.6,188.4,357.6   z M189,357.2c0,0-0.1,0-0.1,0.1c0,0-0.1-0.1-0.1-0.2C188.9,357.1,189,357.1,189,357.2z"/>
	<path class="st0" d="M423.1,444.7c-0.2-0.8-0.6-0.7-0.8-1.6c0-0.2,0.1-1.3,0-1.4c-1.3-1.8-2.6,5.8-2.8,7.1c-0.2,0.4-0.5,1.6-0.4,2   c0.1,0.3-0.1,0.6,0.5,0.5c0.5-0.4,0.8-0.8,0.8-1.4c-0.4-0.6-0.2-1,0.4-1.2c0.1,0.6-1,3.5,0.4,3.4c0.6,0,1.7-4.3,1.1-5   C422.9,447.2,423.3,445.3,423.1,444.7z M420.7,450.8C420.7,450.7,420.7,450.5,420.7,450.8L420.7,450.8z M421.9,442.3   c0-0.2,0-0.5-0.1-0.5C422,441.8,422.1,442,421.9,442.3z M421.7,441.7c0,0,0.1,0,0.1,0c-0.1,0-0.2,0-0.3,0.2   C421.6,441.8,421.6,441.7,421.7,441.7z M421.1,448.7c0-0.1,0-0.2,0-0.3c0,0.2,0,0.4,0,0.5C421.1,448.9,421.1,448.8,421.1,448.7z    M421.2,447.4c0-0.5-0.1-1,0.4-1.3c0.2,0.2,0.2,0.6,0.5,0.9C421.8,447,421.4,447.3,421.2,447.4z M422.1,448.5c0-0.6,0-0.7,0-0.5   C422.1,448.2,422.1,448.4,422.1,448.5z"/>
	<path class="st0" d="M172.7,421.9c0.1-0.1,0.2-0.2,0.2-0.4c-0.1,0-0.3,0-0.4,0.1c-0.1,0.1-0.2,0.3-0.3,0.4c0.1,0,0.1,0,0.2,0   c-0.1,0-0.1,0-0.2,0c-1.2,0.5-1.3,2.5-1.1,3.8c0.4,2.7,3.9,0.6,0.8-0.3c0.5,0.1,1,0.3,1.5,0.5c0-0.4,0-0.5-0.2-0.6   c0.1,0,0.1,0,0.2,0c-0.1-0.9,0.4-1.9,0.2-2.8C173.1,421.3,173.1,421.7,172.7,421.9z M172.6,422C172.6,422,172.6,422,172.6,422   C172.6,422,172.6,422,172.6,422z"/>
	<path class="st0" d="M174.2,427.2c0-0.2,0.2-0.3,0.3-0.5C174.5,426.6,174.4,426.7,174.2,427.2z"/>
	<path class="st0" d="M176.6,430c0.3-0.9,0-2.5-0.1-3.3c-0.1-0.6-0.4-1-1-1.3c-0.4-0.1-0.9,0.9-1,1c0.1,0.1,0.2,0.1,0.2,0.1   c0,0-0.1,0.1-0.2,0.2c0,0.4-0.3,1.9-0.2,1.5c-0.1,1.6-0.2,1.5,1.3,1.9C176.3,430.4,176,431.4,176.6,430z M174.6,427.2   C174.5,427.6,174.6,427.3,174.6,427.2L174.6,427.2z M174.8,426.5c0,0,0.1-0.1,0.1-0.1c0,0.1,0,0.1,0.1,0.2c-0.1,0-0.2,0-0.2,0.1   C174.8,426.5,174.8,426.5,174.8,426.5z M175.9,426.7c0.1,0,0.2,0,0.2,0c0,0,0,0,0,0c0,0,0,0,0,0c0,0,0,0.1,0,0.2   C176.2,426.8,176.1,426.7,175.9,426.7z"/>
	<path class="st0" d="M190.5,358.3c0.2,0.1,0.5,0.2,0.7,0.3c0.4,0.2,0.2,0.4,0.4,0.5c0.6,0.3,1.8,0.5,1.8,1.4c0,0.7,1.3-0.7,1-1.6   c-0.1-0.2-0.9-1-1.1-1.1c-0.5-0.4-1.6-0.3-1.9-0.6c-0.3-0.3,0-1.7-0.6-1.7c-0.2,0-0.2,0.1-0.3,0.2c0,0,0,0,0,0   c-0.3,0.5-0.4,1.4-0.6,1.9c0,0,0.1-0.1,0.1-0.1c-0.2,0.1-0.3,0.3-0.3,0.6C189.8,358.9,190.2,358.1,190.5,358.3z M194.4,359.4   C194.4,359.4,194.4,359.7,194.4,359.4L194.4,359.4z M190.7,356.2c0.2,0.4,0.5,0.9,0.5,1C191,356.9,190.8,356.6,190.7,356.2z    M190.6,356C190.6,356,190.6,356,190.6,356C190.6,356,190.6,356,190.6,356z M191,357.2c-0.3,0-0.6,0-0.8,0.2   C190.4,357.2,190.7,357.1,191,357.2z"/>
	<path class="st0" d="M175.4,421.8c0.3,0.5,0.9,0.6,1.5,0c0.7-0.8-0.6-4.9-1.5-4.5c0,0.5-0.1,1.5-0.9,1.6c0.1,0.7,0.3,1,1,0.7   C175.5,420.3,175,421.3,175.4,421.8z"/>
	<path class="st0" d="M174.5,418.6c0,0.9,0.9-1,0.9-1.3C174.8,417.6,174.5,418,174.5,418.6z"/>
	<path class="st0" d="M423.3,429.9c-0.9,0.4-0.5,1.6-0.6,2.3c-0.1,0.7-0.4,1-0.7,1.7c-0.3,0.8,2-0.3,2.2-0.6   c0.3-0.4,0.7-1.9,0.6-2.5C424.6,430.1,423.9,429.7,423.3,429.9z M422.5,433.5c0,0,0.1-0.1,0.1-0.1c0.1-0.1,0.1-0.1,0.2-0.2   C422.7,433.3,422.6,433.4,422.5,433.5z M424.5,430.8C424.5,430.8,424.5,430.8,424.5,430.8C424.5,430.8,424.5,430.8,424.5,430.8   C424.5,430.8,424.5,430.8,424.5,430.8z"/>
	<path class="st0" d="M228.7,528.6c1.5,2.6,1.8-1.5,1.8-2.4C230.5,522.7,227.7,526.9,228.7,528.6z M230,528.7   C230,528,230,528.5,230,528.7L230,528.7z M230.2,526.1C230.2,526.2,230.2,526.4,230.2,526.1L230.2,526.1z"/>
	<path class="st0" d="M356,534.4C356,534.4,356,534.3,356,534.4C356,534.3,356,534.4,356,534.4z"/>
	<path class="st0" d="M371.2,525.4c-0.7-0.1-2.9,1.9-3.6,2.3c-1.5,1-3.1,1.8-4.7,2.8c-0.5,0.3-0.9,0.6-1.4,0.9   c-0.7,0.4-1.4,0.8-2.2,1.2c0,0,0,0,0,0c0,0,0,0,0,0c-0.9,0.4-1.9,0.7-2.7,1.1c0.1,0.1,0.1,0.1,0.2,0.1c-0.2,0-0.6,0.1-0.8,0.4   c0.1,0,0.2,0,0.3,0c-0.2,0.1-0.4,0.1-0.3,0c-0.1,0.2-0.2,0.3-0.2,0.5c0-0.1,0-0.2,0-0.3c-0.3,0.3-0.4,0.6-0.3,0.9   c0.1,0.2,0.2,0.3,0.3,0.3c0.7,0,2.4-1,1.9-1.8c0.2,0.2,0.2,0.4,0.2,0.7c0.3-0.1,0.6-0.3,0.9-0.5c-0.3-0.2-0.8-0.3-1.2-0.3   c1.4,0.1,1.5,0,2.8-0.5c-0.1-0.1-0.1-0.3-0.2-0.4c1.2,0.2,2.6-0.9,3.7-1.5c0-0.1-0.1-0.2-0.1-0.2c0.6,0.1,5.8-3.3,6.4-3.7   C370.5,527.3,373.4,525.7,371.2,525.4z M356.9,534.1c0.1-0.1,0.1-0.1,0.1-0.1c0,0,0.1,0,0.1,0c0.2-0.1,0.1,0-0.1,0.1   C356.9,534.1,356.9,534.1,356.9,534.1z M357.7,533.7c0.1-0.1,0.1-0.1,0.1,0C357.8,533.7,357.8,533.7,357.7,533.7z M363.5,531.3   c0.1,0,0.1-0.1,0.1-0.1c0,0,0,0,0,0c0,0,0,0,0,0C363.6,531.2,363.5,531.3,363.5,531.3z M370.1,527.1c0.3-0.2,0.6-0.4,0.9-0.5   c0.3-0.2,0.5-0.3,0.8-0.5C371.2,526.4,370.6,526.8,370.1,527.1z"/>
	<path class="st0" d="M242.2,537c0.2,3,1.9,0.5,2.5-0.6C245,535.8,242,534,242.2,537z"/>
	<path class="st0" d="M267,542.5c0,0-0.1-0.1-0.1-0.1c-0.6-1.3-1.8-2.5-2.4-1.4c-0.5,0.8,0.4,1.7,1.1,1.8c0.2,0,0.4-0.1,0.7-0.3   c-0.1,0.6,0.2,1.7,0.2,1.7c0.1-0.1,0.2-0.4,0.3-0.6c-0.1,0.6-0.1,1.5,0.3,0.7c0.2-0.4,0.1-1.1-0.1-1.7   C267,542.5,267,542.5,267,542.5z M264.6,541.4C264.6,541.4,264.6,541.4,264.6,541.4L264.6,541.4z M266.8,542.9c0,0.1,0,0.1,0,0.2   c0,0,0,0.1,0,0.1c0-0.1,0-0.2,0-0.1C266.8,543,266.8,543,266.8,542.9z"/>
	<path class="st0" d="M422.8,436.5c-0.3,0.1-1.1,3.4-1.1,3.7c0,0.9,1.6,0.2,1.9-0.2c0.6-0.7,0.2-1.6,0-2.4   C423.5,437.5,424.2,436.2,422.8,436.5z M422.6,438.1C422.6,438.1,422.6,438.1,422.6,438.1C422.6,438.1,422.6,438.1,422.6,438.1   C422.6,438.1,422.6,438.1,422.6,438.1z"/>
	<path class="st0" d="M417.8,377.6c0.1,0.4,0.3,0.5,0.7,0.5c0.4-0.2,0.1-0.6-0.2-0.7c0.1,0,0.1,0,0.2-0.1c-0.2-0.6-1.9-5.3-2.6-4.5   C415.3,373.5,417.4,377.1,417.8,377.6z M418.2,377.5C418.2,377.4,418.2,377.4,418.2,377.5c0-0.1,0-0.1,0-0.1   C418.2,377.4,418.2,377.4,418.2,377.5C418.2,377.4,418.2,377.4,418.2,377.5C418.2,377.4,418.2,377.5,418.2,377.5z"/>
	<path class="st0" d="M401.7,348.5c1,1.4,2.1,3,3.1,4.5c0.2,0.3,2.3,4.2,2.7,2.6c0.2-0.8-3.2-4.9-3.6-4.9c0.1,0.1,0.1,0.2,0.2,0.3   c-0.2-0.2-0.4-0.3-0.7-0.3c0.2,0,0.3,0,0.5,0c-0.1-0.1-0.2-0.2-0.3-0.1c0-0.1,0-0.2,0-0.2c0.2,0.1,0.3,0.2,0.5,0.1   c-0.7-1-1.4-1.9-2.1-2.9c-0.3-0.5-3.3-4.8-3.9-3.6C397.7,344.8,401.3,348,401.7,348.5z M406.5,354.4c0.3,0.4,0.5,0.9,0.7,1.3   c-0.5-0.9-1.1-1.8-1.7-2.6C405.8,353.5,406.1,353.9,406.5,354.4z"/>
	<path class="st0" d="M403.9,350.7c0.1,0,0.3,0,0.4,0C404.1,350.5,403.7,350.5,403.9,350.7z"/>
	<path class="st0" d="M261.4,540.1c-0.7,0.5-0.1,2.5,0.1,3.1c0.1,0.3,1.8,0.8,2,0.4c0.2-0.3-0.4-1.4-0.5-1.7   C263,541.1,262.8,539.2,261.4,540.1z"/>
	<path class="st0" d="M209.1,334.2c0.5,2.4,2.5-2,1.1-2.2c-0.6-0.1-2,1.8-2,2.2C208.4,334.5,208.9,334.4,209.1,334.2z"/>
	<path class="st0" d="M171.5,429.2c-0.4,0.5,0,1.7,0.1,2.3c0.1,0.9,2.3-0.7,1.5-2C172.8,428.9,172.1,428.6,171.5,429.2z M172,429.2   C172,429.2,172,429.2,172,429.2C172,429.2,172,429.2,172,429.2C172,429.2,172,429.2,172,429.2z M172.5,429.3   c0.2,0.1,0.3,0.2,0.3,0.4C172.8,429.5,172.7,429.4,172.5,429.3z M173,430.4C173,430.4,173,430.6,173,430.4L173,430.4z"/>
	<path class="st0" d="M249.3,536.1c-0.6,0.3-1,2.2,0,2.3C251,537.8,250.9,535.4,249.3,536.1z M250.4,536.6   C250.4,536.7,250.4,537.2,250.4,536.6L250.4,536.6z"/>
	<path class="st0" d="M180.1,449.5c-0.1,0.3-0.1,0.5-0.1,0.8c0,0,0,0,0,0c-0.1-0.6,0-1.1-0.2-1.2c0.2,0,0.2-0.1-0.1-0.2   c-0.2,0-0.3,0.1-0.4,0.2c0.1,0,0.1,0,0.2,0c-0.2,0.1-0.4,0.2-0.7,0.5c-0.1,0.1-0.2,0.2-0.3,0.3c-0.1-0.2-0.3,0-0.4,0.6   c0,0,0,0,0.1,0c-0.1,0.2-0.1,0.5,0,0.7c0.1,0.3,0.9,0.1,1,0.1c0.1,0,0.3,0.6,0.5,0.5c0.7-0.3,0.5-0.8,0.3-1.4   c0,0.2,0.1,0.5,0.2,0.7C180.4,450.6,180.2,450,180.1,449.5z M178.4,450.7C178.4,450.7,178.4,450.7,178.4,450.7   C178.5,450.3,178.5,450.3,178.4,450.7z"/>
	<polygon class="st0" points="182.3,378.6 182.3,378.6 182.3,378.6  "/>
	<path class="st0" d="M182.7,378.6c0-0.1,0.1-0.2,0.1-0.4C182.7,378.3,182.7,378.4,182.7,378.6z"/>
	<path class="st0" d="M186.7,360.4c-0.5,0.1-0.8-0.2-0.9,0.5C185.8,361,187,360.6,186.7,360.4z"/>
	<path class="st0" d="M186,362.6c-0.2-0.1-0.4-0.1-0.6-0.2C185,363.2,185.2,363,186,362.6z"/>
	<path class="st0" d="M272.7,544.3c-1.4-0.7-2.1,3.2-0.2,2.1C273.7,546.3,273.5,544.7,272.7,544.3z"/>
	<path class="st0" d="M235.2,526.8c-1.3-1.1-1.4-1.3-1.8,0.6c-0.2,0.8,0,1.2-0.1,1.9c0.1,0.2,0.2,0.4,0.3,0.6   c-0.2,0.2-0.4,0.4-0.5,0.6c0,0.8-0.3,1.1,0.2,1.9c0,0,0,0,0,0c0,0.1,0.1,0.2,0.2,0.2c0.9,0.3,1.3-1.4,1.5-2.2   c0.1-0.3-0.2-0.5-0.1-0.8c0.2-0.3,0.4-0.7,0.6-0.8c0.1,1,0.3,0.6,1-0.1c-0.2,0.3-0.5,0.5-0.7,0.8c0.2,0.3,0.5,0.7,0.9,0.7   C239.1,529.7,235.9,527.4,235.2,526.8z M234.7,530.2c0-0.1,0-0.2-0.1-0.3C234.6,530,234.7,530.1,234.7,530.2z M233.5,527.8   C233.5,527.8,233.5,527.9,233.5,527.8L233.5,527.8z M233.5,532.1c0-0.1,0-0.2-0.1-0.2c0.1,0.1,0.1,0.1,0.2,0.1   C233.5,532.1,233.5,532.2,233.5,532.1C233.5,532.1,233.5,532.1,233.5,532.1z M233.9,531.7c0-0.1,0-0.1,0-0.2c0-0.1,0-0.1,0.1-0.1   c0-0.2,0.2-0.3,0.4-0.5C234.1,531.2,233.9,531.5,233.9,531.7z"/>
	<path class="st0" d="M424.1,444.1c-0.4,0.8-0.5,4.1,0.7,2.6C425.6,445.8,424.5,443.3,424.1,444.1z"/>
	<path class="st0" d="M415.2,466.2c0,2.1,1.7,0.2,1.6-0.8C416.7,463.9,415.2,465,415.2,466.2z M416.1,464.9   C416.1,464.9,416.1,464.9,416.1,464.9c0,0,0.1,0,0.1,0C416.2,464.9,416.1,464.9,416.1,464.9z"/>
	<path class="st0" d="M414.2,369.6c0.1,0.2,0.8,2.2,1.3,1.9c1-0.6-0.8-3.2-1.2-4C413.3,368.5,413.5,368.4,414.2,369.6z"/>
	<path class="st0" d="M407.4,356.9c-0.1,0.6,0.4,1,0.7,1.5c0.1,0,0.1-0.1,0.2-0.1c-0.1,0.3,0,0.6,0.3,0.9c0,0-0.1,0-0.1-0.1   c0.2,0.3,0.8,1.8,1.3,1.7c-0.7,0.5,1.5,3.2,2.1,4.4c0,0-0.1,0-0.1-0.1l0.3,0.5c0-0.1,0.3-0.2,0.5-0.3c-0.1,0.1-0.3,0.2-0.5,0.4   c0.5,0.9,0.9,1.8,1.4,2.6c0.8-0.8,0.9-1.6-0.1-2.5c-0.3-0.3-0.4-0.6-0.6-0.6c0.2,0,0.3,0,0.4,0.3c0.3-0.4-2.4-4.8-3.2-4.8   c0.3-0.6,0.6-0.4-0.3-0.8c0,0,0,0,0,0c0,0,0,0-0.1,0c0,0,0,0,0,0c0.2,0.1,0.3,0.1,0.5,0.2c-0.5-0.8-1-1.7-1.5-2.5   c-0.1,0.1-0.1,0.3-0.1,0.5c0-0.1-0.1-0.2-0.1-0.2c0,0,0,0,0,0c0,0,0,0,0,0c0,0,0,0,0,0c0.2-0.2,0.3-0.3,0.1-0.5   c-0.1-0.3-0.2-0.4-0.4-0.1c-0.1,0.1-0.2,0.2-0.3,0.3c0.2-0.3,0.3-0.9-0.2-0.5c0.3-0.3,0.4-0.2,0.5,0.2   C408.8,356.6,407.5,356.5,407.4,356.9z M409.8,359.9c0.3,0.3,0.3,0.5,0,0.6C410.1,360.3,410,360.1,409.8,359.9z M408.3,357.5   C408.3,357.5,408.3,357.5,408.3,357.5C408.3,357.5,408.3,357.5,408.3,357.5C408.3,357.5,408.3,357.5,408.3,357.5   C408.3,357.5,408.3,357.5,408.3,357.5C408.3,357.5,408.3,357.5,408.3,357.5z"/>
	<path class="st0" d="M188.6,369.4c-0.6-1-3.1,1-1.8,1.6C187.6,371.4,189.1,370.3,188.6,369.4z M188.3,369.5c0,0,0.1,0.1,0.1,0.1   C188.4,369.6,188.3,369.5,188.3,369.5C188.3,369.5,188.3,369.5,188.3,369.5z M188.5,369.7C188.5,369.7,188.5,369.9,188.5,369.7   L188.5,369.7z"/>
	<path class="st0" d="M175.3,415.8c0,0.2-0.1,0.4,0.1,0.6C175.4,415.6,175.4,415.4,175.3,415.8z"/>
	<path class="st0" d="M175.5,413.6c0,0,0-0.1,0-0.2c0.1,0.4,0.3,0.9,0.3,1.1c0,0.7-0.8,1.4-0.1,2c0,0,1.6-0.2,1.6-0.2   c0,0-0.1-2-0.1-1.9c-0.2-1-0.6-0.4-0.3-1.6c0.3-1.1,0.7-2,0.8-3.3c0.5-5.3,2-10.4,2-15.8c0-0.8-1.2,0-1.4,0.3   c-0.4,0.6,0.3,1.2,0.1,1.7c-0.7,1.6-0.7,0-1.4,0.7c-0.3,0.3-1.1,2.8-0.8,3.2c0.6,1,1.4-0.1,2.1-0.6c0.4,0.9-0.3,1.7-1.1,2   c-0.6,0.3-0.5-0.8-1.3,0.3c-0.5,0.7-2.6,5.5-0.7,4.6c-0.1,1.2,0.5,5.2-0.5,6c0.2,0,0.1,0.3,0.4,0.1c0,0,0,0.1,0,0.2   c0,0-0.1-0.1-0.2,0c-0.1,0.1-0.8-0.3-0.8,0.9C174.2,414.9,175.4,413.2,175.5,413.6z M176.6,399.5   C176.6,399.5,176.6,399.5,176.6,399.5L176.6,399.5z M176.7,398.9c0,0.1,0,0.1-0.1,0.2c0.1-0.3,0.2-0.6,0.2-1   C176.9,398.4,176.8,398.6,176.7,398.9z M179.4,397.1C179.4,396.9,179.4,397.1,179.4,397.1L179.4,397.1z M177.9,399.1   c0.2-0.2,0.4-0.4,0.7-0.5C178.6,398.8,178.3,399,177.9,399.1z M174.7,405.2C174.7,405.2,174.7,405.2,174.7,405.2   C174.7,405.5,174.7,405.5,174.7,405.2z M175.9,415.2c0,0.1-0.1,0.1-0.1,0.2c0,0,0,0,0,0C175.8,415.3,175.9,415.3,175.9,415.2z    M176.3,415.9C176.3,415.9,176.3,415.9,176.3,415.9c0,0,0.1-0.1,0.2-0.2C176.5,415.8,176.4,415.9,176.3,415.9z M176.9,414.5   c-0.1-0.1-0.3-0.2-0.3-0.3c0.1,0.1,0.1,0.1,0.2,0.2C176.8,414.4,176.8,414.4,176.9,414.5z M176.8,407.8c-0.2-0.6-0.2-0.9,0.3-1.2   C177.5,407.1,177.4,407.5,176.8,407.8z M175.4,411.6c0-0.1,0-0.3,0-0.4c0-0.1,0-0.2,0-0.3C175.3,411.1,175.3,411.4,175.4,411.6z"/>
	<path class="st0" d="M246.7,536.1c-0.6,0.2-2,1.5-0.9,2C247,538.6,247.5,535.8,246.7,536.1z"/>
	<path class="st0" d="M259.3,541c-0.4,0.1-1.4,1.6-0.6,1.6C260.4,542.8,260.6,540.8,259.3,541z M259.6,541.2   C259.6,541.2,259.6,541.2,259.6,541.2c0.1,0,0.1,0.1,0.2,0.2C259.7,541.3,259.7,541.3,259.6,541.2z"/>
	<path class="st0" d="M174.9,391.9c-0.1,0.4,0,0.7,0.1,1c0.2,0.3,1.6,0.8,2,0.7c0.8-0.2,2.6-3.4,1.3-3.6c-0.7-0.1-0.5,0.4-0.8,0.9   c-0.4,0.6-0.6,1.3-1.1,2c-0.2-0.2-0.4-0.6-0.4-0.9c0.4,0.1,1.4-2.7,1.5-3c0-0.4-0.4-0.8-0.3-1.2c0-0.3,0.2-0.7,0.3-1   c0.3-0.6,0.7-0.5,0.9-1c0.1-0.5,0.1-0.5-0.4-0.6c1.8,0.3,2.5-3.7,3.1-5.1c0.4-1,0.9-1,1.4-1.3c-0.3,0-0.2-0.3,0.3-0.8   c-0.1,0.3-0.2,0.5-0.3,0.8c0.2-0.2,0.5-0.4,0.7-1c0.8-1.8,1-3.8,1.7-5.4c0.6-1.5,1.2-3,1.8-4.5c0.3-0.8,1.5-1.5,1.2-2.4   c-0.2-0.7-0.6-0.9-1.1-0.5c0-0.8,0.1-1.2,0.2-2.1c0-0.3-0.4-0.3-0.3-0.6c0-0.3,0.5-0.9,0.4-1.2c-0.3-0.8-2.4,1-0.8,1.7   c-1.5,0.7-1.8,1.7-1.5,3.4c-0.8,0-1.8,2.2-1.3,2.9c-0.9-0.4-0.7-1.8-1.5,0.3c-0.2,0.5-1.2,2.6-0.2,2.6c-0.9,0.6-1.3,2.9-0.8,3.8   c-1.2,0-0.9,0.9-1.2,1.7c-0.5,1.2-1.1,2.5-1.6,3.8c-0.4,0-0.5-0.2-0.7,0.3c0,0,0,0,0.1,0c-0.1,0.1,0.1,0.5,0.2,0.5   c0,0.1,0,0.1,0,0.2c0,0.9-0.9,0.8,0.2,1.6c-0.2-0.1-0.4-0.2-0.6-0.4c0,0.2,0.1,0.5,0.3,0.5c-0.1,0-0.2-0.1-0.3-0.4   c-0.3,1.4-0.7,2.8-1.1,4.2c-0.1,0.5,0.2,0.7-0.5,1.1c0.1-0.6,0.8-3.2-0.5-2.1c-0.1,0.1-0.7,2.2-0.6,2.4c0.1,0.1,0.7,1.1,1,0.3   c0,0.5-0.3,1.4-0.5,2.2c0.1-0.5,0.1-0.9,0.1-1.1c0-0.9-1,0-1.1,0.1c-0.2,0.2-0.4,2.5-0.3,2.6C174.3,394,174.7,393,174.9,391.9z    M177.9,390.7C177.8,390.9,177.9,390.7,177.9,390.7L177.9,390.7z M177.1,392.6c0.1-0.1,0.2-0.2,0.3-0.3c-0.3,0.3-0.6,0.5-0.8,0.8   C176.7,393,176.9,392.8,177.1,392.6z M187.2,366.1c0.1,0,0.1-0.1,0.1-0.1c-0.3,0.2-0.5,0.5-0.7,0.7   C186.8,366.5,187,366.3,187.2,366.1z M187,364.9c-0.3,0.6-0.5,0.8-0.7,0.6C186.6,365.3,186.8,365.1,187,364.9z M186.4,365.5   c0,0-0.1-0.1-0.1-0.2C186.3,365.3,186.3,365.4,186.4,365.5z M185.4,369.7c0,0.1,0,0.2,0,0.3C185.4,369.8,185.4,369.3,185.4,369.7z    M184.6,364.4c0.1-0.2,0.2-0.3,0.3-0.5C185.4,363.2,184.4,364.8,184.6,364.4z M181.9,371.5C181.9,371.5,181.9,371.8,181.9,371.5   L181.9,371.5z M181.5,372.3c-0.1,0.2-0.1,0.4-0.2,0.5C181.3,372.6,181.4,372.4,181.5,372.3z M180.9,374   C180.9,374,180.9,374,180.9,374C180.9,374,180.9,374,180.9,374C180.9,374,180.9,374,180.9,374z M178,385c-0.1,0,0.1-0.1,0.3-0.2   C178.2,384.9,178.1,385,178,385z M175.4,391.5c0.1,0.1,0,0.1,0,0.2C175.4,391.6,175.4,391.5,175.4,391.5z"/>
	<path class="st0" d="M243.5,533c0.2-1.2-0.6-1.8-1.4-2.3c-0.1-0.1-0.4,0.3-0.4,0.3c-0.8-0.3-0.9-0.7-1.9-0.8   c-0.7-0.1-1.4-0.3-1.6,0.4c-0.2,1,1.1,0.9,1.4,1.3c0.2,0.2,0.5,0.3,0.7,0.5c0.2,0.1,0.2,0.4-0.2,0.7c0.4,0.8-0.4,1.3,0.8,0.9   c0.4-0.1,1.1-1.5,1.2-1.8c0.1,0.5-0.1,0.8,0.1,1.3C242.6,534.4,243.2,534.5,243.5,533z M240.4,533C240.4,533,240.4,533,240.4,533   C240.4,533,240.4,533,240.4,533z M242.3,532.8C242.3,532.8,242.3,532.8,242.3,532.8C242.3,532.8,242.3,532.8,242.3,532.8   C242.3,532.8,242.3,532.8,242.3,532.8z"/>
	<path class="st0" d="M420.2,453.7c0.9,0.9,1.4-0.9,0.6-1.6C419.9,451.4,419.7,453.2,420.2,453.7z"/>
	<path class="st0" d="M238.7,534.1c-0.1,0.2-0.3,0.4-0.5,0.5c0.4-0.3,0.7-1,0-0.8c-0.3,0.1-0.5,0.8-0.6,1c0.2,0,0.3,0,0.4-0.1   c0,0,0,0,0,0c0,0,0,0,0,0c-0.2,0.4-1.1,1,0.3,0.9C239.3,535.6,239.7,534.7,238.7,534.1z"/>
	<path class="st0" d="M301.7,545.2c-1.1,1.3,0.7,1.7,1.2,1C303.4,545.6,302.6,544.1,301.7,545.2z"/>
	<path class="st0" d="M191.8,361c-0.4-1.1-1.8,2.2-0.3,2.2C192.6,363.1,192,361.4,191.8,361z"/>
	<path class="st0" d="M423.8,447.8c-0.9-0.2-0.9,1.6-0.1,1.9C424.4,450,424.6,448,423.8,447.8z"/>
	<path class="st0" d="M420.6,384.8c-0.6,0.3-0.6,1.3,0,1.8C421.9,387.8,421.7,384.4,420.6,384.8z"/>
	<path class="st0" d="M175,456.4c-0.6,0.2-0.5,2,0.4,1.8c0.8-0.2,0.2-1.5,0.1-2.1C175.6,455.9,174.2,455.4,175,456.4z"/>
	<path class="st0" d="M175,456.4c-0.1-0.1-0.2-0.2-0.3-0.3C174.6,456.5,174.7,456.5,175,456.4z"/>
	<path class="st0" d="M392.2,508.4c0.5,0.4,2.2-1.4,1.6-1.8C393.1,506.2,391.4,507.8,392.2,508.4z"/>
	<path class="st0" d="M419.2,456.1c0,1.2,1.1,1.2,1.2,0.1C420.6,454.8,419.2,455,419.2,456.1z"/>
	<path class="st0" d="M422.9,419.5c-0.1,0.1,0,0.1,0.2,0.1c0.4-0.1,0.7,0,0.8-0.5c-0.1,0-0.1,0-0.1,0   C425.8,418.3,421.3,417.3,422.9,419.5C422.9,419.5,422.9,419.5,422.9,419.5z M423.4,419.3C423.5,419.3,423.4,419.3,423.4,419.3   c0-0.1,0.1-0.1,0.1-0.1C423.5,419.2,423.5,419.2,423.4,419.3c0.1-0.1,0.1-0.1,0.1-0.1C423.5,419.3,423.5,419.3,423.4,419.3z    M423.6,419.2c0.2-0.2,0.3-0.4,0.3-0.7C424,418.7,423.9,418.9,423.6,419.2z"/>
	<path class="st0" d="M174.4,398.2c-1.7-0.7-0.4,1.7,0.3,1.6C175.4,399.6,175.3,398.2,174.4,398.2z M174,398.3   c-0.1,0-0.1,0.1-0.2,0.1C173.9,398.3,174,398.3,174,398.3z M174,398.3C174.1,398.3,174.1,398.4,174,398.3   C174.1,398.4,174.1,398.4,174,398.3z M174.2,398.5c0.2,0,0.4,0.1,0.6,0.1c-0.1,0-0.2,0-0.3,0C174.4,398.6,174.3,398.6,174.2,398.5z    M174.7,399.4C174.7,399.4,174.7,399.5,174.7,399.4c-0.1,0-0.1,0.1-0.2,0.1C174.6,399.5,174.7,399.5,174.7,399.4z"/>
	<path class="st0" d="M253.3,540.4c-1.4,0.1,0.1,1.7,0.6,1.3C254.5,541.2,254,540.3,253.3,540.4z"/>
	<path class="st0" d="M339.5,539.3c-0.2,0.5,0.8,1.3,0.8,0.5C340.4,539.4,339.8,538.7,339.5,539.3z"/>
	<path class="st0" d="M225.2,520.5c0,0-0.3,1.2,0.5,0.5C226.3,520.5,225.2,520.5,225.2,520.5z"/>
	<path class="st0" d="M228.6,523.4c0.2,0.7,1.8,0.2,0.9-0.4C229.1,522.7,228.3,522.8,228.6,523.4z"/>
</g>
</svg>